G04 Generated by Ultiboard 14.0 *
%FSLAX34Y34*%
%MOMM*%

%ADD10C,0.0001*%
%ADD11C,0.2540*%
%ADD12C,0.5000*%
%ADD13C,2.0000*%
%ADD14C,1.0000*%
%ADD15C,0.3000*%
%ADD16C,1.8000*%
%ADD17C,0.0010*%
%ADD18C,0.4000*%
%ADD19C,0.6000*%
%ADD20C,0.1270*%
%ADD21C,1.6088*%
%ADD22R,0.5291X0.5291*%
%ADD23C,0.9949*%
%ADD24C,2.6000*%
%ADD25C,1.0000*%
%ADD26R,0.5000X0.8500*%
%ADD27C,1.3556*%
%ADD28R,1.2000X0.6500*%
%ADD29R,1.0000X0.9500*%
%ADD30C,1.4000*%


G04 ColorRGB 0000FF for the following layer *
%LNCopper Bottom*%
%LPD*%
G54D10*
G36*
X15505Y616172D02*
X15505Y616172D01*
X634495Y616172D01*
G74*
D01*
G03X632267Y612933I5504J6172*
G01*
X632267Y612933D01*
X637067Y612933D01*
X637067Y616172D01*
X642933Y616172D01*
X642933Y612933D01*
X646172Y612933D01*
X646172Y607067D01*
X642933Y607067D01*
X642933Y602267D01*
G74*
D01*
G03X646172Y604495I2933J7732*
G01*
X646172Y604495D01*
X646172Y75505D01*
G74*
D01*
G03X642933Y77733I6172J5504*
G01*
X642933Y77733D01*
X642933Y72933D01*
X646172Y72933D01*
X646172Y67067D01*
X642933Y67067D01*
X642933Y62267D01*
G74*
D01*
G03X646172Y64495I2933J7732*
G01*
X646172Y64495D01*
X646172Y15505D01*
G74*
D01*
G03X642933Y17733I6172J5504*
G01*
X642933Y17733D01*
X642933Y12933D01*
X646172Y12933D01*
X646172Y7067D01*
X642933Y7067D01*
X642933Y3828D01*
X637067Y3828D01*
X637067Y7067D01*
X632267Y7067D01*
G74*
D01*
G03X634495Y3828I7732J2933*
G01*
X634495Y3828D01*
X590505Y3828D01*
G74*
D01*
G03X592733Y7067I5504J6172*
G01*
X592733Y7067D01*
X587933Y7067D01*
X587933Y3828D01*
X584918Y3828D01*
X584918Y7001D01*
G75*
D01*
G03X584918Y12999I77J2999*
G01*
X584918Y12999D01*
X584918Y37741D01*
X634669Y87492D01*
G75*
D01*
G03X638584Y96930I-9418J9438*
G01*
X638584Y96930D01*
X638584Y147500D01*
G75*
D01*
G03X625104Y160833I-13334J0*
G01*
X625104Y160833D01*
X621687Y164251D01*
X621687Y168937D01*
X617854Y168937D01*
X617854Y172920D01*
X620997Y176063D01*
X621687Y176063D01*
X621687Y176753D01*
X639755Y194821D01*
G75*
D01*
G03X641137Y210610I-8718J8718*
G01*
G75*
D01*
G03X619975Y209913I-10737J4388*
G01*
X619975Y209913D01*
X599393Y189331D01*
G74*
D01*
G03X591186Y177022I5127J12309*
G01*
X591186Y177022D01*
X591186Y162577D01*
G75*
D01*
G03X595091Y153131I13334J-18*
G01*
X595091Y153131D01*
X610151Y138071D01*
G74*
D01*
G03X611916Y136588I9428J9429*
G01*
X611916Y136588D01*
X611916Y102453D01*
X562071Y52609D01*
G74*
D01*
G03X560125Y50138I9429J9428*
G01*
G74*
D01*
G03X558082Y45720I3755J4418*
G01*
X558082Y45720D01*
X558082Y26118D01*
X545123Y26118D01*
G75*
D01*
G03X535377Y26118I-4873J-1115*
G01*
X535377Y26118D01*
X511258Y26118D01*
X511258Y33020D01*
G74*
D01*
G03X505460Y38818I5798J0*
G01*
X505460Y38818D01*
X457200Y38818D01*
G75*
D01*
G03X451402Y33020I0J-5798*
G01*
X451402Y33020D01*
X451402Y30128D01*
X446088Y30128D01*
G74*
D01*
G03X443190Y31866I2898J1547*
G01*
X443190Y31866D01*
X438190Y31866D01*
G75*
D01*
G03X434904Y28580I0J-3286*
G01*
X434904Y28580D01*
X434904Y24704D01*
G75*
D01*
G03X434904Y23956I5786J-374*
G01*
X434904Y23956D01*
X434904Y20080D01*
G75*
D01*
G03X438190Y16794I3286J0*
G01*
X438190Y16794D01*
X443190Y16794D01*
G74*
D01*
G03X446088Y18532I1J3286*
G01*
X446088Y18532D01*
X451402Y18532D01*
X451402Y3828D01*
X393078Y3828D01*
X403448Y14199D01*
G75*
D01*
G03X395249Y22398I2351J10550*
G01*
X395249Y22398D01*
X383728Y10878D01*
X283115Y10878D01*
G75*
D01*
G03X283148Y11380I-3795J502*
G01*
X283148Y11380D01*
X283148Y20880D01*
G74*
D01*
G03X281343Y24130I3828J0*
G01*
G75*
D01*
G03X283148Y27380I-2023J3250*
G01*
X283148Y27380D01*
X283148Y36880D01*
G74*
D01*
G03X279320Y40708I3828J0*
G01*
X279320Y40708D01*
X272069Y40708D01*
G74*
D01*
G03X272733Y42067I7066J4294*
G01*
X272733Y42067D01*
X267933Y42067D01*
X267933Y40448D01*
G74*
D01*
G03X265492Y36923I1387J3568*
G01*
X265492Y36923D01*
X264098Y36923D01*
G74*
D01*
G03X262067Y40260I3828J43*
G01*
X262067Y40260D01*
X262067Y42067D01*
X260565Y42067D01*
X260565Y47933D01*
X262067Y47933D01*
X262067Y51378D01*
X263744Y53056D01*
G75*
D01*
G03X264793Y59051I-3743J3744*
G01*
X264793Y59051D01*
X264793Y164211D01*
G74*
D01*
G03X266918Y162637I7922J8474*
G01*
X266918Y162637D01*
X266918Y162524D01*
G75*
D01*
G03X268616Y158424I5798J0*
G01*
X268616Y158424D01*
X268616Y158424D01*
X309103Y117938D01*
X304592Y117938D01*
G74*
D01*
G03X300910Y120718I3682J1048*
G01*
X300910Y120718D01*
X290910Y120718D01*
G75*
D01*
G03X287082Y116890I0J-3828*
G01*
X287082Y116890D01*
X287082Y107390D01*
G75*
D01*
G03X288887Y104140I3828J0*
G01*
G74*
D01*
G03X287082Y100890I2023J3250*
G01*
X287082Y100890D01*
X287082Y99182D01*
X292868Y99182D01*
X292868Y103562D01*
X298952Y103562D01*
X298952Y99182D01*
X304738Y99182D01*
X304738Y100890D01*
G74*
D01*
G03X302933Y104140I3828J0*
G01*
G74*
D01*
G03X304592Y106342I2023J3250*
G01*
X304592Y106342D01*
X307583Y106342D01*
G75*
D01*
G03X320798Y115897I7414J3663*
G01*
X320798Y115897D01*
X320798Y120240D01*
G74*
D01*
G03X319093Y124346I5798J1*
G01*
X319093Y124346D01*
X279880Y163560D01*
G75*
D01*
G03X268099Y183326I-7161J9126*
G01*
G75*
D01*
G03X263844Y192322I-8099J1674*
G01*
X263844Y192322D01*
X424318Y192322D01*
X431082Y185558D01*
X431082Y182632D01*
G75*
D01*
G03X419318Y162637I-5882J-9998*
G01*
X419318Y162637D01*
X419318Y160818D01*
X417319Y158818D01*
X415370Y158818D01*
G75*
D01*
G03X411542Y154990I0J-3828*
G01*
X411542Y154990D01*
X411542Y145490D01*
G75*
D01*
G03X413347Y142240I3828J0*
G01*
G74*
D01*
G03X411542Y138990I2023J3250*
G01*
X411542Y138990D01*
X411542Y129490D01*
G75*
D01*
G03X415370Y125662I3828J0*
G01*
X415370Y125662D01*
X425370Y125662D01*
G74*
D01*
G03X429052Y128442I0J3828*
G01*
X429052Y128442D01*
X429360Y128442D01*
G74*
D01*
G03X431127Y125730I3789J537*
G01*
G74*
D01*
G03X429322Y122480I2023J3250*
G01*
X429322Y122480D01*
X429322Y120772D01*
X435108Y120772D01*
X435108Y125152D01*
X441192Y125152D01*
X441192Y120772D01*
X446978Y120772D01*
X446978Y122480D01*
G74*
D01*
G03X446445Y124430I3828J2*
G01*
X446445Y124430D01*
X451840Y124430D01*
X451840Y127542D01*
X456860Y127542D01*
X456860Y124430D01*
X463017Y124430D01*
X463017Y119410D01*
X456860Y119410D01*
X456860Y111730D01*
X463017Y111730D01*
X463017Y106710D01*
X456860Y106710D01*
X456860Y99030D01*
X463017Y99030D01*
X463017Y94010D01*
X456860Y94010D01*
X456860Y89442D01*
X460350Y89442D01*
G74*
D01*
G03X463245Y90765I0J3828*
G01*
G75*
D01*
G03X466850Y88237I3604J1305*
G01*
X466850Y88237D01*
X483540Y88237D01*
X483540Y81586D01*
G75*
D01*
G03X478384Y64887I-8289J-6586*
G01*
X478384Y64887D01*
X476172Y62674D01*
X476172Y62674D01*
X474013Y60516D01*
G74*
D01*
G03X466391Y55798I1238J10515*
G01*
X466391Y55798D01*
X445614Y55798D01*
G74*
D01*
G03X443190Y56866I2424J2217*
G01*
X443190Y56866D01*
X438190Y56866D01*
G75*
D01*
G03X434904Y53580I0J-3286*
G01*
X434904Y53580D01*
X434904Y45080D01*
G75*
D01*
G03X438190Y41794I3286J0*
G01*
X438190Y41794D01*
X443190Y41794D01*
G74*
D01*
G03X446356Y44202I1J3286*
G01*
X446356Y44202D01*
X466391Y44202D01*
G75*
D01*
G03X485766Y48763I8860J5795*
G01*
X485766Y48763D01*
X497718Y60716D01*
G75*
D01*
G03X500160Y66600I-5867J5884*
G01*
X500160Y66600D01*
X500160Y88237D01*
X516850Y88237D01*
G75*
D01*
G03X520683Y92070I0J3833*
G01*
X520683Y92070D01*
X520683Y99070D01*
G74*
D01*
G03X518998Y102245I3833J0*
G01*
G75*
D01*
G03X520683Y105420I-2148J3175*
G01*
X520683Y105420D01*
X520683Y112420D01*
G74*
D01*
G03X519035Y115570I3833J1*
G01*
G75*
D01*
G03X520683Y118720I-2185J3149*
G01*
X520683Y118720D01*
X520683Y125720D01*
G74*
D01*
G03X518998Y128895I3833J0*
G01*
G75*
D01*
G03X520683Y132070I-2148J3175*
G01*
X520683Y132070D01*
X520683Y139070D01*
G74*
D01*
G03X516850Y142903I3833J0*
G01*
X516850Y142903D01*
X504873Y142903D01*
X506800Y144830D01*
X520071Y144830D01*
X525062Y139838D01*
X525062Y114308D01*
G75*
D01*
G03X526760Y110200I5798J-8*
G01*
X526760Y110200D01*
X539460Y97500D01*
G75*
D01*
G03X543566Y95802I4100J4100*
G01*
X543566Y95802D01*
X563880Y95802D01*
G74*
D01*
G03X567986Y97507I1J5798*
G01*
X567986Y97507D01*
X582573Y112094D01*
G75*
D01*
G03X577446Y123365I2427J7906*
G01*
X577446Y123365D01*
X561478Y107398D01*
X545962Y107398D01*
X536658Y116702D01*
X536658Y142240D01*
G74*
D01*
G03X534953Y146346I5798J1*
G01*
X534953Y146346D01*
X527813Y153486D01*
G74*
D01*
G03X524200Y157023I5843J2355*
G01*
G75*
D01*
G03X517817Y157430I-3499J-4623*
G01*
X517817Y157430D01*
X504190Y157430D01*
G75*
D01*
G03X502238Y157120I0J-6300*
G01*
G74*
D01*
G03X499735Y155585I1951J5990*
G01*
X499735Y155585D01*
X496765Y152615D01*
X496095Y152615D01*
X504382Y160902D01*
X539618Y160902D01*
X539618Y122952D01*
G75*
D01*
G03X566286Y122952I13334J0*
G01*
X566286Y122952D01*
X566286Y202566D01*
X604100Y202566D01*
G74*
D01*
G03X610871Y204413I0J13334*
G01*
G74*
D01*
G03X615587Y209129I3226J7942*
G01*
G75*
D01*
G03X604100Y229234I-11487J6771*
G01*
X604100Y229234D01*
X566286Y229234D01*
X566286Y263868D01*
G74*
D01*
G03X566070Y266258I13334J0*
G01*
G75*
D01*
G03X552837Y284821I-16069J2543*
G01*
X552837Y284821D01*
X487878Y349779D01*
G74*
D01*
G03X478440Y353694I9438J9418*
G01*
X478440Y353694D01*
X41358Y353694D01*
X41358Y390016D01*
G75*
D01*
G03X41358Y412552I2755J11268*
G01*
X41358Y412552D01*
X41358Y452120D01*
G74*
D01*
G03X35560Y457918I5798J0*
G01*
X35560Y457918D01*
X5080Y457918D01*
G75*
D01*
G03X3828Y457781I1J-5798*
G01*
X3828Y457781D01*
X3828Y604495D01*
G74*
D01*
G03X7067Y602267I6172J5504*
G01*
X7067Y602267D01*
X7067Y607067D01*
X3828Y607067D01*
X3828Y612933D01*
X7067Y612933D01*
X7067Y616172D01*
X12933Y616172D01*
X12933Y612933D01*
X17733Y612933D01*
G74*
D01*
G03X15505Y616172I7732J2933*
G01*
D02*
G37*
%LPC*%
G36*
X477283Y592956D02*
G75*
D01*
G03X469794Y585467I-9783J2294*
G01*
X469794Y585467D01*
X472225Y583037D01*
X472225Y547558D01*
G75*
D01*
G03X472225Y529874I-7509J-8842*
G01*
X472225Y529874D01*
X472225Y522158D01*
G75*
D01*
G03X472225Y504474I-7509J-8842*
G01*
X472225Y504474D01*
X472225Y469553D01*
X439767Y437095D01*
X375928Y437095D01*
G75*
D01*
G03X372176Y435544I-8J-5295*
G01*
X372176Y435544D01*
X349500Y412869D01*
G75*
D01*
G03X358862Y407253I-584J-11584*
G01*
X358862Y407253D01*
X378113Y426505D01*
X441960Y426505D01*
G74*
D01*
G03X445711Y428062I1J5295*
G01*
X445711Y428062D01*
X476489Y458841D01*
X481258Y463609D01*
G75*
D01*
G03X482815Y467360I-3738J3750*
G01*
X482815Y467360D01*
X482815Y504301D01*
G75*
D01*
G03X482815Y522331I7300J9015*
G01*
X482815Y522331D01*
X482815Y529701D01*
G74*
D01*
G03X486002Y527870I7299J9016*
G01*
X486002Y527870D01*
X486002Y534602D01*
X482815Y534602D01*
X482815Y542830D01*
X486002Y542830D01*
X486002Y549562D01*
G74*
D01*
G03X482815Y547731I4112J10847*
G01*
X482815Y547731D01*
X482815Y585230D01*
G74*
D01*
G03X481258Y588981I5295J1*
G01*
X481258Y588981D01*
X477283Y592956D01*
D02*
G37*
G36*
X432015Y457200D02*
X432015Y457200D01*
X432015Y477520D01*
G74*
D01*
G03X430458Y481271I5295J1*
G01*
X430458Y481271D01*
X408847Y502882D01*
G75*
D01*
G03X406615Y522331I5068J10434*
G01*
X406615Y522331D01*
X406615Y529701D01*
G75*
D01*
G03X406615Y547731I7300J9015*
G01*
X406615Y547731D01*
X406615Y553720D01*
G74*
D01*
G03X405058Y557471I5295J1*
G01*
X405058Y557471D01*
X394911Y567618D01*
G74*
D01*
G03X392517Y568999I3751J3737*
G01*
G75*
D01*
G03X391154Y569175I-1354J-5119*
G01*
X391154Y569175D01*
X360403Y569175D01*
X353143Y576436D01*
G75*
D01*
G03X342205Y576211I-5642J8314*
G01*
X342205Y576211D01*
X342205Y574602D01*
G75*
D01*
G03X343756Y570846I5295J-12*
G01*
X343756Y570846D01*
X354466Y560136D01*
G74*
D01*
G03X357151Y558691I3745J3742*
G01*
G75*
D01*
G03X358210Y558585I1054J5189*
G01*
X358210Y558585D01*
X388967Y558585D01*
X396025Y551527D01*
X396025Y547558D01*
G75*
D01*
G03X396025Y529874I-7509J-8842*
G01*
X396025Y529874D01*
X396025Y522158D01*
G74*
D01*
G03X392630Y524162I7508J8842*
G01*
X392630Y524162D01*
X392630Y517430D01*
X396025Y517430D01*
X396025Y509202D01*
X392630Y509202D01*
X392630Y502470D01*
G74*
D01*
G03X396025Y504474I4113J10846*
G01*
X396025Y504474D01*
X396025Y502933D01*
G75*
D01*
G03X397576Y499176I5295J-13*
G01*
X397576Y499176D01*
X420579Y476172D01*
X421425Y475327D01*
X421425Y459393D01*
X411827Y449795D01*
X332399Y449795D01*
G74*
D01*
G03X328850Y452188I3549J1435*
G01*
X328850Y452188D01*
X318850Y452188D01*
G75*
D01*
G03X315022Y448360I0J-3828*
G01*
X315022Y448360D01*
X315022Y438860D01*
G75*
D01*
G03X316827Y435610I3828J0*
G01*
G74*
D01*
G03X315022Y432360I2023J3250*
G01*
X315022Y432360D01*
X315022Y422860D01*
G75*
D01*
G03X318221Y419084I3828J0*
G01*
X318221Y419084D01*
X318221Y411605D01*
G75*
D01*
G03X328812Y411605I5296J-10321*
G01*
X328812Y411605D01*
X328812Y419032D01*
X328850Y419032D01*
G75*
D01*
G03X332678Y422860I0J3828*
G01*
X332678Y422860D01*
X332678Y432360D01*
G74*
D01*
G03X330873Y435610I3828J0*
G01*
G75*
D01*
G03X332678Y438860I-2023J3250*
G01*
X332678Y438860D01*
X332678Y439205D01*
X414020Y439205D01*
G74*
D01*
G03X417771Y440762I1J5295*
G01*
X417771Y440762D01*
X430458Y453449D01*
G75*
D01*
G03X432015Y457200I-3738J3750*
G01*
D02*
G37*
G36*
X236172Y534271D02*
G75*
D01*
G03X236172Y534271I-56J4445*
G01*
D02*
G37*
G36*
X236172Y501716D02*
G75*
D01*
G03X236172Y501716I-56J11600*
G01*
D02*
G37*
G36*
X132123Y495798D02*
G74*
D01*
G03X132733Y497067I7122J4204*
G01*
X132733Y497067D01*
X127933Y497067D01*
X127933Y495798D01*
X122067Y495798D01*
X122067Y497067D01*
X117267Y497067D01*
G74*
D01*
G03X117877Y495798I7732J2935*
G01*
X117877Y495798D01*
X90897Y495798D01*
G75*
D01*
G03X90897Y484202I-5896J-5798*
G01*
X90897Y484202D01*
X97877Y484202D01*
G74*
D01*
G03X97267Y482933I7122J4204*
G01*
X97267Y482933D01*
X102067Y482933D01*
X102067Y484202D01*
X107933Y484202D01*
X107933Y482933D01*
X112733Y482933D01*
G74*
D01*
G03X112123Y484202I7732J2935*
G01*
X112123Y484202D01*
X192877Y484202D01*
G74*
D01*
G03X192267Y482933I7122J4204*
G01*
X192267Y482933D01*
X197067Y482933D01*
X197067Y484202D01*
X202933Y484202D01*
X202933Y482933D01*
X207733Y482933D01*
G74*
D01*
G03X207123Y484202I7732J2935*
G01*
X207123Y484202D01*
X217877Y484202D01*
G74*
D01*
G03X217267Y482933I7122J4204*
G01*
X217267Y482933D01*
X222067Y482933D01*
X222067Y484202D01*
X227933Y484202D01*
X227933Y482933D01*
X232733Y482933D01*
G74*
D01*
G03X232123Y484202I7732J2935*
G01*
X232123Y484202D01*
X384202Y484202D01*
X384202Y465897D01*
G75*
D01*
G03X395798Y465897I5798J-5896*
G01*
X395798Y465897D01*
X395798Y490000D01*
G74*
D01*
G03X390000Y495798I5798J0*
G01*
X390000Y495798D01*
X132123Y495798D01*
D02*
G37*
G36*
X107933Y472267D02*
G74*
D01*
G03X112733Y477067I2933J7733*
G01*
X112733Y477067D01*
X107933Y477067D01*
X107933Y472267D01*
D02*
G37*
G36*
X162267Y472933D02*
X162267Y472933D01*
X167067Y472933D01*
X167067Y477733D01*
G74*
D01*
G03X162267Y472933I2933J7733*
G01*
D02*
G37*
G36*
X177733Y472933D02*
G74*
D01*
G03X172933Y477733I7733J2933*
G01*
X172933Y477733D01*
X172933Y472933D01*
X177733Y472933D01*
D02*
G37*
G36*
X197067Y472267D02*
X197067Y472267D01*
X197067Y477067D01*
X192267Y477067D01*
G74*
D01*
G03X197067Y472267I7733J2933*
G01*
D02*
G37*
G36*
X202933Y472267D02*
G74*
D01*
G03X207733Y477067I2933J7733*
G01*
X207733Y477067D01*
X202933Y477067D01*
X202933Y472267D01*
D02*
G37*
G36*
X222067Y472267D02*
X222067Y472267D01*
X222067Y477067D01*
X217267Y477067D01*
G74*
D01*
G03X222067Y472267I7733J2933*
G01*
D02*
G37*
G36*
X227933Y472267D02*
G74*
D01*
G03X232733Y477067I2933J7733*
G01*
X232733Y477067D01*
X227933Y477067D01*
X227933Y472267D01*
D02*
G37*
G36*
X102067Y472267D02*
X102067Y472267D01*
X102067Y477067D01*
X97267Y477067D01*
G74*
D01*
G03X102067Y472267I7733J2933*
G01*
D02*
G37*
G36*
X505245Y482594D02*
X505245Y482594D01*
X505245Y472093D01*
X499176Y466024D01*
X499175Y466024D01*
X499175Y466024D01*
X476172Y443021D01*
X476172Y443021D01*
X457547Y424395D01*
X387052Y424395D01*
G75*
D01*
G03X386411Y424357I-8J-5295*
G01*
G74*
D01*
G03X383308Y422844I642J5256*
G01*
X383308Y422844D01*
X373303Y412840D01*
G75*
D01*
G03X383634Y408193I1013J-11556*
G01*
X383634Y408193D01*
X389245Y413805D01*
X459740Y413805D01*
G74*
D01*
G03X463491Y415362I1J5295*
G01*
X463491Y415362D01*
X476172Y428043D01*
X476172Y428043D01*
X506664Y458536D01*
X506665Y458536D01*
X506665Y458536D01*
X514278Y466149D01*
G75*
D01*
G03X515835Y469900I-3738J3750*
G01*
X515835Y469900D01*
X515835Y480407D01*
X523362Y487933D01*
X527067Y487933D01*
X527067Y491638D01*
X532058Y496629D01*
G75*
D01*
G03X533615Y500380I-3738J3750*
G01*
X533615Y500380D01*
X533615Y504301D01*
G75*
D01*
G03X533615Y522331I7300J9015*
G01*
X533615Y522331D01*
X533615Y529701D01*
G75*
D01*
G03X533615Y547731I7300J9015*
G01*
X533615Y547731D01*
X533615Y561687D01*
X535593Y563665D01*
X551180Y563665D01*
G74*
D01*
G03X554931Y565222I1J5295*
G01*
X554931Y565222D01*
X566238Y576529D01*
G75*
D01*
G03X567795Y580280I-3738J3750*
G01*
X567795Y580280D01*
X567795Y586711D01*
G75*
D01*
G03X557205Y586711I-5295J8538*
G01*
X557205Y586711D01*
X557205Y582473D01*
X548987Y574255D01*
X533408Y574255D01*
G75*
D01*
G03X529656Y572704I-8J-5295*
G01*
X529656Y572704D01*
X524576Y567624D01*
G75*
D01*
G03X523025Y563871I3743J-3744*
G01*
X523025Y563871D01*
X523025Y547558D01*
G75*
D01*
G03X523025Y529874I-7509J-8842*
G01*
X523025Y529874D01*
X523025Y522158D01*
G75*
D01*
G03X523025Y504474I-7509J-8842*
G01*
X523025Y504474D01*
X523025Y502573D01*
X506796Y486344D01*
G75*
D01*
G03X505245Y482594I3743J-3744*
G01*
D02*
G37*
G36*
X302762Y476172D02*
G75*
D01*
G03X302762Y476172I-2762J-1172*
G01*
D02*
G37*
G36*
X237733Y417067D02*
X237733Y417067D01*
X232933Y417067D01*
X232933Y412267D01*
G74*
D01*
G03X237733Y417067I2933J7733*
G01*
D02*
G37*
G36*
X237733Y422933D02*
G74*
D01*
G03X232933Y427733I7733J2933*
G01*
X232933Y427733D01*
X232933Y422933D01*
X237733Y422933D01*
D02*
G37*
G36*
X236172Y404504D02*
G75*
D01*
G03X236172Y404504I11144J-3220*
G01*
D02*
G37*
G36*
X477067Y377733D02*
G74*
D01*
G03X472267Y372933I2933J7733*
G01*
X472267Y372933D01*
X477067Y372933D01*
X477067Y377733D01*
D02*
G37*
G36*
X478561Y412501D02*
X478561Y412501D01*
X473271Y412501D01*
G75*
D01*
G03X464699Y403929I0J-8572*
G01*
X464699Y403929D01*
X464699Y398639D01*
G75*
D01*
G03X473271Y390067I8572J0*
G01*
X473271Y390067D01*
X478561Y390067D01*
G75*
D01*
G03X487133Y398639I0J8572*
G01*
X487133Y398639D01*
X487133Y403929D01*
G74*
D01*
G03X478561Y412501I8572J0*
G01*
D02*
G37*
G36*
X477067Y362267D02*
X477067Y362267D01*
X477067Y367067D01*
X472267Y367067D01*
G74*
D01*
G03X477067Y362267I7733J2933*
G01*
D02*
G37*
G36*
X302933Y482733D02*
X302933Y482733D01*
X302933Y477933D01*
X307733Y477933D01*
G74*
D01*
G03X302933Y482733I7733J2933*
G01*
D02*
G37*
G36*
X292267Y477933D02*
X292267Y477933D01*
X297067Y477933D01*
X297067Y482733D01*
G74*
D01*
G03X292267Y477933I2933J7733*
G01*
D02*
G37*
G36*
X637067Y602267D02*
X637067Y602267D01*
X637067Y607067D01*
X632267Y607067D01*
G74*
D01*
G03X637067Y602267I7733J2933*
G01*
D02*
G37*
G36*
X546895Y591687D02*
X546895Y591687D01*
X541063Y591687D01*
X541063Y585855D01*
G74*
D01*
G03X546895Y591687I3562J9394*
G01*
D02*
G37*
G36*
X541063Y604645D02*
X541063Y604645D01*
X541063Y598813D01*
X546895Y598813D01*
G74*
D01*
G03X541063Y604645I9394J3562*
G01*
D02*
G37*
G36*
X533937Y585855D02*
X533937Y585855D01*
X533937Y591687D01*
X528105Y591687D01*
G74*
D01*
G03X533937Y585855I9394J3562*
G01*
D02*
G37*
G36*
X528105Y598813D02*
X528105Y598813D01*
X533937Y598813D01*
X533937Y604645D01*
G74*
D01*
G03X528105Y598813I3562J9394*
G01*
D02*
G37*
G36*
X532500Y595250D02*
G75*
D01*
G03X532500Y595250I5000J0*
G01*
D02*
G37*
G36*
X554716Y538716D02*
G75*
D01*
G03X554716Y538716I11600J0*
G01*
D02*
G37*
G36*
X595190Y525000D02*
G75*
D01*
G03X595190Y525000I19810J0*
G01*
D02*
G37*
G36*
X577162Y509202D02*
X577162Y509202D01*
X570430Y509202D01*
X570430Y502470D01*
G74*
D01*
G03X577162Y509202I4114J10846*
G01*
D02*
G37*
G36*
X555470Y517430D02*
X555470Y517430D01*
X562202Y517430D01*
X562202Y524162D01*
G74*
D01*
G03X555470Y517430I4114J10846*
G01*
D02*
G37*
G36*
X570430Y524162D02*
X570430Y524162D01*
X570430Y517430D01*
X577162Y517430D01*
G74*
D01*
G03X570430Y524162I10846J4114*
G01*
D02*
G37*
G36*
X561871Y513316D02*
G75*
D01*
G03X561871Y513316I4445J0*
G01*
D02*
G37*
G36*
X562202Y502470D02*
X562202Y502470D01*
X562202Y509202D01*
X555470Y509202D01*
G74*
D01*
G03X562202Y502470I10846J4114*
G01*
D02*
G37*
G36*
X637000Y610000D02*
G75*
D01*
G03X637000Y610000I3000J0*
G01*
D02*
G37*
G36*
X485671Y538716D02*
G75*
D01*
G03X485671Y538716I4445J0*
G01*
D02*
G37*
G36*
X500962Y534602D02*
X500962Y534602D01*
X494230Y534602D01*
X494230Y527870D01*
G74*
D01*
G03X500962Y534602I4114J10846*
G01*
D02*
G37*
G36*
X494230Y549562D02*
X494230Y549562D01*
X494230Y542830D01*
X500962Y542830D01*
G74*
D01*
G03X494230Y549562I10846J4114*
G01*
D02*
G37*
G36*
X492067Y477267D02*
X492067Y477267D01*
X492067Y482067D01*
X487267Y482067D01*
G74*
D01*
G03X492067Y477267I7733J2933*
G01*
D02*
G37*
G36*
X492000Y485000D02*
G75*
D01*
G03X492000Y485000I3000J0*
G01*
D02*
G37*
G36*
X497933Y492733D02*
X497933Y492733D01*
X497933Y487933D01*
X502733Y487933D01*
G74*
D01*
G03X497933Y492733I7733J2933*
G01*
D02*
G37*
G36*
X502733Y482067D02*
X502733Y482067D01*
X497933Y482067D01*
X497933Y477267D01*
G74*
D01*
G03X502733Y482067I2933J7733*
G01*
D02*
G37*
G36*
X487267Y487933D02*
X487267Y487933D01*
X492067Y487933D01*
X492067Y492733D01*
G74*
D01*
G03X487267Y487933I2933J7733*
G01*
D02*
G37*
G36*
X527000Y485000D02*
G75*
D01*
G03X527000Y485000I3000J0*
G01*
D02*
G37*
G36*
X527067Y477267D02*
X527067Y477267D01*
X527067Y482067D01*
X522267Y482067D01*
G74*
D01*
G03X527067Y477267I7733J2933*
G01*
D02*
G37*
G36*
X537733Y482067D02*
X537733Y482067D01*
X532933Y482067D01*
X532933Y477267D01*
G74*
D01*
G03X537733Y482067I2933J7733*
G01*
D02*
G37*
G36*
X532933Y492733D02*
X532933Y492733D01*
X532933Y487933D01*
X537733Y487933D01*
G74*
D01*
G03X532933Y492733I7733J2933*
G01*
D02*
G37*
G36*
X177733Y467067D02*
X177733Y467067D01*
X172933Y467067D01*
X172933Y462267D01*
G74*
D01*
G03X177733Y467067I2933J7733*
G01*
D02*
G37*
G36*
X167067Y462267D02*
X167067Y462267D01*
X167067Y467067D01*
X162267Y467067D01*
G74*
D01*
G03X167067Y462267I7733J2933*
G01*
D02*
G37*
G36*
X167000Y470000D02*
G75*
D01*
G03X167000Y470000I3000J0*
G01*
D02*
G37*
G36*
X222267Y422933D02*
X222267Y422933D01*
X227067Y422933D01*
X227067Y427733D01*
G74*
D01*
G03X222267Y422933I2933J7733*
G01*
D02*
G37*
G36*
X210316Y401284D02*
G75*
D01*
G03X210316Y401284I11600J0*
G01*
D02*
G37*
G36*
X227067Y412267D02*
X227067Y412267D01*
X227067Y417067D01*
X222267Y417067D01*
G74*
D01*
G03X227067Y412267I7733J2933*
G01*
D02*
G37*
G36*
X227000Y420000D02*
G75*
D01*
G03X227000Y420000I3000J0*
G01*
D02*
G37*
G36*
X197933Y427733D02*
X197933Y427733D01*
X197933Y422933D01*
X202733Y422933D01*
G74*
D01*
G03X197933Y427733I7733J2933*
G01*
D02*
G37*
G36*
X192067Y412267D02*
X192067Y412267D01*
X192067Y417067D01*
X187267Y417067D01*
G74*
D01*
G03X192067Y412267I7733J2933*
G01*
D02*
G37*
G36*
X197933Y412797D02*
G75*
D01*
G03X198803Y412656I-1419J-11512*
G01*
G74*
D01*
G03X202733Y417067I3802J7344*
G01*
X202733Y417067D01*
X197933Y417067D01*
X197933Y412797D01*
D02*
G37*
G36*
X192000Y420000D02*
G75*
D01*
G03X192000Y420000I3000J0*
G01*
D02*
G37*
G36*
X187267Y422933D02*
X187267Y422933D01*
X192067Y422933D01*
X192067Y427733D01*
G74*
D01*
G03X187267Y422933I2933J7733*
G01*
D02*
G37*
G36*
X134870Y405398D02*
X134870Y405398D01*
X141603Y405398D01*
X141603Y412130D01*
G74*
D01*
G03X134870Y405398I4112J10846*
G01*
D02*
G37*
G36*
X156562Y397170D02*
X156562Y397170D01*
X149830Y397170D01*
X149830Y390438D01*
G74*
D01*
G03X156562Y397170I4114J10846*
G01*
D02*
G37*
G36*
X141603Y390438D02*
X141603Y390438D01*
X141603Y397170D01*
X134870Y397170D01*
G74*
D01*
G03X141603Y390438I10846J4114*
G01*
D02*
G37*
G36*
X141271Y401284D02*
G75*
D01*
G03X141271Y401284I4445J0*
G01*
D02*
G37*
G36*
X149830Y412130D02*
X149830Y412130D01*
X149830Y405398D01*
X156562Y405398D01*
G74*
D01*
G03X149830Y412130I10846J4114*
G01*
D02*
G37*
G36*
X159516Y401284D02*
G75*
D01*
G03X159516Y401284I11600J0*
G01*
D02*
G37*
G36*
X108716Y401284D02*
G75*
D01*
G03X108716Y401284I11600J0*
G01*
D02*
G37*
G36*
X83316Y401284D02*
G75*
D01*
G03X83316Y401284I11600J0*
G01*
D02*
G37*
G36*
X57916Y401284D02*
G75*
D01*
G03X57916Y401284I11600J0*
G01*
D02*
G37*
G36*
X142933Y377733D02*
X142933Y377733D01*
X142933Y372933D01*
X147733Y372933D01*
G74*
D01*
G03X142933Y377733I7733J2933*
G01*
D02*
G37*
G36*
X132267Y372933D02*
X132267Y372933D01*
X137067Y372933D01*
X137067Y377733D01*
G74*
D01*
G03X132267Y372933I2933J7733*
G01*
D02*
G37*
G36*
X137067Y362267D02*
X137067Y362267D01*
X137067Y367067D01*
X132267Y367067D01*
G74*
D01*
G03X137067Y362267I7733J2933*
G01*
D02*
G37*
G36*
X137000Y370000D02*
G75*
D01*
G03X137000Y370000I3000J0*
G01*
D02*
G37*
G36*
X147733Y367067D02*
X147733Y367067D01*
X142933Y367067D01*
X142933Y362267D01*
G74*
D01*
G03X147733Y367067I2933J7733*
G01*
D02*
G37*
G36*
X297067Y467267D02*
X297067Y467267D01*
X297067Y472067D01*
X292267Y472067D01*
G74*
D01*
G03X297067Y467267I7733J2933*
G01*
D02*
G37*
G36*
X307733Y472067D02*
X307733Y472067D01*
X302933Y472067D01*
X302933Y467267D01*
G74*
D01*
G03X307733Y472067I2933J7733*
G01*
D02*
G37*
G36*
X388116Y401284D02*
G75*
D01*
G03X388116Y401284I11600J0*
G01*
D02*
G37*
G36*
X438916Y401284D02*
G75*
D01*
G03X438916Y401284I11600J0*
G01*
D02*
G37*
G36*
X419318Y391237D02*
X419318Y391237D01*
X419318Y371009D01*
G75*
D01*
G03X430914Y370781I5682J-6009*
G01*
X430914Y370781D01*
X430914Y391237D01*
G75*
D01*
G03X419318Y391237I-5798J10046*
G01*
D02*
G37*
G36*
X286516Y401284D02*
G75*
D01*
G03X286516Y401284I11600J0*
G01*
D02*
G37*
G36*
X261116Y401284D02*
G75*
D01*
G03X261116Y401284I11600J0*
G01*
D02*
G37*
G36*
X367933Y377733D02*
X367933Y377733D01*
X367933Y372933D01*
X372733Y372933D01*
G74*
D01*
G03X367933Y377733I7733J2933*
G01*
D02*
G37*
G36*
X372733Y367067D02*
X372733Y367067D01*
X367933Y367067D01*
X367933Y362267D01*
G74*
D01*
G03X372733Y367067I2933J7733*
G01*
D02*
G37*
G36*
X357267Y372933D02*
X357267Y372933D01*
X362067Y372933D01*
X362067Y377733D01*
G74*
D01*
G03X357267Y372933I2933J7733*
G01*
D02*
G37*
G36*
X362067Y362267D02*
X362067Y362267D01*
X362067Y367067D01*
X357267Y367067D01*
G74*
D01*
G03X362067Y362267I7733J2933*
G01*
D02*
G37*
G36*
X362000Y370000D02*
G75*
D01*
G03X362000Y370000I3000J0*
G01*
D02*
G37*
G36*
X242267Y372933D02*
X242267Y372933D01*
X247067Y372933D01*
X247067Y377733D01*
G74*
D01*
G03X242267Y372933I2933J7733*
G01*
D02*
G37*
G36*
X252933Y377733D02*
X252933Y377733D01*
X252933Y372933D01*
X257733Y372933D01*
G74*
D01*
G03X252933Y377733I7733J2933*
G01*
D02*
G37*
G36*
X257733Y367067D02*
X257733Y367067D01*
X252933Y367067D01*
X252933Y362267D01*
G74*
D01*
G03X257733Y367067I2933J7733*
G01*
D02*
G37*
G36*
X247067Y362267D02*
X247067Y362267D01*
X247067Y367067D01*
X242267Y367067D01*
G74*
D01*
G03X247067Y362267I7733J2933*
G01*
D02*
G37*
G36*
X247000Y370000D02*
G75*
D01*
G03X247000Y370000I3000J0*
G01*
D02*
G37*
G36*
X219900Y591495D02*
X219900Y591495D01*
X213755Y591495D01*
X213755Y585350D01*
G74*
D01*
G03X219900Y591495I3755J9900*
G01*
D02*
G37*
G36*
X206245Y585350D02*
X206245Y585350D01*
X206245Y591495D01*
X200100Y591495D01*
G74*
D01*
G03X206245Y585350I9900J3755*
G01*
D02*
G37*
G36*
X200100Y599005D02*
X200100Y599005D01*
X206245Y599005D01*
X206245Y605150D01*
G74*
D01*
G03X200100Y599005I3755J9900*
G01*
D02*
G37*
G36*
X213755Y605150D02*
X213755Y605150D01*
X213755Y599005D01*
X219900Y599005D01*
G74*
D01*
G03X213755Y605150I9900J3755*
G01*
D02*
G37*
G36*
X205000Y595250D02*
G75*
D01*
G03X205000Y595250I5000J0*
G01*
D02*
G37*
G36*
X174412Y595250D02*
G75*
D01*
G03X174412Y595250I10588J0*
G01*
D02*
G37*
G36*
X149412Y595250D02*
G75*
D01*
G03X149412Y595250I10588J0*
G01*
D02*
G37*
G36*
X36895Y591687D02*
X36895Y591687D01*
X31063Y591687D01*
X31063Y585855D01*
G74*
D01*
G03X36895Y591687I3562J9394*
G01*
D02*
G37*
G36*
X18105Y598813D02*
X18105Y598813D01*
X23937Y598813D01*
X23937Y604645D01*
G74*
D01*
G03X18105Y598813I3562J9394*
G01*
D02*
G37*
G36*
X31063Y604645D02*
X31063Y604645D01*
X31063Y598813D01*
X36895Y598813D01*
G74*
D01*
G03X31063Y604645I9394J3562*
G01*
D02*
G37*
G36*
X22500Y595250D02*
G75*
D01*
G03X22500Y595250I5000J0*
G01*
D02*
G37*
G36*
X23937Y585855D02*
X23937Y585855D01*
X23937Y591687D01*
X18105Y591687D01*
G74*
D01*
G03X23937Y585855I9394J3562*
G01*
D02*
G37*
G36*
X87066Y565790D02*
G74*
D01*
G03X83780Y569076I3286J0*
G01*
X83780Y569076D01*
X83332Y569076D01*
X83332Y563592D01*
X87066Y563592D01*
X87066Y565790D01*
D02*
G37*
G36*
X78780Y569076D02*
G75*
D01*
G03X75494Y565790I0J-3286*
G01*
X75494Y565790D01*
X75494Y563592D01*
X79228Y563592D01*
X79228Y569076D01*
X78780Y569076D01*
D02*
G37*
G36*
X75226Y600793D02*
G74*
D01*
G03X71120Y602498I4106J4092*
G01*
X71120Y602498D01*
X59459Y602498D01*
G75*
D01*
G03X61559Y590902I-6957J-7248*
G01*
X61559Y590902D01*
X68718Y590902D01*
X75494Y584126D01*
X75494Y582290D01*
G75*
D01*
G03X78780Y579004I3286J0*
G01*
X78780Y579004D01*
X83780Y579004D01*
G75*
D01*
G03X87066Y582290I0J3286*
G01*
X87066Y582290D01*
X87066Y586166D01*
G75*
D01*
G03X87066Y586914I-5786J374*
G01*
X87066Y586914D01*
X87066Y590790D01*
G74*
D01*
G03X83780Y594076I3286J0*
G01*
X83780Y594076D01*
X81944Y594076D01*
X75226Y600793D01*
D02*
G37*
G36*
X83780Y554004D02*
G75*
D01*
G03X87066Y557290I0J3286*
G01*
X87066Y557290D01*
X87066Y559488D01*
X83332Y559488D01*
X83332Y554004D01*
X83780Y554004D01*
D02*
G37*
G36*
X78780Y554004D02*
X78780Y554004D01*
X79228Y554004D01*
X79228Y559488D01*
X75494Y559488D01*
X75494Y557290D01*
G75*
D01*
G03X78780Y554004I3286J0*
G01*
D02*
G37*
G36*
X225270Y542830D02*
X225270Y542830D01*
X232002Y542830D01*
X232002Y549562D01*
G74*
D01*
G03X225270Y542830I4114J10846*
G01*
D02*
G37*
G36*
X232002Y527870D02*
X232002Y527870D01*
X232002Y534602D01*
X225270Y534602D01*
G74*
D01*
G03X232002Y527870I10846J4114*
G01*
D02*
G37*
G36*
X199116Y538716D02*
G75*
D01*
G03X199116Y538716I11600J0*
G01*
D02*
G37*
G36*
X173716Y538716D02*
G75*
D01*
G03X173716Y538716I11600J0*
G01*
D02*
G37*
G36*
X148316Y538716D02*
G75*
D01*
G03X148316Y538716I11600J0*
G01*
D02*
G37*
G36*
X123670Y542830D02*
X123670Y542830D01*
X130402Y542830D01*
X130402Y549562D01*
G74*
D01*
G03X123670Y542830I4114J10846*
G01*
D02*
G37*
G36*
X138630Y549562D02*
X138630Y549562D01*
X138630Y542830D01*
X145362Y542830D01*
G74*
D01*
G03X138630Y549562I10846J4114*
G01*
D02*
G37*
G36*
X130402Y527870D02*
X130402Y527870D01*
X130402Y534602D01*
X123670Y534602D01*
G74*
D01*
G03X130402Y527870I10846J4114*
G01*
D02*
G37*
G36*
X145362Y534602D02*
X145362Y534602D01*
X138630Y534602D01*
X138630Y527870D01*
G74*
D01*
G03X145362Y534602I4114J10846*
G01*
D02*
G37*
G36*
X130071Y538716D02*
G75*
D01*
G03X130071Y538716I4445J0*
G01*
D02*
G37*
G36*
X97516Y538716D02*
G75*
D01*
G03X97516Y538716I11600J0*
G01*
D02*
G37*
G36*
X72116Y538716D02*
G75*
D01*
G03X72116Y538716I11600J0*
G01*
D02*
G37*
G36*
X199116Y513316D02*
G75*
D01*
G03X199116Y513316I11600J0*
G01*
D02*
G37*
G36*
X196162Y509202D02*
X196162Y509202D01*
X189430Y509202D01*
X189430Y502470D01*
G74*
D01*
G03X196162Y509202I4114J10846*
G01*
D02*
G37*
G36*
X174470Y517430D02*
X174470Y517430D01*
X181202Y517430D01*
X181202Y524162D01*
G74*
D01*
G03X174470Y517430I4114J10846*
G01*
D02*
G37*
G36*
X189430Y524162D02*
X189430Y524162D01*
X189430Y517430D01*
X196162Y517430D01*
G74*
D01*
G03X189430Y524162I10846J4114*
G01*
D02*
G37*
G36*
X180871Y513316D02*
G75*
D01*
G03X180871Y513316I4445J0*
G01*
D02*
G37*
G36*
X181202Y502470D02*
X181202Y502470D01*
X181202Y509202D01*
X174470Y509202D01*
G74*
D01*
G03X181202Y502470I10846J4114*
G01*
D02*
G37*
G36*
X148316Y513316D02*
G75*
D01*
G03X148316Y513316I11600J0*
G01*
D02*
G37*
G36*
X72499Y515961D02*
X72499Y515961D01*
X72499Y510671D01*
G75*
D01*
G03X81071Y502099I8572J0*
G01*
X81071Y502099D01*
X86361Y502099D01*
G75*
D01*
G03X94933Y510671I0J8572*
G01*
X94933Y510671D01*
X94933Y515961D01*
G74*
D01*
G03X86361Y524533I8572J0*
G01*
X86361Y524533D01*
X81071Y524533D01*
G75*
D01*
G03X72499Y515961I0J-8572*
G01*
D02*
G37*
G36*
X15190Y525000D02*
G75*
D01*
G03X15190Y525000I19810J0*
G01*
D02*
G37*
G36*
X222000Y480000D02*
G75*
D01*
G03X222000Y480000I3000J0*
G01*
D02*
G37*
G36*
X197000Y480000D02*
G75*
D01*
G03X197000Y480000I3000J0*
G01*
D02*
G37*
G36*
X102000Y480000D02*
G75*
D01*
G03X102000Y480000I3000J0*
G01*
D02*
G37*
G36*
X122000Y500000D02*
G75*
D01*
G03X122000Y500000I3000J0*
G01*
D02*
G37*
G36*
X7000Y610000D02*
G75*
D01*
G03X7000Y610000I3000J0*
G01*
D02*
G37*
G36*
X97516Y513316D02*
G75*
D01*
G03X97516Y513316I11600J0*
G01*
D02*
G37*
G36*
X117267Y502933D02*
X117267Y502933D01*
X122067Y502933D01*
X122067Y507733D01*
G74*
D01*
G03X117267Y502933I2933J7733*
G01*
D02*
G37*
G36*
X127933Y503765D02*
X127933Y503765D01*
X127933Y502933D01*
X129344Y502933D01*
G75*
D01*
G03X127933Y503765I5171J10382*
G01*
D02*
G37*
G36*
X17733Y607067D02*
X17733Y607067D01*
X12933Y607067D01*
X12933Y602267D01*
G74*
D01*
G03X17733Y607067I2933J7733*
G01*
D02*
G37*
G36*
X446063Y604645D02*
X446063Y604645D01*
X446063Y598813D01*
X451895Y598813D01*
G74*
D01*
G03X446063Y604645I9394J3562*
G01*
D02*
G37*
G36*
X438937Y585855D02*
X438937Y585855D01*
X438937Y591687D01*
X433105Y591687D01*
G74*
D01*
G03X438937Y585855I9394J3562*
G01*
D02*
G37*
G36*
X433105Y598813D02*
X433105Y598813D01*
X438937Y598813D01*
X438937Y604645D01*
G74*
D01*
G03X433105Y598813I3562J9394*
G01*
D02*
G37*
G36*
X437500Y595250D02*
G75*
D01*
G03X437500Y595250I5000J0*
G01*
D02*
G37*
G36*
X451895Y591687D02*
X451895Y591687D01*
X446063Y591687D01*
X446063Y585855D01*
G74*
D01*
G03X451895Y591687I3562J9394*
G01*
D02*
G37*
G36*
X376063Y594145D02*
X376063Y594145D01*
X376063Y588313D01*
X381895Y588313D01*
G74*
D01*
G03X376063Y594145I9394J3562*
G01*
D02*
G37*
G36*
X381895Y581187D02*
X381895Y581187D01*
X376063Y581187D01*
X376063Y575355D01*
G74*
D01*
G03X381895Y581187I3562J9394*
G01*
D02*
G37*
G36*
X384071Y513316D02*
G75*
D01*
G03X384071Y513316I4445J0*
G01*
D02*
G37*
G36*
X427716Y513316D02*
G75*
D01*
G03X427716Y513316I11600J0*
G01*
D02*
G37*
G36*
X377670Y517430D02*
X377670Y517430D01*
X384402Y517430D01*
X384402Y524162D01*
G74*
D01*
G03X377670Y517430I4114J10846*
G01*
D02*
G37*
G36*
X384402Y502470D02*
X384402Y502470D01*
X384402Y509202D01*
X377670Y509202D01*
G74*
D01*
G03X384402Y502470I10846J4114*
G01*
D02*
G37*
G36*
X368937Y575355D02*
X368937Y575355D01*
X368937Y581187D01*
X363105Y581187D01*
G74*
D01*
G03X368937Y575355I9394J3562*
G01*
D02*
G37*
G36*
X367500Y584750D02*
G75*
D01*
G03X367500Y584750I5000J0*
G01*
D02*
G37*
G36*
X363105Y588313D02*
X363105Y588313D01*
X368937Y588313D01*
X368937Y594145D01*
G74*
D01*
G03X363105Y588313I3562J9394*
G01*
D02*
G37*
G36*
X428470Y542830D02*
X428470Y542830D01*
X435202Y542830D01*
X435202Y549562D01*
G74*
D01*
G03X428470Y542830I4114J10846*
G01*
D02*
G37*
G36*
X450162Y534602D02*
X450162Y534602D01*
X443430Y534602D01*
X443430Y527870D01*
G74*
D01*
G03X450162Y534602I4114J10846*
G01*
D02*
G37*
G36*
X435202Y527870D02*
X435202Y527870D01*
X435202Y534602D01*
X428470Y534602D01*
G74*
D01*
G03X435202Y527870I10846J4114*
G01*
D02*
G37*
G36*
X434871Y538716D02*
G75*
D01*
G03X434871Y538716I4445J0*
G01*
D02*
G37*
G36*
X443430Y549562D02*
X443430Y549562D01*
X443430Y542830D01*
X450162Y542830D01*
G74*
D01*
G03X443430Y549562I10846J4114*
G01*
D02*
G37*
G36*
X316430Y549562D02*
X316430Y549562D01*
X316430Y542830D01*
X323162Y542830D01*
G74*
D01*
G03X316430Y549562I10846J4114*
G01*
D02*
G37*
G36*
X308202Y527870D02*
X308202Y527870D01*
X308202Y534602D01*
X301470Y534602D01*
G74*
D01*
G03X308202Y527870I10846J4114*
G01*
D02*
G37*
G36*
X323162Y534602D02*
X323162Y534602D01*
X316430Y534602D01*
X316430Y527870D01*
G74*
D01*
G03X323162Y534602I4114J10846*
G01*
D02*
G37*
G36*
X307871Y538716D02*
G75*
D01*
G03X307871Y538716I4445J0*
G01*
D02*
G37*
G36*
X301470Y542830D02*
X301470Y542830D01*
X308202Y542830D01*
X308202Y549562D01*
G74*
D01*
G03X301470Y542830I4114J10846*
G01*
D02*
G37*
G36*
X246962Y534602D02*
X246962Y534602D01*
X240230Y534602D01*
X240230Y527870D01*
G74*
D01*
G03X246962Y534602I4114J10846*
G01*
D02*
G37*
G36*
X240230Y549562D02*
X240230Y549562D01*
X240230Y542830D01*
X246962Y542830D01*
G74*
D01*
G03X240230Y549562I10846J4114*
G01*
D02*
G37*
G36*
X351516Y538716D02*
G75*
D01*
G03X351516Y538716I11600J0*
G01*
D02*
G37*
G36*
X326116Y538716D02*
G75*
D01*
G03X326116Y538716I11600J0*
G01*
D02*
G37*
G36*
X275316Y538716D02*
G75*
D01*
G03X275316Y538716I11600J0*
G01*
D02*
G37*
G36*
X249916Y538716D02*
G75*
D01*
G03X249916Y538716I11600J0*
G01*
D02*
G37*
G36*
X351516Y513316D02*
G75*
D01*
G03X351516Y513316I11600J0*
G01*
D02*
G37*
G36*
X326116Y513316D02*
G75*
D01*
G03X326116Y513316I11600J0*
G01*
D02*
G37*
G36*
X300716Y513316D02*
G75*
D01*
G03X300716Y513316I11600J0*
G01*
D02*
G37*
G36*
X275316Y513316D02*
G75*
D01*
G03X275316Y513316I11600J0*
G01*
D02*
G37*
G36*
X249916Y513316D02*
G75*
D01*
G03X249916Y513316I11600J0*
G01*
D02*
G37*
G36*
X447733Y482067D02*
X447733Y482067D01*
X442933Y482067D01*
X442933Y477267D01*
G74*
D01*
G03X447733Y482067I2933J7733*
G01*
D02*
G37*
G36*
X432267Y487933D02*
X432267Y487933D01*
X437067Y487933D01*
X437067Y492733D01*
G74*
D01*
G03X432267Y487933I2933J7733*
G01*
D02*
G37*
G36*
X437067Y477267D02*
X437067Y477267D01*
X437067Y482067D01*
X432267Y482067D01*
G74*
D01*
G03X437067Y477267I7733J2933*
G01*
D02*
G37*
G36*
X437000Y485000D02*
G75*
D01*
G03X437000Y485000I3000J0*
G01*
D02*
G37*
G36*
X442933Y492733D02*
X442933Y492733D01*
X442933Y487933D01*
X447733Y487933D01*
G74*
D01*
G03X442933Y492733I7733J2933*
G01*
D02*
G37*
G36*
X637000Y70000D02*
G75*
D01*
G03X637000Y70000I3000J0*
G01*
D02*
G37*
G36*
X637000Y10000D02*
G75*
D01*
G03X637000Y10000I3000J0*
G01*
D02*
G37*
G36*
X576767Y93133D02*
X576767Y93133D01*
X581567Y93133D01*
X581567Y97933D01*
G74*
D01*
G03X576767Y93133I2933J7733*
G01*
D02*
G37*
G36*
X587433Y97933D02*
X587433Y97933D01*
X587433Y93133D01*
X592233Y93133D01*
G74*
D01*
G03X587433Y97933I7733J2933*
G01*
D02*
G37*
G36*
X632267Y12933D02*
X632267Y12933D01*
X637067Y12933D01*
X637067Y17733D01*
G74*
D01*
G03X632267Y12933I2933J7733*
G01*
D02*
G37*
G36*
X628813Y181895D02*
X628813Y181895D01*
X628813Y176063D01*
X634645Y176063D01*
G74*
D01*
G03X628813Y181895I9394J3562*
G01*
D02*
G37*
G36*
X529662Y75000D02*
G75*
D01*
G03X529662Y75000I10588J0*
G01*
D02*
G37*
G36*
X634645Y168937D02*
X634645Y168937D01*
X628813Y168937D01*
X628813Y163105D01*
G74*
D01*
G03X634645Y168937I3562J9394*
G01*
D02*
G37*
G36*
X592233Y87267D02*
X592233Y87267D01*
X587433Y87267D01*
X587433Y82467D01*
G74*
D01*
G03X592233Y87267I2933J7733*
G01*
D02*
G37*
G36*
X581567Y82467D02*
X581567Y82467D01*
X581567Y87267D01*
X576767Y87267D01*
G74*
D01*
G03X581567Y82467I7733J2933*
G01*
D02*
G37*
G36*
X581500Y90200D02*
G75*
D01*
G03X581500Y90200I3000J0*
G01*
D02*
G37*
G36*
X632267Y72933D02*
X632267Y72933D01*
X637067Y72933D01*
X637067Y77733D01*
G74*
D01*
G03X632267Y72933I2933J7733*
G01*
D02*
G37*
G36*
X637067Y62267D02*
X637067Y62267D01*
X637067Y67067D01*
X632267Y67067D01*
G74*
D01*
G03X637067Y62267I7733J2933*
G01*
D02*
G37*
G36*
X595190Y35000D02*
G75*
D01*
G03X595190Y35000I19810J0*
G01*
D02*
G37*
G36*
X529662Y50000D02*
G75*
D01*
G03X529662Y50000I10588J0*
G01*
D02*
G37*
G36*
X544005Y34900D02*
X544005Y34900D01*
X544005Y28755D01*
X550150Y28755D01*
G74*
D01*
G03X544005Y34900I9900J3755*
G01*
D02*
G37*
G36*
X530350Y28755D02*
X530350Y28755D01*
X536495Y28755D01*
X536495Y34900D01*
G74*
D01*
G03X530350Y28755I3755J9900*
G01*
D02*
G37*
G36*
X620250Y172500D02*
G75*
D01*
G03X620250Y172500I5000J0*
G01*
D02*
G37*
G36*
X587933Y17733D02*
X587933Y17733D01*
X587933Y12933D01*
X592733Y12933D01*
G74*
D01*
G03X587933Y17733I7733J2933*
G01*
D02*
G37*
G36*
X390508Y20917D02*
X390508Y20917D01*
X384233Y20917D01*
X384233Y14642D01*
G74*
D01*
G03X390508Y20917I3833J10108*
G01*
D02*
G37*
G36*
X375400Y24750D02*
G75*
D01*
G03X375400Y24750I5000J0*
G01*
D02*
G37*
G36*
X384233Y34858D02*
X384233Y34858D01*
X384233Y28583D01*
X390508Y28583D01*
G74*
D01*
G03X384233Y34858I10108J3833*
G01*
D02*
G37*
G36*
X262000Y45000D02*
G75*
D01*
G03X262000Y45000I3000J0*
G01*
D02*
G37*
G36*
X331532Y100890D02*
X331532Y100890D01*
X331532Y99182D01*
X337318Y99182D01*
X337318Y103562D01*
X343402Y103562D01*
X343402Y99182D01*
X349188Y99182D01*
X349188Y100890D01*
G74*
D01*
G03X347383Y104140I3828J0*
G01*
G74*
D01*
G03X349042Y106342I2023J3250*
G01*
X349042Y106342D01*
X352583Y106342D01*
G75*
D01*
G03X364595Y116876I7414J3661*
G01*
G74*
D01*
G03X364093Y117446I4593J3539*
G01*
X364093Y117446D01*
X319403Y162137D01*
X319403Y168570D01*
X312969Y168570D01*
X309686Y171853D01*
G75*
D01*
G03X302985Y162155I-11569J830*
G01*
X302985Y162155D01*
X344422Y120718D01*
X335360Y120718D01*
G75*
D01*
G03X331532Y116890I0J-3828*
G01*
X331532Y116890D01*
X331532Y107390D01*
G75*
D01*
G03X333337Y104140I3828J0*
G01*
G74*
D01*
G03X331532Y100890I2023J3250*
G01*
D02*
G37*
G36*
X374712Y100890D02*
X374712Y100890D01*
X374712Y99182D01*
X380498Y99182D01*
X380498Y103562D01*
X386582Y103562D01*
X386582Y99182D01*
X392368Y99182D01*
X392368Y100890D01*
G74*
D01*
G03X390563Y104140I3828J0*
G01*
G74*
D01*
G03X392222Y106342I2023J3250*
G01*
X392222Y106342D01*
X397583Y106342D01*
G75*
D01*
G03X405569Y118250I7416J3659*
G01*
X405569Y118250D01*
X358153Y165667D01*
G75*
D01*
G03X345951Y161469I-9237J7017*
G01*
X345951Y161469D01*
X386702Y120718D01*
X378540Y120718D01*
G75*
D01*
G03X374712Y116890I0J-3828*
G01*
X374712Y116890D01*
X374712Y107390D01*
G75*
D01*
G03X376517Y104140I3828J0*
G01*
G74*
D01*
G03X374712Y100890I2023J3250*
G01*
D02*
G37*
G36*
X319071Y172684D02*
G75*
D01*
G03X319071Y172684I4445J0*
G01*
D02*
G37*
G36*
X334362Y168570D02*
X334362Y168570D01*
X327630Y168570D01*
X327630Y161838D01*
G74*
D01*
G03X334362Y168570I4114J10846*
G01*
D02*
G37*
G36*
X327630Y183530D02*
X327630Y183530D01*
X327630Y176798D01*
X334362Y176798D01*
G74*
D01*
G03X327630Y183530I10846J4114*
G01*
D02*
G37*
G36*
X312670Y176798D02*
X312670Y176798D01*
X319403Y176798D01*
X319403Y183530D01*
G74*
D01*
G03X312670Y176798I4112J10846*
G01*
D02*
G37*
G36*
X388116Y172684D02*
G75*
D01*
G03X388116Y172684I11600J0*
G01*
D02*
G37*
G36*
X362716Y172684D02*
G75*
D01*
G03X362716Y172684I11600J0*
G01*
D02*
G37*
G36*
X267933Y52733D02*
X267933Y52733D01*
X267933Y47933D01*
X272733Y47933D01*
G74*
D01*
G03X267933Y52733I7733J2933*
G01*
D02*
G37*
G36*
X370292Y28583D02*
X370292Y28583D01*
X376567Y28583D01*
X376567Y34858D01*
G74*
D01*
G03X370292Y28583I3833J10108*
G01*
D02*
G37*
G36*
X376567Y14642D02*
X376567Y14642D01*
X376567Y20917D01*
X370292Y20917D01*
G74*
D01*
G03X376567Y14642I10108J3833*
G01*
D02*
G37*
G36*
X446103Y115570D02*
G74*
D01*
G03X445230Y114688I2248J3098*
G01*
X445230Y114688D01*
X441192Y114688D01*
X441192Y109152D01*
X443150Y109152D01*
G74*
D01*
G03X446769Y111730I1J3828*
G01*
X446769Y111730D01*
X451840Y111730D01*
X451840Y119410D01*
X444522Y119410D01*
X444522Y118670D01*
G75*
D01*
G03X446103Y115570I3828J-1*
G01*
D02*
G37*
G36*
X444522Y99770D02*
X444522Y99770D01*
X444522Y99030D01*
X451840Y99030D01*
X451840Y106710D01*
X444522Y106710D01*
X444522Y105970D01*
G75*
D01*
G03X446103Y102870I3828J-1*
G01*
G74*
D01*
G03X444522Y99770I2247J3099*
G01*
D02*
G37*
G36*
X433150Y109152D02*
X433150Y109152D01*
X435108Y109152D01*
X435108Y114688D01*
X429322Y114688D01*
X429322Y112980D01*
G75*
D01*
G03X433150Y109152I3828J0*
G01*
D02*
G37*
G36*
X444522Y93270D02*
G75*
D01*
G03X448350Y89442I3828J0*
G01*
X448350Y89442D01*
X451840Y89442D01*
X451840Y94010D01*
X444522Y94010D01*
X444522Y93270D01*
D02*
G37*
G36*
X378540Y87562D02*
X378540Y87562D01*
X380498Y87562D01*
X380498Y93098D01*
X374712Y93098D01*
X374712Y91390D01*
G75*
D01*
G03X378540Y87562I3828J0*
G01*
D02*
G37*
G36*
X377267Y82933D02*
X377267Y82933D01*
X382067Y82933D01*
X382067Y87733D01*
G74*
D01*
G03X377267Y82933I2933J7733*
G01*
D02*
G37*
G36*
X392733Y77067D02*
X392733Y77067D01*
X387933Y77067D01*
X387933Y72267D01*
G74*
D01*
G03X392733Y77067I2933J7733*
G01*
D02*
G37*
G36*
X382067Y72267D02*
X382067Y72267D01*
X382067Y77067D01*
X377267Y77067D01*
G74*
D01*
G03X382067Y72267I7733J2933*
G01*
D02*
G37*
G36*
X382000Y80000D02*
G75*
D01*
G03X382000Y80000I3000J0*
G01*
D02*
G37*
G36*
X392733Y82933D02*
G74*
D01*
G03X388349Y87562I7733J2933*
G01*
X388349Y87562D01*
X388540Y87562D01*
G75*
D01*
G03X392368Y91390I0J3828*
G01*
X392368Y91390D01*
X392368Y93098D01*
X386582Y93098D01*
X386582Y87562D01*
X387933Y87562D01*
X387933Y82933D01*
X392733Y82933D01*
D02*
G37*
G36*
X335360Y87562D02*
X335360Y87562D01*
X337318Y87562D01*
X337318Y93098D01*
X331532Y93098D01*
X331532Y91390D01*
G75*
D01*
G03X335360Y87562I3828J0*
G01*
D02*
G37*
G36*
X337267Y82933D02*
X337267Y82933D01*
X342067Y82933D01*
X342067Y87733D01*
G74*
D01*
G03X337267Y82933I2933J7733*
G01*
D02*
G37*
G36*
X352733Y77067D02*
X352733Y77067D01*
X347933Y77067D01*
X347933Y72267D01*
G74*
D01*
G03X352733Y77067I2933J7733*
G01*
D02*
G37*
G36*
X342067Y72267D02*
X342067Y72267D01*
X342067Y77067D01*
X337267Y77067D01*
G74*
D01*
G03X342067Y72267I7733J2933*
G01*
D02*
G37*
G36*
X342000Y80000D02*
G75*
D01*
G03X342000Y80000I3000J0*
G01*
D02*
G37*
G36*
X347933Y87733D02*
X347933Y87733D01*
X347933Y82933D01*
X352733Y82933D01*
G74*
D01*
G03X347933Y87733I7733J2933*
G01*
D02*
G37*
G36*
X345360Y87562D02*
G75*
D01*
G03X349188Y91390I0J3828*
G01*
X349188Y91390D01*
X349188Y93098D01*
X343402Y93098D01*
X343402Y87562D01*
X345360Y87562D01*
D02*
G37*
G36*
X290910Y87562D02*
X290910Y87562D01*
X292868Y87562D01*
X292868Y93098D01*
X287082Y93098D01*
X287082Y91390D01*
G75*
D01*
G03X290910Y87562I3828J0*
G01*
D02*
G37*
G36*
X292267Y82933D02*
X292267Y82933D01*
X297067Y82933D01*
X297067Y87733D01*
G74*
D01*
G03X292267Y82933I2933J7733*
G01*
D02*
G37*
G36*
X307733Y77067D02*
X307733Y77067D01*
X302933Y77067D01*
X302933Y72267D01*
G74*
D01*
G03X307733Y77067I2933J7733*
G01*
D02*
G37*
G36*
X297067Y72267D02*
X297067Y72267D01*
X297067Y77067D01*
X292267Y77067D01*
G74*
D01*
G03X297067Y72267I7733J2933*
G01*
D02*
G37*
G36*
X297000Y80000D02*
G75*
D01*
G03X297000Y80000I3000J0*
G01*
D02*
G37*
G36*
X300910Y87562D02*
G75*
D01*
G03X304738Y91390I0J3828*
G01*
X304738Y91390D01*
X304738Y93098D01*
X298952Y93098D01*
X298952Y87562D01*
X300910Y87562D01*
D02*
G37*
G36*
X302933Y87733D02*
X302933Y87733D01*
X302933Y82933D01*
X307733Y82933D01*
G74*
D01*
G03X302933Y87733I7733J2933*
G01*
D02*
G37*
G36*
X344190Y24750D02*
G75*
D01*
G03X344190Y24750I10810J0*
G01*
D02*
G37*
G36*
X318790Y24750D02*
G75*
D01*
G03X318790Y24750I10810J0*
G01*
D02*
G37*
G36*
X293390Y24750D02*
G75*
D01*
G03X293390Y24750I10810J0*
G01*
D02*
G37*
G36*
X544231Y304387D02*
X544231Y304387D01*
X544231Y313831D01*
X534787Y313831D01*
G74*
D01*
G03X544231Y304387I15213J5769*
G01*
D02*
G37*
G36*
X565213Y313831D02*
X565213Y313831D01*
X555770Y313831D01*
X555770Y304387D01*
G74*
D01*
G03X565213Y313831I5770J15212*
G01*
D02*
G37*
G36*
X543000Y319600D02*
G75*
D01*
G03X543000Y319600I7000J0*
G01*
D02*
G37*
G36*
X534787Y325370D02*
X534787Y325370D01*
X544231Y325370D01*
X544231Y334813D01*
G74*
D01*
G03X534787Y325370I5768J15213*
G01*
D02*
G37*
G36*
X555770Y334813D02*
X555770Y334813D01*
X555770Y325370D01*
X565213Y325370D01*
G74*
D01*
G03X555770Y334813I15213J5770*
G01*
D02*
G37*
G36*
X544231Y355187D02*
X544231Y355187D01*
X544231Y364631D01*
X534787Y364631D01*
G74*
D01*
G03X544231Y355187I15213J5769*
G01*
D02*
G37*
G36*
X565213Y364631D02*
X565213Y364631D01*
X555770Y364631D01*
X555770Y355187D01*
G74*
D01*
G03X565213Y364631I5770J15212*
G01*
D02*
G37*
G36*
X477000Y370000D02*
G75*
D01*
G03X477000Y370000I3000J0*
G01*
D02*
G37*
G36*
X482933Y377733D02*
X482933Y377733D01*
X482933Y372933D01*
X487733Y372933D01*
G74*
D01*
G03X482933Y377733I7733J2933*
G01*
D02*
G37*
G36*
X487733Y367067D02*
X487733Y367067D01*
X482933Y367067D01*
X482933Y362267D01*
G74*
D01*
G03X487733Y367067I2933J7733*
G01*
D02*
G37*
G36*
X534787Y376170D02*
X534787Y376170D01*
X544231Y376170D01*
X544231Y385613D01*
G74*
D01*
G03X534787Y376170I5768J15213*
G01*
D02*
G37*
G36*
X555770Y385613D02*
X555770Y385613D01*
X555770Y376170D01*
X565213Y376170D01*
G74*
D01*
G03X555770Y385613I15213J5770*
G01*
D02*
G37*
G36*
X543000Y370400D02*
G75*
D01*
G03X543000Y370400I7000J0*
G01*
D02*
G37*
G36*
X533730Y421200D02*
G75*
D01*
G03X533730Y421200I16270J0*
G01*
D02*
G37*
%LPD*%
G36*
X234420Y11568D02*
X234420Y11568D01*
X246442Y11568D01*
X246442Y11380D01*
G75*
D01*
G03X246475Y10878I3828J0*
G01*
X246475Y10878D01*
X121782Y10878D01*
X111208Y21452D01*
X111208Y52070D01*
G74*
D01*
G03X109503Y56176I5798J1*
G01*
X109503Y56176D01*
X100714Y64966D01*
X100714Y162637D01*
G75*
D01*
G03X89118Y162637I-5798J10046*
G01*
X89118Y162637D01*
X89118Y62567D01*
G75*
D01*
G03X90816Y58464I5798J-3*
G01*
X90816Y58464D01*
X99612Y49668D01*
X99612Y19060D01*
G75*
D01*
G03X101310Y14950I5798J-10*
G01*
X101310Y14950D01*
X112432Y3828D01*
X3828Y3828D01*
X3828Y327079D01*
G75*
D01*
G03X5080Y326942I1253J5660*
G01*
X5080Y326942D01*
X35560Y326942D01*
G74*
D01*
G03X36542Y327026I1J5798*
G01*
X36542Y327026D01*
X472917Y327026D01*
X476172Y323771D01*
X482933Y317010D01*
X482933Y312933D01*
X487010Y312933D01*
X533979Y265963D01*
G74*
D01*
G03X539618Y256273I16021J2837*
G01*
X539618Y256273D01*
X539618Y217771D01*
G75*
D01*
G03X539618Y214029I13201J-1871*
G01*
X539618Y214029D01*
X539618Y201861D01*
G74*
D01*
G03X537933Y202733I4618J6860*
G01*
X537933Y202733D01*
X537933Y197933D01*
X539618Y197933D01*
X539618Y192067D01*
X537933Y192067D01*
X537933Y187267D01*
G74*
D01*
G03X539618Y188139I2933J7732*
G01*
X539618Y188139D01*
X539618Y172498D01*
X501982Y172498D01*
G75*
D01*
G03X497880Y170800I-2J-5798*
G01*
X497880Y170800D01*
X487878Y160798D01*
X455897Y160798D01*
G74*
D01*
G03X454644Y161843I5897J5797*
G01*
G75*
D01*
G03X442892Y181427I-4129J10840*
G01*
G74*
D01*
G03X442678Y181816I4742J2355*
G01*
X442678Y181816D01*
X442678Y187960D01*
G74*
D01*
G03X440973Y192066I5798J1*
G01*
X440973Y192066D01*
X433069Y199970D01*
X467360Y199970D01*
G74*
D01*
G03X473244Y202412I0J8310*
G01*
X473244Y202412D01*
X476172Y205339D01*
X507004Y236172D01*
X521488Y250656D01*
G75*
D01*
G03X523930Y256540I-5867J5884*
G01*
X523930Y256540D01*
X523930Y271780D01*
G75*
D01*
G03X515510Y280089I-8310J0*
G01*
X515510Y280089D01*
X507026Y288573D01*
G74*
D01*
G03X507013Y288586I4106J4093*
G01*
X507013Y288586D01*
X506500Y289100D01*
G75*
D01*
G03X500000Y290278I-4100J-4100*
G01*
X500000Y290278D01*
X393700Y290278D01*
G75*
D01*
G03X391564Y289870I1J-5798*
G01*
G74*
D01*
G03X389600Y288580I2134J5390*
G01*
X389600Y288580D01*
X383088Y282067D01*
X382933Y282067D01*
X382933Y281912D01*
X381404Y280383D01*
X377067Y280383D01*
X377067Y282067D01*
X372267Y282067D01*
G74*
D01*
G03X373139Y280383I7731J2936*
G01*
X373139Y280383D01*
X302816Y280383D01*
X298270Y284930D01*
G75*
D01*
G03X290070Y276730I-8270J70*
G01*
X290070Y276730D01*
X292972Y273828D01*
X203200Y273828D01*
G75*
D01*
G03X199372Y270000I0J-3828*
G01*
X199372Y270000D01*
X199372Y250000D01*
G75*
D01*
G03X202933Y246181I3828J0*
G01*
X202933Y246181D01*
X202933Y242933D01*
X207733Y242933D01*
G74*
D01*
G03X205505Y246172I7732J2933*
G01*
X205505Y246172D01*
X269495Y246172D01*
G74*
D01*
G03X267267Y242933I5504J6172*
G01*
X267267Y242933D01*
X272067Y242933D01*
X272067Y246172D01*
X277933Y246172D01*
X277933Y242933D01*
X282733Y242933D01*
G74*
D01*
G03X280505Y246172I7732J2933*
G01*
X280505Y246172D01*
X359495Y246172D01*
G74*
D01*
G03X357267Y242933I5504J6172*
G01*
X357267Y242933D01*
X362067Y242933D01*
X362067Y246172D01*
X367933Y246172D01*
X367933Y242933D01*
X372733Y242933D01*
G74*
D01*
G03X370505Y246172I7732J2933*
G01*
X370505Y246172D01*
X467360Y246172D01*
G75*
D01*
G03X471188Y250000I0J3828*
G01*
X471188Y250000D01*
X471188Y270000D01*
G74*
D01*
G03X467360Y273828I3828J0*
G01*
X467360Y273828D01*
X391248Y273828D01*
X396102Y278682D01*
X500518Y278682D01*
X507022Y272178D01*
G75*
D01*
G03X507310Y266958I7977J-2178*
G01*
X507310Y266958D01*
X507310Y259982D01*
X483499Y236172D01*
X483499Y236172D01*
X476172Y228844D01*
X463918Y216590D01*
X267534Y216590D01*
G75*
D01*
G03X252466Y216590I-7534J3408*
G01*
X252466Y216590D01*
X71130Y216590D01*
G75*
D01*
G03X65244Y214156I-10J-8310*
G01*
X65244Y214156D01*
X51274Y200186D01*
G75*
D01*
G03X48840Y194298I5875J-5876*
G01*
X48840Y194298D01*
X48840Y189230D01*
G75*
D01*
G03X51855Y182826I8310J1*
G01*
X51855Y182826D01*
X51855Y181326D01*
G75*
D01*
G03X51855Y164042I-7738J-8642*
G01*
X51855Y164042D01*
X51855Y152648D01*
G75*
D01*
G03X62946Y147292I3146J-7647*
G01*
G74*
D01*
G03X62445Y149511I5795J142*
G01*
X62445Y149511D01*
X62445Y163488D01*
G75*
D01*
G03X62445Y181880I7071J9196*
G01*
X62445Y181880D01*
X62445Y182826D01*
G75*
D01*
G03X65460Y189230I-5294J6404*
G01*
X65460Y189230D01*
X65460Y190868D01*
X74562Y199970D01*
X130810Y199970D01*
X116216Y185376D01*
G74*
D01*
G03X114737Y182855I4100J4100*
G01*
G75*
D01*
G03X128320Y181080I5578J-10171*
G01*
X128320Y181080D01*
X139562Y192322D01*
X256156Y192322D01*
G75*
D01*
G03X251898Y183341I3843J-7322*
G01*
G75*
D01*
G03X241902Y162425I-4584J-10656*
G01*
X241902Y162425D01*
X241902Y139622D01*
X234400Y132120D01*
G75*
D01*
G03X232702Y128010I4100J-4100*
G01*
X232702Y128010D01*
X232702Y39852D01*
X228152Y35301D01*
G75*
D01*
G03X229504Y14594I-2348J-10551*
G01*
X229504Y14594D01*
X231194Y12904D01*
G74*
D01*
G03X234278Y11570I3226J3226*
G01*
G75*
D01*
G03X234420Y11568I135J4560*
G01*
D02*
G37*
%LPC*%
G36*
X472267Y262933D02*
X472267Y262933D01*
X477067Y262933D01*
X477067Y267733D01*
G74*
D01*
G03X472267Y262933I2933J7733*
G01*
D02*
G37*
G36*
X472267Y257067D02*
G74*
D01*
G03X477067Y252267I7733J2933*
G01*
X477067Y252267D01*
X477067Y257067D01*
X472267Y257067D01*
D02*
G37*
G36*
X476172Y167716D02*
G75*
D01*
G03X476172Y167716I-256J4968*
G01*
D02*
G37*
G36*
X282733Y237067D02*
X282733Y237067D01*
X277933Y237067D01*
X277933Y232267D01*
G74*
D01*
G03X282733Y237067I2933J7733*
G01*
D02*
G37*
G36*
X357267Y237067D02*
G74*
D01*
G03X362067Y232267I7733J2933*
G01*
X362067Y232267D01*
X362067Y237067D01*
X357267Y237067D01*
D02*
G37*
G36*
X372733Y237067D02*
X372733Y237067D01*
X367933Y237067D01*
X367933Y232267D01*
G74*
D01*
G03X372733Y237067I2933J7733*
G01*
D02*
G37*
G36*
X267267Y237067D02*
G74*
D01*
G03X272067Y232267I7733J2933*
G01*
X272067Y232267D01*
X272067Y237067D01*
X267267Y237067D01*
D02*
G37*
G36*
X472267Y312933D02*
X472267Y312933D01*
X477067Y312933D01*
X477067Y317733D01*
G74*
D01*
G03X472267Y312933I2933J7733*
G01*
D02*
G37*
G36*
X472267Y307067D02*
G74*
D01*
G03X477067Y302267I7733J2933*
G01*
X477067Y302267D01*
X477067Y307067D01*
X472267Y307067D01*
D02*
G37*
G36*
X203200Y323828D02*
G75*
D01*
G03X199372Y320000I0J-3828*
G01*
X199372Y320000D01*
X199372Y300000D01*
G75*
D01*
G03X203200Y296172I3828J0*
G01*
X203200Y296172D01*
X467360Y296172D01*
G75*
D01*
G03X471188Y300000I0J3828*
G01*
X471188Y300000D01*
X471188Y320000D01*
G74*
D01*
G03X467360Y323828I3828J0*
G01*
X467360Y323828D01*
X203200Y323828D01*
D02*
G37*
G36*
X182880Y232392D02*
G75*
D01*
G03X186708Y236220I0J3828*
G01*
X186708Y236220D01*
X186708Y320040D01*
G74*
D01*
G03X182880Y323868I3828J0*
G01*
X182880Y323868D01*
X149860Y323868D01*
G75*
D01*
G03X146075Y320612I0J-3828*
G01*
G74*
D01*
G03X142933Y322733I6075J5611*
G01*
X142933Y322733D01*
X142933Y317933D01*
X146032Y317933D01*
X146032Y312067D01*
X142933Y312067D01*
X142933Y307267D01*
G74*
D01*
G03X146032Y309342I2933J7732*
G01*
X146032Y309342D01*
X146032Y290658D01*
G74*
D01*
G03X142933Y292733I6032J5657*
G01*
X142933Y292733D01*
X142933Y287933D01*
X146032Y287933D01*
X146032Y282067D01*
X142933Y282067D01*
X142933Y277267D01*
G74*
D01*
G03X146032Y279342I2933J7732*
G01*
X146032Y279342D01*
X146032Y250658D01*
G74*
D01*
G03X142933Y252733I6032J5657*
G01*
X142933Y252733D01*
X142933Y247933D01*
X146032Y247933D01*
X146032Y242067D01*
X142933Y242067D01*
X142933Y237267D01*
G74*
D01*
G03X146032Y239342I2933J7732*
G01*
X146032Y239342D01*
X146032Y236220D01*
G75*
D01*
G03X149860Y232392I3828J0*
G01*
X149860Y232392D01*
X182880Y232392D01*
D02*
G37*
G36*
X197067Y232267D02*
X197067Y232267D01*
X197067Y237067D01*
X192267Y237067D01*
G74*
D01*
G03X197067Y232267I7733J2933*
G01*
D02*
G37*
G36*
X202933Y232267D02*
G74*
D01*
G03X207733Y237067I2933J7733*
G01*
X207733Y237067D01*
X202933Y237067D01*
X202933Y232267D01*
D02*
G37*
G36*
X477000Y260000D02*
G75*
D01*
G03X477000Y260000I3000J0*
G01*
D02*
G37*
G36*
X487733Y257067D02*
X487733Y257067D01*
X482933Y257067D01*
X482933Y252267D01*
G74*
D01*
G03X487733Y257067I2933J7733*
G01*
D02*
G37*
G36*
X482933Y267733D02*
X482933Y267733D01*
X482933Y262933D01*
X487733Y262933D01*
G74*
D01*
G03X482933Y267733I7733J2933*
G01*
D02*
G37*
G36*
X471938Y183797D02*
G74*
D01*
G03X464803Y176662I1333J8468*
G01*
X464803Y176662D01*
X471938Y176662D01*
X471938Y183797D01*
D02*
G37*
G36*
X464803Y168706D02*
G74*
D01*
G03X471938Y161571I8468J1333*
G01*
X471938Y161571D01*
X471938Y168706D01*
X464803Y168706D01*
D02*
G37*
G36*
X479894Y161571D02*
G74*
D01*
G03X487029Y168706I1333J8468*
G01*
X487029Y168706D01*
X479894Y168706D01*
X479894Y161571D01*
D02*
G37*
G36*
X487029Y176662D02*
G74*
D01*
G03X479894Y183797I8468J1333*
G01*
X479894Y183797D01*
X479894Y176662D01*
X487029Y176662D01*
D02*
G37*
G36*
X527267Y197933D02*
X527267Y197933D01*
X532067Y197933D01*
X532067Y202733D01*
G74*
D01*
G03X527267Y197933I2933J7733*
G01*
D02*
G37*
G36*
X532067Y187267D02*
X532067Y187267D01*
X532067Y192067D01*
X527267Y192067D01*
G74*
D01*
G03X532067Y187267I7733J2933*
G01*
D02*
G37*
G36*
X532000Y195000D02*
G75*
D01*
G03X532000Y195000I3000J0*
G01*
D02*
G37*
G36*
X477000Y310000D02*
G75*
D01*
G03X477000Y310000I3000J0*
G01*
D02*
G37*
G36*
X487733Y307067D02*
X487733Y307067D01*
X482933Y307067D01*
X482933Y302267D01*
G74*
D01*
G03X487733Y307067I2933J7733*
G01*
D02*
G37*
G36*
X362000Y240000D02*
G75*
D01*
G03X362000Y240000I3000J0*
G01*
D02*
G37*
G36*
X272000Y240000D02*
G75*
D01*
G03X272000Y240000I3000J0*
G01*
D02*
G37*
G36*
X372267Y287933D02*
X372267Y287933D01*
X377067Y287933D01*
X377067Y292733D01*
G74*
D01*
G03X372267Y287933I2933J7733*
G01*
D02*
G37*
G36*
X377000Y285000D02*
G75*
D01*
G03X377000Y285000I3000J0*
G01*
D02*
G37*
G36*
X382933Y292733D02*
X382933Y292733D01*
X382933Y287933D01*
X387733Y287933D01*
G74*
D01*
G03X382933Y292733I7733J2933*
G01*
D02*
G37*
G36*
X137000Y285000D02*
G75*
D01*
G03X137000Y285000I3000J0*
G01*
D02*
G37*
G36*
X137000Y245000D02*
G75*
D01*
G03X137000Y245000I3000J0*
G01*
D02*
G37*
G36*
X137000Y315000D02*
G75*
D01*
G03X137000Y315000I3000J0*
G01*
D02*
G37*
G36*
X132267Y287933D02*
X132267Y287933D01*
X137067Y287933D01*
X137067Y292733D01*
G74*
D01*
G03X132267Y287933I2933J7733*
G01*
D02*
G37*
G36*
X137067Y277267D02*
X137067Y277267D01*
X137067Y282067D01*
X132267Y282067D01*
G74*
D01*
G03X137067Y277267I7733J2933*
G01*
D02*
G37*
G36*
X132267Y247933D02*
X132267Y247933D01*
X137067Y247933D01*
X137067Y252733D01*
G74*
D01*
G03X132267Y247933I2933J7733*
G01*
D02*
G37*
G36*
X137067Y237267D02*
X137067Y237267D01*
X137067Y242067D01*
X132267Y242067D01*
G74*
D01*
G03X137067Y237267I7733J2933*
G01*
D02*
G37*
G36*
X137067Y307267D02*
X137067Y307267D01*
X137067Y312067D01*
X132267Y312067D01*
G74*
D01*
G03X137067Y307267I7733J2933*
G01*
D02*
G37*
G36*
X132267Y317933D02*
X132267Y317933D01*
X137067Y317933D01*
X137067Y322733D01*
G74*
D01*
G03X132267Y317933I2933J7733*
G01*
D02*
G37*
G36*
X22933Y322733D02*
X22933Y322733D01*
X22933Y317933D01*
X27733Y317933D01*
G74*
D01*
G03X22933Y322733I7733J2933*
G01*
D02*
G37*
G36*
X17067Y307267D02*
X17067Y307267D01*
X17067Y312067D01*
X12267Y312067D01*
G74*
D01*
G03X17067Y307267I7733J2933*
G01*
D02*
G37*
G36*
X12267Y317933D02*
X12267Y317933D01*
X17067Y317933D01*
X17067Y322733D01*
G74*
D01*
G03X12267Y317933I2933J7733*
G01*
D02*
G37*
G36*
X17000Y315000D02*
G75*
D01*
G03X17000Y315000I3000J0*
G01*
D02*
G37*
G36*
X27733Y312067D02*
X27733Y312067D01*
X22933Y312067D01*
X22933Y307267D01*
G74*
D01*
G03X27733Y312067I2933J7733*
G01*
D02*
G37*
G36*
X192267Y242933D02*
X192267Y242933D01*
X197067Y242933D01*
X197067Y247733D01*
G74*
D01*
G03X192267Y242933I2933J7733*
G01*
D02*
G37*
G36*
X197000Y240000D02*
G75*
D01*
G03X197000Y240000I3000J0*
G01*
D02*
G37*
G36*
X113390Y24750D02*
G75*
D01*
G03X113390Y24750I10810J0*
G01*
D02*
G37*
G36*
X7116Y172684D02*
G75*
D01*
G03X7116Y172684I11600J0*
G01*
D02*
G37*
G36*
X193120Y86292D02*
X193120Y86292D01*
X195078Y86292D01*
X195078Y91828D01*
X189292Y91828D01*
X189292Y90120D01*
G75*
D01*
G03X193120Y86292I3828J0*
G01*
D02*
G37*
G36*
X208359Y105072D02*
G75*
D01*
G03X220798Y115897I6634J4936*
G01*
X220798Y115897D01*
X220798Y156718D01*
X225851Y161772D01*
G75*
D01*
G03X212974Y165294I-3936J10911*
G01*
X212974Y165294D01*
X210900Y163220D01*
G75*
D01*
G03X209202Y159107I4100J-4100*
G01*
X209202Y159107D01*
X209202Y116668D01*
X206802Y116668D01*
G74*
D01*
G03X203120Y119448I3682J1048*
G01*
X203120Y119448D01*
X193120Y119448D01*
G75*
D01*
G03X189292Y115620I0J-3828*
G01*
X189292Y115620D01*
X189292Y106120D01*
G75*
D01*
G03X191097Y102870I3828J0*
G01*
G74*
D01*
G03X189292Y99620I2023J3250*
G01*
X189292Y99620D01*
X189292Y97912D01*
X195078Y97912D01*
X195078Y102292D01*
X201162Y102292D01*
X201162Y97912D01*
X206948Y97912D01*
X206948Y99620D01*
G74*
D01*
G03X205143Y102870I3828J0*
G01*
G74*
D01*
G03X206802Y105072I2023J3250*
G01*
X206802Y105072D01*
X208359Y105072D01*
D02*
G37*
G36*
X152480Y83752D02*
X152480Y83752D01*
X154438Y83752D01*
X154438Y89288D01*
X148652Y89288D01*
X148652Y87580D01*
G75*
D01*
G03X152480Y83752I3828J0*
G01*
D02*
G37*
G36*
X114380Y85022D02*
X114380Y85022D01*
X116338Y85022D01*
X116338Y90558D01*
X110552Y90558D01*
X110552Y88850D01*
G75*
D01*
G03X114380Y85022I3828J0*
G01*
D02*
G37*
G36*
X30202Y127500D02*
G75*
D01*
G03X30202Y127500I10048J0*
G01*
D02*
G37*
G36*
X129525Y103802D02*
G75*
D01*
G03X140798Y115897I5502J6173*
G01*
X140798Y115897D01*
X140798Y124978D01*
X175209Y159390D01*
G74*
D01*
G03X176844Y162596I4092J4107*
G01*
G75*
D01*
G03X163423Y164002I-5727J10087*
G01*
X163423Y164002D01*
X130900Y131480D01*
G75*
D01*
G03X129202Y127369I4100J-4100*
G01*
X129202Y127369D01*
X129202Y115897D01*
G74*
D01*
G03X128735Y115398I5799J5895*
G01*
X128735Y115398D01*
X128062Y115398D01*
G74*
D01*
G03X124380Y118178I3682J1048*
G01*
X124380Y118178D01*
X114380Y118178D01*
G75*
D01*
G03X110552Y114350I0J-3828*
G01*
X110552Y114350D01*
X110552Y104850D01*
G75*
D01*
G03X112357Y101600I3828J0*
G01*
G74*
D01*
G03X110552Y98350I2023J3250*
G01*
X110552Y98350D01*
X110552Y96642D01*
X116338Y96642D01*
X116338Y101022D01*
X122422Y101022D01*
X122422Y96642D01*
X128208Y96642D01*
X128208Y98350D01*
G74*
D01*
G03X126403Y101600I3828J0*
G01*
G74*
D01*
G03X128062Y103802I2023J3250*
G01*
X128062Y103802D01*
X129525Y103802D01*
D02*
G37*
G36*
X134116Y172684D02*
G75*
D01*
G03X134116Y172684I11600J0*
G01*
D02*
G37*
G36*
X148652Y97080D02*
X148652Y97080D01*
X148652Y95372D01*
X154438Y95372D01*
X154438Y99752D01*
X160522Y99752D01*
X160522Y95372D01*
X166308Y95372D01*
X166308Y97080D01*
G74*
D01*
G03X164503Y100330I3828J0*
G01*
G74*
D01*
G03X166162Y102532I2023J3250*
G01*
X166162Y102532D01*
X171447Y102532D01*
G75*
D01*
G03X180798Y115897I3553J7468*
G01*
X180798Y115897D01*
X180798Y126878D01*
X200609Y146690D01*
G74*
D01*
G03X202314Y150796I4092J4106*
G01*
X202314Y150796D01*
X202314Y162637D01*
G75*
D01*
G03X190718Y162637I-5798J10046*
G01*
X190718Y162637D01*
X190718Y153198D01*
X170900Y133380D01*
G75*
D01*
G03X169202Y129269I4100J-4100*
G01*
X169202Y129269D01*
X169202Y115897D01*
G74*
D01*
G03X167834Y114128I5797J5897*
G01*
X167834Y114128D01*
X166162Y114128D01*
G74*
D01*
G03X162480Y116908I3682J1048*
G01*
X162480Y116908D01*
X152480Y116908D01*
G75*
D01*
G03X148652Y113080I0J-3828*
G01*
X148652Y113080D01*
X148652Y103580D01*
G75*
D01*
G03X150457Y100330I3828J0*
G01*
G74*
D01*
G03X148652Y97080I2023J3250*
G01*
D02*
G37*
G36*
X43813Y111895D02*
X43813Y111895D01*
X43813Y106063D01*
X49645Y106063D01*
G74*
D01*
G03X43813Y111895I9394J3562*
G01*
D02*
G37*
G36*
X30855Y106063D02*
X30855Y106063D01*
X36687Y106063D01*
X36687Y111895D01*
G74*
D01*
G03X30855Y106063I3562J9394*
G01*
D02*
G37*
G36*
X49645Y98937D02*
X49645Y98937D01*
X43813Y98937D01*
X43813Y93105D01*
G74*
D01*
G03X49645Y98937I3562J9394*
G01*
D02*
G37*
G36*
X36687Y93105D02*
X36687Y93105D01*
X36687Y98937D01*
X30855Y98937D01*
G74*
D01*
G03X36687Y93105I9394J3562*
G01*
D02*
G37*
G36*
X35250Y102500D02*
G75*
D01*
G03X35250Y102500I5000J0*
G01*
D02*
G37*
G36*
X203120Y86292D02*
G75*
D01*
G03X206948Y90120I0J3828*
G01*
X206948Y90120D01*
X206948Y91828D01*
X201162Y91828D01*
X201162Y86292D01*
X203120Y86292D01*
D02*
G37*
G36*
X202267Y82933D02*
X202267Y82933D01*
X207067Y82933D01*
X207067Y87733D01*
G74*
D01*
G03X202267Y82933I2933J7733*
G01*
D02*
G37*
G36*
X212933Y87733D02*
X212933Y87733D01*
X212933Y82933D01*
X217733Y82933D01*
G74*
D01*
G03X212933Y87733I7733J2933*
G01*
D02*
G37*
G36*
X217733Y77067D02*
X217733Y77067D01*
X212933Y77067D01*
X212933Y72267D01*
G74*
D01*
G03X217733Y77067I2933J7733*
G01*
D02*
G37*
G36*
X207067Y72267D02*
X207067Y72267D01*
X207067Y77067D01*
X202267Y77067D01*
G74*
D01*
G03X207067Y72267I7733J2933*
G01*
D02*
G37*
G36*
X207000Y80000D02*
G75*
D01*
G03X207000Y80000I3000J0*
G01*
D02*
G37*
G36*
X166304Y87398D02*
G75*
D01*
G03X166308Y87580I-3824J175*
G01*
X166308Y87580D01*
X166308Y89288D01*
X160522Y89288D01*
X160522Y83752D01*
X162480Y83752D01*
G74*
D01*
G03X162631Y83755I1J3828*
G01*
G74*
D01*
G03X162267Y82933I7369J3755*
G01*
X162267Y82933D01*
X167067Y82933D01*
X167067Y87733D01*
G74*
D01*
G03X166304Y87398I2939J7730*
G01*
D02*
G37*
G36*
X172933Y87733D02*
X172933Y87733D01*
X172933Y82933D01*
X177733Y82933D01*
G74*
D01*
G03X172933Y87733I7733J2933*
G01*
D02*
G37*
G36*
X177733Y77067D02*
X177733Y77067D01*
X172933Y77067D01*
X172933Y72267D01*
G74*
D01*
G03X177733Y77067I2933J7733*
G01*
D02*
G37*
G36*
X167067Y72267D02*
X167067Y72267D01*
X167067Y77067D01*
X162267Y77067D01*
G74*
D01*
G03X167067Y72267I7733J2933*
G01*
D02*
G37*
G36*
X167000Y80000D02*
G75*
D01*
G03X167000Y80000I3000J0*
G01*
D02*
G37*
G36*
X123429Y85022D02*
G74*
D01*
G03X122267Y82933I6570J5022*
G01*
X122267Y82933D01*
X127067Y82933D01*
X127067Y86123D01*
G75*
D01*
G03X128208Y88850I-2687J2726*
G01*
X128208Y88850D01*
X128208Y90558D01*
X122422Y90558D01*
X122422Y85022D01*
X123429Y85022D01*
D02*
G37*
G36*
X132933Y87733D02*
X132933Y87733D01*
X132933Y82933D01*
X137733Y82933D01*
G74*
D01*
G03X132933Y87733I7733J2933*
G01*
D02*
G37*
G36*
X137733Y77067D02*
X137733Y77067D01*
X132933Y77067D01*
X132933Y72267D01*
G74*
D01*
G03X137733Y77067I2933J7733*
G01*
D02*
G37*
G36*
X127067Y72267D02*
X127067Y72267D01*
X127067Y77067D01*
X122267Y77067D01*
G74*
D01*
G03X127067Y72267I7733J2933*
G01*
D02*
G37*
G36*
X127000Y80000D02*
G75*
D01*
G03X127000Y80000I3000J0*
G01*
D02*
G37*
G36*
X204233Y34858D02*
X204233Y34858D01*
X204233Y28583D01*
X210508Y28583D01*
G74*
D01*
G03X204233Y34858I10108J3833*
G01*
D02*
G37*
G36*
X190292Y28583D02*
X190292Y28583D01*
X196567Y28583D01*
X196567Y34858D01*
G74*
D01*
G03X190292Y28583I3833J10108*
G01*
D02*
G37*
G36*
X210508Y20917D02*
X210508Y20917D01*
X204233Y20917D01*
X204233Y14642D01*
G74*
D01*
G03X210508Y20917I3833J10108*
G01*
D02*
G37*
G36*
X196567Y14642D02*
X196567Y14642D01*
X196567Y20917D01*
X190292Y20917D01*
G74*
D01*
G03X196567Y14642I10108J3833*
G01*
D02*
G37*
G36*
X195400Y24750D02*
G75*
D01*
G03X195400Y24750I5000J0*
G01*
D02*
G37*
G36*
X164190Y24750D02*
G75*
D01*
G03X164190Y24750I10810J0*
G01*
D02*
G37*
G36*
X138790Y24750D02*
G75*
D01*
G03X138790Y24750I10810J0*
G01*
D02*
G37*
G36*
X15190Y35000D02*
G75*
D01*
G03X15190Y35000I19810J0*
G01*
D02*
G37*
%LPD*%
G36*
X579120Y17462D02*
G75*
D01*
G03X576883Y5064I5880J-7462*
G01*
X576883Y5064D01*
X457200Y5064D01*
X457200Y33020D01*
X466570Y33020D01*
G74*
D01*
G03X464200Y29191I8679J8020*
G01*
X464200Y29191D01*
X471059Y29191D01*
X471059Y33020D01*
X479441Y33020D01*
X479441Y29191D01*
X486300Y29191D01*
G74*
D01*
G03X483930Y33020I11050J4191*
G01*
X483930Y33020D01*
X505460Y33020D01*
X505460Y20320D01*
X529398Y20320D01*
G75*
D01*
G03X551102Y20320I10852J4680*
G01*
X551102Y20320D01*
X563880Y20320D01*
X563880Y45720D01*
X579120Y45720D01*
X579120Y17462D01*
D02*
G37*
%LPC*%
G36*
X486300Y20809D02*
X486300Y20809D01*
X479441Y20809D01*
X479441Y13950D01*
G74*
D01*
G03X486300Y20809I4191J11050*
G01*
D02*
G37*
G36*
X471059Y13950D02*
X471059Y13950D01*
X471059Y20809D01*
X464200Y20809D01*
G74*
D01*
G03X471059Y13950I11050J4191*
G01*
D02*
G37*
G36*
X470250Y25000D02*
G75*
D01*
G03X470250Y25000I5000J0*
G01*
D02*
G37*
%LPD*%
G36*
X6117Y448369D02*
X6117Y448369D01*
X11631Y448369D01*
X11631Y452120D01*
X18369Y452120D01*
X18369Y448369D01*
X26631Y448369D01*
X26631Y452120D01*
X33369Y452120D01*
X33369Y448369D01*
X35560Y448369D01*
X35560Y441631D01*
X33369Y441631D01*
X33369Y436117D01*
G74*
D01*
G03X35560Y437297I3370J8882*
G01*
X35560Y437297D01*
X35560Y410845D01*
G74*
D01*
G03X31416Y403107I8556J9561*
G01*
G75*
D01*
G03X31416Y399461I-12700J-1823*
G01*
G74*
D01*
G03X35560Y391723I12700J1823*
G01*
X35560Y391723D01*
X35560Y342947D01*
G75*
D01*
G03X35560Y337053I-556J-2947*
G01*
X35560Y337053D01*
X35560Y332740D01*
X31631Y332740D01*
X31631Y336631D01*
X26117Y336631D01*
G74*
D01*
G03X28873Y332740I8882J3370*
G01*
X28873Y332740D01*
X5080Y332740D01*
X5080Y452120D01*
X8711Y452120D01*
G74*
D01*
G03X6117Y448369I6287J7120*
G01*
D02*
G37*
%LPC*%
G36*
X11117Y353369D02*
X11117Y353369D01*
X16631Y353369D01*
X16631Y358883D01*
G74*
D01*
G03X11117Y353369I3369J8883*
G01*
D02*
G37*
G36*
X23369Y358883D02*
X23369Y358883D01*
X23369Y353369D01*
X28883Y353369D01*
G74*
D01*
G03X23369Y358883I8883J3369*
G01*
D02*
G37*
G36*
X26803Y343369D02*
X26803Y343369D01*
X31631Y343369D01*
X31631Y348883D01*
G74*
D01*
G03X28197Y346631I3370J8882*
G01*
X28197Y346631D01*
X23369Y346631D01*
X23369Y341117D01*
G74*
D01*
G03X26803Y343369I3370J8882*
G01*
D02*
G37*
G36*
X16631Y341117D02*
X16631Y341117D01*
X16631Y346631D01*
X11117Y346631D01*
G74*
D01*
G03X16631Y341117I8883J3369*
G01*
D02*
G37*
G36*
X17000Y350000D02*
G75*
D01*
G03X17000Y350000I3000J0*
G01*
D02*
G37*
G36*
X11631Y436117D02*
X11631Y436117D01*
X11631Y441631D01*
X6117Y441631D01*
G74*
D01*
G03X11631Y436117I8883J3369*
G01*
D02*
G37*
G36*
X12000Y445000D02*
G75*
D01*
G03X12000Y445000I3000J0*
G01*
D02*
G37*
G36*
X26631Y436117D02*
X26631Y436117D01*
X26631Y441631D01*
X18369Y441631D01*
X18369Y436117D01*
G74*
D01*
G03X22500Y439169I3369J8882*
G01*
G74*
D01*
G03X26631Y436117I7500J5830*
G01*
D02*
G37*
G36*
X27000Y445000D02*
G75*
D01*
G03X27000Y445000I3000J0*
G01*
D02*
G37*
%LPD*%
G36*
X235956Y21046D02*
X235956Y21046D01*
X236172Y20830D01*
X236172Y20830D01*
X236310Y20692D01*
X246442Y20692D01*
X246442Y20880D01*
G74*
D01*
G02X248247Y24130I3828J0*
G01*
G75*
D01*
G02X246442Y27380I2023J3250*
G01*
X246442Y27380D01*
X246442Y36880D01*
G74*
D01*
G02X249975Y40697I3828J0*
G01*
X249975Y40697D01*
X249975Y52062D01*
G75*
D01*
G02X251526Y55814I5295J8*
G01*
X251526Y55814D01*
X255207Y59496D01*
X255207Y164181D01*
G74*
D01*
G02X253498Y162868I7891J8502*
G01*
X253498Y162868D01*
X253498Y137220D01*
G75*
D01*
G02X251793Y133114I-5798J1*
G01*
X251793Y133114D01*
X244298Y125618D01*
X244298Y37450D01*
G75*
D01*
G02X242593Y33344I-5798J1*
G01*
X242593Y33344D01*
X236351Y27102D01*
G75*
D01*
G02X235956Y21046I-10550J-2353*
G01*
D02*
G37*
G36*
X427393Y142240D02*
G75*
D01*
G03X429198Y145490I-2023J3250*
G01*
X429198Y145490D01*
X429198Y154299D01*
X429216Y154316D01*
X429216Y154316D01*
G74*
D01*
G03X430914Y158416I4100J4100*
G01*
X430914Y158416D01*
X430914Y162637D01*
G74*
D01*
G03X432855Y164042I5794J10048*
G01*
X432855Y164042D01*
X432855Y146929D01*
G75*
D01*
G03X435562Y142308I5295J-2*
G01*
X435562Y142308D01*
X433150Y142308D01*
G75*
D01*
G03X429653Y140038I0J-3828*
G01*
X429653Y140038D01*
X429052Y140038D01*
G74*
D01*
G03X427393Y142240I3682J1048*
G01*
D02*
G37*
G36*
X265525Y10878D02*
X265525Y10878D01*
X264065Y10878D01*
G75*
D01*
G03X264098Y11380I-3795J502*
G01*
X264098Y11380D01*
X264098Y20880D01*
G74*
D01*
G03X262293Y24130I3828J0*
G01*
G74*
D01*
G03X264098Y27337I2023J3250*
G01*
X264098Y27337D01*
X265492Y27337D01*
G74*
D01*
G03X267297Y24130I3828J43*
G01*
G74*
D01*
G03X265492Y20880I2023J3250*
G01*
X265492Y20880D01*
X265492Y11380D01*
G75*
D01*
G03X265525Y10878I3828J0*
G01*
D02*
G37*
G36*
X443445Y160043D02*
X443445Y160043D01*
X443445Y163488D01*
G74*
D01*
G03X445763Y162102I7072J9195*
G01*
G74*
D01*
G03X443445Y160043I4235J7102*
G01*
D02*
G37*
G36*
X22500Y450831D02*
G74*
D01*
G02X23711Y452120I7499J5832*
G01*
X23711Y452120D01*
X21289Y452120D01*
G74*
D01*
G02X22500Y450831I6287J7120*
G01*
D02*
G37*
G36*
X645505Y616172D02*
G74*
D01*
G02X646172Y615505I5505J6172*
G01*
X646172Y615505D01*
X646172Y616172D01*
X645505Y616172D01*
D02*
G37*
G36*
X646172Y4495D02*
G74*
D01*
G02X645505Y3828I6172J5505*
G01*
X645505Y3828D01*
X646172Y3828D01*
X646172Y4495D01*
D02*
G37*
G36*
X3828Y615505D02*
X3828Y615505D01*
X3828Y616172D01*
X4495Y616172D01*
G74*
D01*
G03X3828Y615505I5505J6172*
G01*
D02*
G37*
G36*
X462597Y102870D02*
G74*
D01*
G03X463017Y103223I2247J3099*
G01*
X463017Y103223D01*
X463017Y102517D01*
G74*
D01*
G03X462597Y102870I2667J2746*
G01*
D02*
G37*
G36*
X462597Y115570D02*
G74*
D01*
G03X463017Y115923I2247J3099*
G01*
X463017Y115923D01*
X463017Y115217D01*
G74*
D01*
G03X462597Y115570I2667J2746*
G01*
D02*
G37*
G36*
X462597Y128270D02*
G74*
D01*
G03X463017Y128623I2247J3099*
G01*
X463017Y128623D01*
X463017Y127917D01*
G74*
D01*
G03X462597Y128270I2667J2746*
G01*
D02*
G37*
G36*
X462806Y140807D02*
G74*
D01*
G03X463407Y140756I747J5242*
G01*
G74*
D01*
G03X463245Y140375I3441J1688*
G01*
G74*
D01*
G03X462806Y140807I2896J2504*
G01*
D02*
G37*
G36*
X446565Y141257D02*
G74*
D01*
G03X446075Y140950I1782J3388*
G01*
G74*
D01*
G03X445785Y141257I2924J2471*
G01*
X445785Y141257D01*
X446565Y141257D01*
D02*
G37*
G54D11*
X477283Y592956D02*
G75*
D01*
G03X469794Y585467I-9783J2294*
G01*
X472225Y583037D01*
X472225Y547558D01*
G75*
D01*
G03X472225Y529874I-7509J-8842*
G01*
X472225Y522158D01*
G75*
D01*
G03X472225Y504474I-7509J-8842*
G01*
X472225Y469553D01*
X439767Y437095D01*
X375928Y437095D01*
G75*
D01*
G03X372176Y435544I-8J-5295*
G01*
X349500Y412869D01*
G75*
D01*
G03X358862Y407253I-584J-11584*
G01*
X378113Y426505D01*
X441960Y426505D01*
G74*
D01*
G03X445711Y428062I1J5295*
G01*
X476489Y458841D01*
X481258Y463609D01*
G75*
D01*
G03X482815Y467360I-3738J3750*
G01*
X482815Y504301D01*
G75*
D01*
G03X482815Y522331I7300J9015*
G01*
X482815Y529701D01*
G74*
D01*
G03X486002Y527870I7299J9016*
G01*
X486002Y534602D01*
X482815Y534602D01*
X482815Y542830D01*
X486002Y542830D01*
X486002Y549562D01*
G74*
D01*
G03X482815Y547731I4112J10847*
G01*
X482815Y585230D01*
G74*
D01*
G03X481258Y588981I5295J1*
G01*
X477283Y592956D01*
X432015Y457200D02*
X432015Y477520D01*
G74*
D01*
G03X430458Y481271I5295J1*
G01*
X408847Y502882D01*
G75*
D01*
G03X406615Y522331I5068J10434*
G01*
X406615Y529701D01*
G75*
D01*
G03X406615Y547731I7300J9015*
G01*
X406615Y553720D01*
G74*
D01*
G03X405058Y557471I5295J1*
G01*
X394911Y567618D01*
G74*
D01*
G03X392517Y568999I3751J3737*
G01*
G75*
D01*
G03X391154Y569175I-1354J-5119*
G01*
X360403Y569175D01*
X353143Y576436D01*
G75*
D01*
G03X342205Y576211I-5642J8314*
G01*
X342205Y574602D01*
G75*
D01*
G03X343756Y570846I5295J-12*
G01*
X354466Y560136D01*
G74*
D01*
G03X357151Y558691I3745J3742*
G01*
G75*
D01*
G03X358210Y558585I1054J5189*
G01*
X388967Y558585D01*
X396025Y551527D01*
X396025Y547558D01*
G75*
D01*
G03X396025Y529874I-7509J-8842*
G01*
X396025Y522158D01*
G74*
D01*
G03X392630Y524162I7508J8842*
G01*
X392630Y517430D01*
X396025Y517430D01*
X396025Y509202D01*
X392630Y509202D01*
X392630Y502470D01*
G74*
D01*
G03X396025Y504474I4113J10846*
G01*
X396025Y502933D01*
G75*
D01*
G03X397576Y499176I5295J-13*
G01*
X420579Y476172D01*
X421425Y475327D01*
X421425Y459393D01*
X411827Y449795D01*
X332399Y449795D01*
G74*
D01*
G03X328850Y452188I3549J1435*
G01*
X318850Y452188D01*
G75*
D01*
G03X315022Y448360I0J-3828*
G01*
X315022Y438860D01*
G75*
D01*
G03X316827Y435610I3828J0*
G01*
G74*
D01*
G03X315022Y432360I2023J3250*
G01*
X315022Y422860D01*
G75*
D01*
G03X318221Y419084I3828J0*
G01*
X318221Y411605D01*
G75*
D01*
G03X328812Y411605I5296J-10321*
G01*
X328812Y419032D01*
X328850Y419032D01*
G75*
D01*
G03X332678Y422860I0J3828*
G01*
X332678Y432360D01*
G74*
D01*
G03X330873Y435610I3828J0*
G01*
G75*
D01*
G03X332678Y438860I-2023J3250*
G01*
X332678Y439205D01*
X414020Y439205D01*
G74*
D01*
G03X417771Y440762I1J5295*
G01*
X430458Y453449D01*
G75*
D01*
G03X432015Y457200I-3738J3750*
G01*
X236172Y534271D02*
G75*
D01*
G03X236172Y534271I-56J4445*
G01*
X236172Y501716D02*
G75*
D01*
G03X236172Y501716I-56J11600*
G01*
X132123Y495798D02*
G74*
D01*
G03X132733Y497067I7122J4204*
G01*
X127933Y497067D01*
X127933Y495798D01*
X122067Y495798D01*
X122067Y497067D01*
X117267Y497067D01*
G74*
D01*
G03X117877Y495798I7732J2935*
G01*
X90897Y495798D01*
G75*
D01*
G03X90897Y484202I-5896J-5798*
G01*
X97877Y484202D01*
G74*
D01*
G03X97267Y482933I7122J4204*
G01*
X102067Y482933D01*
X102067Y484202D01*
X107933Y484202D01*
X107933Y482933D01*
X112733Y482933D01*
G74*
D01*
G03X112123Y484202I7732J2935*
G01*
X192877Y484202D01*
G74*
D01*
G03X192267Y482933I7122J4204*
G01*
X197067Y482933D01*
X197067Y484202D01*
X202933Y484202D01*
X202933Y482933D01*
X207733Y482933D01*
G74*
D01*
G03X207123Y484202I7732J2935*
G01*
X217877Y484202D01*
G74*
D01*
G03X217267Y482933I7122J4204*
G01*
X222067Y482933D01*
X222067Y484202D01*
X227933Y484202D01*
X227933Y482933D01*
X232733Y482933D01*
G74*
D01*
G03X232123Y484202I7732J2935*
G01*
X384202Y484202D01*
X384202Y465897D01*
G75*
D01*
G03X395798Y465897I5798J-5896*
G01*
X395798Y490000D01*
G74*
D01*
G03X390000Y495798I5798J0*
G01*
X132123Y495798D01*
X107933Y472267D02*
G74*
D01*
G03X112733Y477067I2933J7733*
G01*
X107933Y477067D01*
X107933Y472267D01*
X162267Y472933D02*
X167067Y472933D01*
X167067Y477733D01*
G74*
D01*
G03X162267Y472933I2933J7733*
G01*
X177733Y472933D02*
G74*
D01*
G03X172933Y477733I7733J2933*
G01*
X172933Y472933D01*
X177733Y472933D01*
X197067Y472267D02*
X197067Y477067D01*
X192267Y477067D01*
G74*
D01*
G03X197067Y472267I7733J2933*
G01*
X202933Y472267D02*
G74*
D01*
G03X207733Y477067I2933J7733*
G01*
X202933Y477067D01*
X202933Y472267D01*
X222067Y472267D02*
X222067Y477067D01*
X217267Y477067D01*
G74*
D01*
G03X222067Y472267I7733J2933*
G01*
X227933Y472267D02*
G74*
D01*
G03X232733Y477067I2933J7733*
G01*
X227933Y477067D01*
X227933Y472267D01*
X102067Y472267D02*
X102067Y477067D01*
X97267Y477067D01*
G74*
D01*
G03X102067Y472267I7733J2933*
G01*
X505245Y482594D02*
X505245Y472093D01*
X499176Y466024D01*
X499175Y466024D01*
X476172Y443021D01*
X476172Y443021D01*
X457547Y424395D01*
X387052Y424395D01*
G75*
D01*
G03X386411Y424357I-8J-5295*
G01*
G74*
D01*
G03X383308Y422844I642J5256*
G01*
X373303Y412840D01*
G75*
D01*
G03X383634Y408193I1013J-11556*
G01*
X389245Y413805D01*
X459740Y413805D01*
G74*
D01*
G03X463491Y415362I1J5295*
G01*
X476172Y428043D01*
X476172Y428043D01*
X506664Y458536D01*
X506665Y458536D01*
X514278Y466149D01*
G75*
D01*
G03X515835Y469900I-3738J3750*
G01*
X515835Y480407D01*
X523362Y487933D01*
X527067Y487933D01*
X527067Y491638D01*
X532058Y496629D01*
G75*
D01*
G03X533615Y500380I-3738J3750*
G01*
X533615Y504301D01*
G75*
D01*
G03X533615Y522331I7300J9015*
G01*
X533615Y529701D01*
G75*
D01*
G03X533615Y547731I7300J9015*
G01*
X533615Y561687D01*
X535593Y563665D01*
X551180Y563665D01*
G74*
D01*
G03X554931Y565222I1J5295*
G01*
X566238Y576529D01*
G75*
D01*
G03X567795Y580280I-3738J3750*
G01*
X567795Y586711D01*
G75*
D01*
G03X557205Y586711I-5295J8538*
G01*
X557205Y582473D01*
X548987Y574255D01*
X533408Y574255D01*
G75*
D01*
G03X529656Y572704I-8J-5295*
G01*
X524576Y567624D01*
G75*
D01*
G03X523025Y563871I3743J-3744*
G01*
X523025Y547558D01*
G75*
D01*
G03X523025Y529874I-7509J-8842*
G01*
X523025Y522158D01*
G75*
D01*
G03X523025Y504474I-7509J-8842*
G01*
X523025Y502573D01*
X506796Y486344D01*
G75*
D01*
G03X505245Y482594I3743J-3744*
G01*
X302762Y476172D02*
G75*
D01*
G03X302762Y476172I-2762J-1172*
G01*
X237733Y417067D02*
X232933Y417067D01*
X232933Y412267D01*
G74*
D01*
G03X237733Y417067I2933J7733*
G01*
X237733Y422933D02*
G74*
D01*
G03X232933Y427733I7733J2933*
G01*
X232933Y422933D01*
X237733Y422933D01*
X236172Y404504D02*
G75*
D01*
G03X236172Y404504I11144J-3220*
G01*
X477067Y377733D02*
G74*
D01*
G03X472267Y372933I2933J7733*
G01*
X477067Y372933D01*
X477067Y377733D01*
X478561Y412501D02*
X473271Y412501D01*
G75*
D01*
G03X464699Y403929I0J-8572*
G01*
X464699Y398639D01*
G75*
D01*
G03X473271Y390067I8572J0*
G01*
X478561Y390067D01*
G75*
D01*
G03X487133Y398639I0J8572*
G01*
X487133Y403929D01*
G74*
D01*
G03X478561Y412501I8572J0*
G01*
X477067Y362267D02*
X477067Y367067D01*
X472267Y367067D01*
G74*
D01*
G03X477067Y362267I7733J2933*
G01*
X302933Y482733D02*
X302933Y477933D01*
X307733Y477933D01*
G74*
D01*
G03X302933Y482733I7733J2933*
G01*
X292267Y477933D02*
X297067Y477933D01*
X297067Y482733D01*
G74*
D01*
G03X292267Y477933I2933J7733*
G01*
X637067Y602267D02*
X637067Y607067D01*
X632267Y607067D01*
G74*
D01*
G03X637067Y602267I7733J2933*
G01*
X546895Y591687D02*
X541063Y591687D01*
X541063Y585855D01*
G74*
D01*
G03X546895Y591687I3562J9394*
G01*
X541063Y604645D02*
X541063Y598813D01*
X546895Y598813D01*
G74*
D01*
G03X541063Y604645I9394J3562*
G01*
X533937Y585855D02*
X533937Y591687D01*
X528105Y591687D01*
G74*
D01*
G03X533937Y585855I9394J3562*
G01*
X528105Y598813D02*
X533937Y598813D01*
X533937Y604645D01*
G74*
D01*
G03X528105Y598813I3562J9394*
G01*
X532500Y595250D02*
G75*
D01*
G03X532500Y595250I5000J0*
G01*
X554716Y538716D02*
G75*
D01*
G03X554716Y538716I11600J0*
G01*
X595190Y525000D02*
G75*
D01*
G03X595190Y525000I19810J0*
G01*
X577162Y509202D02*
X570430Y509202D01*
X570430Y502470D01*
G74*
D01*
G03X577162Y509202I4114J10846*
G01*
X555470Y517430D02*
X562202Y517430D01*
X562202Y524162D01*
G74*
D01*
G03X555470Y517430I4114J10846*
G01*
X570430Y524162D02*
X570430Y517430D01*
X577162Y517430D01*
G74*
D01*
G03X570430Y524162I10846J4114*
G01*
X561871Y513316D02*
G75*
D01*
G03X561871Y513316I4445J0*
G01*
X562202Y502470D02*
X562202Y509202D01*
X555470Y509202D01*
G74*
D01*
G03X562202Y502470I10846J4114*
G01*
X637000Y610000D02*
G75*
D01*
G03X637000Y610000I3000J0*
G01*
X485671Y538716D02*
G75*
D01*
G03X485671Y538716I4445J0*
G01*
X500962Y534602D02*
X494230Y534602D01*
X494230Y527870D01*
G74*
D01*
G03X500962Y534602I4114J10846*
G01*
X494230Y549562D02*
X494230Y542830D01*
X500962Y542830D01*
G74*
D01*
G03X494230Y549562I10846J4114*
G01*
X492067Y477267D02*
X492067Y482067D01*
X487267Y482067D01*
G74*
D01*
G03X492067Y477267I7733J2933*
G01*
X492000Y485000D02*
G75*
D01*
G03X492000Y485000I3000J0*
G01*
X497933Y492733D02*
X497933Y487933D01*
X502733Y487933D01*
G74*
D01*
G03X497933Y492733I7733J2933*
G01*
X502733Y482067D02*
X497933Y482067D01*
X497933Y477267D01*
G74*
D01*
G03X502733Y482067I2933J7733*
G01*
X487267Y487933D02*
X492067Y487933D01*
X492067Y492733D01*
G74*
D01*
G03X487267Y487933I2933J7733*
G01*
X527000Y485000D02*
G75*
D01*
G03X527000Y485000I3000J0*
G01*
X527067Y477267D02*
X527067Y482067D01*
X522267Y482067D01*
G74*
D01*
G03X527067Y477267I7733J2933*
G01*
X537733Y482067D02*
X532933Y482067D01*
X532933Y477267D01*
G74*
D01*
G03X537733Y482067I2933J7733*
G01*
X532933Y492733D02*
X532933Y487933D01*
X537733Y487933D01*
G74*
D01*
G03X532933Y492733I7733J2933*
G01*
X177733Y467067D02*
X172933Y467067D01*
X172933Y462267D01*
G74*
D01*
G03X177733Y467067I2933J7733*
G01*
X167067Y462267D02*
X167067Y467067D01*
X162267Y467067D01*
G74*
D01*
G03X167067Y462267I7733J2933*
G01*
X167000Y470000D02*
G75*
D01*
G03X167000Y470000I3000J0*
G01*
X222267Y422933D02*
X227067Y422933D01*
X227067Y427733D01*
G74*
D01*
G03X222267Y422933I2933J7733*
G01*
X210316Y401284D02*
G75*
D01*
G03X210316Y401284I11600J0*
G01*
X227067Y412267D02*
X227067Y417067D01*
X222267Y417067D01*
G74*
D01*
G03X227067Y412267I7733J2933*
G01*
X227000Y420000D02*
G75*
D01*
G03X227000Y420000I3000J0*
G01*
X197933Y427733D02*
X197933Y422933D01*
X202733Y422933D01*
G74*
D01*
G03X197933Y427733I7733J2933*
G01*
X192067Y412267D02*
X192067Y417067D01*
X187267Y417067D01*
G74*
D01*
G03X192067Y412267I7733J2933*
G01*
X197933Y412797D02*
G75*
D01*
G03X198803Y412656I-1419J-11512*
G01*
G74*
D01*
G03X202733Y417067I3802J7344*
G01*
X197933Y417067D01*
X197933Y412797D01*
X192000Y420000D02*
G75*
D01*
G03X192000Y420000I3000J0*
G01*
X187267Y422933D02*
X192067Y422933D01*
X192067Y427733D01*
G74*
D01*
G03X187267Y422933I2933J7733*
G01*
X134870Y405398D02*
X141603Y405398D01*
X141603Y412130D01*
G74*
D01*
G03X134870Y405398I4112J10846*
G01*
X156562Y397170D02*
X149830Y397170D01*
X149830Y390438D01*
G74*
D01*
G03X156562Y397170I4114J10846*
G01*
X141603Y390438D02*
X141603Y397170D01*
X134870Y397170D01*
G74*
D01*
G03X141603Y390438I10846J4114*
G01*
X141271Y401284D02*
G75*
D01*
G03X141271Y401284I4445J0*
G01*
X149830Y412130D02*
X149830Y405398D01*
X156562Y405398D01*
G74*
D01*
G03X149830Y412130I10846J4114*
G01*
X159516Y401284D02*
G75*
D01*
G03X159516Y401284I11600J0*
G01*
X108716Y401284D02*
G75*
D01*
G03X108716Y401284I11600J0*
G01*
X83316Y401284D02*
G75*
D01*
G03X83316Y401284I11600J0*
G01*
X57916Y401284D02*
G75*
D01*
G03X57916Y401284I11600J0*
G01*
X142933Y377733D02*
X142933Y372933D01*
X147733Y372933D01*
G74*
D01*
G03X142933Y377733I7733J2933*
G01*
X132267Y372933D02*
X137067Y372933D01*
X137067Y377733D01*
G74*
D01*
G03X132267Y372933I2933J7733*
G01*
X137067Y362267D02*
X137067Y367067D01*
X132267Y367067D01*
G74*
D01*
G03X137067Y362267I7733J2933*
G01*
X137000Y370000D02*
G75*
D01*
G03X137000Y370000I3000J0*
G01*
X147733Y367067D02*
X142933Y367067D01*
X142933Y362267D01*
G74*
D01*
G03X147733Y367067I2933J7733*
G01*
X297067Y467267D02*
X297067Y472067D01*
X292267Y472067D01*
G74*
D01*
G03X297067Y467267I7733J2933*
G01*
X307733Y472067D02*
X302933Y472067D01*
X302933Y467267D01*
G74*
D01*
G03X307733Y472067I2933J7733*
G01*
X388116Y401284D02*
G75*
D01*
G03X388116Y401284I11600J0*
G01*
X438916Y401284D02*
G75*
D01*
G03X438916Y401284I11600J0*
G01*
X419318Y391237D02*
X419318Y371009D01*
G75*
D01*
G03X430914Y370781I5682J-6009*
G01*
X430914Y391237D01*
G75*
D01*
G03X419318Y391237I-5798J10046*
G01*
X286516Y401284D02*
G75*
D01*
G03X286516Y401284I11600J0*
G01*
X261116Y401284D02*
G75*
D01*
G03X261116Y401284I11600J0*
G01*
X367933Y377733D02*
X367933Y372933D01*
X372733Y372933D01*
G74*
D01*
G03X367933Y377733I7733J2933*
G01*
X372733Y367067D02*
X367933Y367067D01*
X367933Y362267D01*
G74*
D01*
G03X372733Y367067I2933J7733*
G01*
X357267Y372933D02*
X362067Y372933D01*
X362067Y377733D01*
G74*
D01*
G03X357267Y372933I2933J7733*
G01*
X362067Y362267D02*
X362067Y367067D01*
X357267Y367067D01*
G74*
D01*
G03X362067Y362267I7733J2933*
G01*
X362000Y370000D02*
G75*
D01*
G03X362000Y370000I3000J0*
G01*
X242267Y372933D02*
X247067Y372933D01*
X247067Y377733D01*
G74*
D01*
G03X242267Y372933I2933J7733*
G01*
X252933Y377733D02*
X252933Y372933D01*
X257733Y372933D01*
G74*
D01*
G03X252933Y377733I7733J2933*
G01*
X257733Y367067D02*
X252933Y367067D01*
X252933Y362267D01*
G74*
D01*
G03X257733Y367067I2933J7733*
G01*
X247067Y362267D02*
X247067Y367067D01*
X242267Y367067D01*
G74*
D01*
G03X247067Y362267I7733J2933*
G01*
X247000Y370000D02*
G75*
D01*
G03X247000Y370000I3000J0*
G01*
X219900Y591495D02*
X213755Y591495D01*
X213755Y585350D01*
G74*
D01*
G03X219900Y591495I3755J9900*
G01*
X206245Y585350D02*
X206245Y591495D01*
X200100Y591495D01*
G74*
D01*
G03X206245Y585350I9900J3755*
G01*
X200100Y599005D02*
X206245Y599005D01*
X206245Y605150D01*
G74*
D01*
G03X200100Y599005I3755J9900*
G01*
X213755Y605150D02*
X213755Y599005D01*
X219900Y599005D01*
G74*
D01*
G03X213755Y605150I9900J3755*
G01*
X205000Y595250D02*
G75*
D01*
G03X205000Y595250I5000J0*
G01*
X174412Y595250D02*
G75*
D01*
G03X174412Y595250I10588J0*
G01*
X149412Y595250D02*
G75*
D01*
G03X149412Y595250I10588J0*
G01*
X36895Y591687D02*
X31063Y591687D01*
X31063Y585855D01*
G74*
D01*
G03X36895Y591687I3562J9394*
G01*
X18105Y598813D02*
X23937Y598813D01*
X23937Y604645D01*
G74*
D01*
G03X18105Y598813I3562J9394*
G01*
X31063Y604645D02*
X31063Y598813D01*
X36895Y598813D01*
G74*
D01*
G03X31063Y604645I9394J3562*
G01*
X22500Y595250D02*
G75*
D01*
G03X22500Y595250I5000J0*
G01*
X23937Y585855D02*
X23937Y591687D01*
X18105Y591687D01*
G74*
D01*
G03X23937Y585855I9394J3562*
G01*
X87066Y565790D02*
G74*
D01*
G03X83780Y569076I3286J0*
G01*
X83332Y569076D01*
X83332Y563592D01*
X87066Y563592D01*
X87066Y565790D01*
X78780Y569076D02*
G75*
D01*
G03X75494Y565790I0J-3286*
G01*
X75494Y563592D01*
X79228Y563592D01*
X79228Y569076D01*
X78780Y569076D01*
X75226Y600793D02*
G74*
D01*
G03X71120Y602498I4106J4092*
G01*
X59459Y602498D01*
G75*
D01*
G03X61559Y590902I-6957J-7248*
G01*
X68718Y590902D01*
X75494Y584126D01*
X75494Y582290D01*
G75*
D01*
G03X78780Y579004I3286J0*
G01*
X83780Y579004D01*
G75*
D01*
G03X87066Y582290I0J3286*
G01*
X87066Y586166D01*
G75*
D01*
G03X87066Y586914I-5786J374*
G01*
X87066Y590790D01*
G74*
D01*
G03X83780Y594076I3286J0*
G01*
X81944Y594076D01*
X75226Y600793D01*
X83780Y554004D02*
G75*
D01*
G03X87066Y557290I0J3286*
G01*
X87066Y559488D01*
X83332Y559488D01*
X83332Y554004D01*
X83780Y554004D01*
X78780Y554004D02*
X79228Y554004D01*
X79228Y559488D01*
X75494Y559488D01*
X75494Y557290D01*
G75*
D01*
G03X78780Y554004I3286J0*
G01*
X225270Y542830D02*
X232002Y542830D01*
X232002Y549562D01*
G74*
D01*
G03X225270Y542830I4114J10846*
G01*
X232002Y527870D02*
X232002Y534602D01*
X225270Y534602D01*
G74*
D01*
G03X232002Y527870I10846J4114*
G01*
X199116Y538716D02*
G75*
D01*
G03X199116Y538716I11600J0*
G01*
X173716Y538716D02*
G75*
D01*
G03X173716Y538716I11600J0*
G01*
X148316Y538716D02*
G75*
D01*
G03X148316Y538716I11600J0*
G01*
X123670Y542830D02*
X130402Y542830D01*
X130402Y549562D01*
G74*
D01*
G03X123670Y542830I4114J10846*
G01*
X138630Y549562D02*
X138630Y542830D01*
X145362Y542830D01*
G74*
D01*
G03X138630Y549562I10846J4114*
G01*
X130402Y527870D02*
X130402Y534602D01*
X123670Y534602D01*
G74*
D01*
G03X130402Y527870I10846J4114*
G01*
X145362Y534602D02*
X138630Y534602D01*
X138630Y527870D01*
G74*
D01*
G03X145362Y534602I4114J10846*
G01*
X130071Y538716D02*
G75*
D01*
G03X130071Y538716I4445J0*
G01*
X97516Y538716D02*
G75*
D01*
G03X97516Y538716I11600J0*
G01*
X72116Y538716D02*
G75*
D01*
G03X72116Y538716I11600J0*
G01*
X199116Y513316D02*
G75*
D01*
G03X199116Y513316I11600J0*
G01*
X196162Y509202D02*
X189430Y509202D01*
X189430Y502470D01*
G74*
D01*
G03X196162Y509202I4114J10846*
G01*
X174470Y517430D02*
X181202Y517430D01*
X181202Y524162D01*
G74*
D01*
G03X174470Y517430I4114J10846*
G01*
X189430Y524162D02*
X189430Y517430D01*
X196162Y517430D01*
G74*
D01*
G03X189430Y524162I10846J4114*
G01*
X180871Y513316D02*
G75*
D01*
G03X180871Y513316I4445J0*
G01*
X181202Y502470D02*
X181202Y509202D01*
X174470Y509202D01*
G74*
D01*
G03X181202Y502470I10846J4114*
G01*
X148316Y513316D02*
G75*
D01*
G03X148316Y513316I11600J0*
G01*
X72499Y515961D02*
X72499Y510671D01*
G75*
D01*
G03X81071Y502099I8572J0*
G01*
X86361Y502099D01*
G75*
D01*
G03X94933Y510671I0J8572*
G01*
X94933Y515961D01*
G74*
D01*
G03X86361Y524533I8572J0*
G01*
X81071Y524533D01*
G75*
D01*
G03X72499Y515961I0J-8572*
G01*
X15190Y525000D02*
G75*
D01*
G03X15190Y525000I19810J0*
G01*
X222000Y480000D02*
G75*
D01*
G03X222000Y480000I3000J0*
G01*
X197000Y480000D02*
G75*
D01*
G03X197000Y480000I3000J0*
G01*
X102000Y480000D02*
G75*
D01*
G03X102000Y480000I3000J0*
G01*
X122000Y500000D02*
G75*
D01*
G03X122000Y500000I3000J0*
G01*
X7000Y610000D02*
G75*
D01*
G03X7000Y610000I3000J0*
G01*
X97516Y513316D02*
G75*
D01*
G03X97516Y513316I11600J0*
G01*
X117267Y502933D02*
X122067Y502933D01*
X122067Y507733D01*
G74*
D01*
G03X117267Y502933I2933J7733*
G01*
X127933Y503765D02*
X127933Y502933D01*
X129344Y502933D01*
G75*
D01*
G03X127933Y503765I5171J10382*
G01*
X17733Y607067D02*
X12933Y607067D01*
X12933Y602267D01*
G74*
D01*
G03X17733Y607067I2933J7733*
G01*
X446063Y604645D02*
X446063Y598813D01*
X451895Y598813D01*
G74*
D01*
G03X446063Y604645I9394J3562*
G01*
X438937Y585855D02*
X438937Y591687D01*
X433105Y591687D01*
G74*
D01*
G03X438937Y585855I9394J3562*
G01*
X433105Y598813D02*
X438937Y598813D01*
X438937Y604645D01*
G74*
D01*
G03X433105Y598813I3562J9394*
G01*
X437500Y595250D02*
G75*
D01*
G03X437500Y595250I5000J0*
G01*
X451895Y591687D02*
X446063Y591687D01*
X446063Y585855D01*
G74*
D01*
G03X451895Y591687I3562J9394*
G01*
X376063Y594145D02*
X376063Y588313D01*
X381895Y588313D01*
G74*
D01*
G03X376063Y594145I9394J3562*
G01*
X381895Y581187D02*
X376063Y581187D01*
X376063Y575355D01*
G74*
D01*
G03X381895Y581187I3562J9394*
G01*
X384071Y513316D02*
G75*
D01*
G03X384071Y513316I4445J0*
G01*
X427716Y513316D02*
G75*
D01*
G03X427716Y513316I11600J0*
G01*
X377670Y517430D02*
X384402Y517430D01*
X384402Y524162D01*
G74*
D01*
G03X377670Y517430I4114J10846*
G01*
X384402Y502470D02*
X384402Y509202D01*
X377670Y509202D01*
G74*
D01*
G03X384402Y502470I10846J4114*
G01*
X368937Y575355D02*
X368937Y581187D01*
X363105Y581187D01*
G74*
D01*
G03X368937Y575355I9394J3562*
G01*
X367500Y584750D02*
G75*
D01*
G03X367500Y584750I5000J0*
G01*
X363105Y588313D02*
X368937Y588313D01*
X368937Y594145D01*
G74*
D01*
G03X363105Y588313I3562J9394*
G01*
X428470Y542830D02*
X435202Y542830D01*
X435202Y549562D01*
G74*
D01*
G03X428470Y542830I4114J10846*
G01*
X450162Y534602D02*
X443430Y534602D01*
X443430Y527870D01*
G74*
D01*
G03X450162Y534602I4114J10846*
G01*
X435202Y527870D02*
X435202Y534602D01*
X428470Y534602D01*
G74*
D01*
G03X435202Y527870I10846J4114*
G01*
X434871Y538716D02*
G75*
D01*
G03X434871Y538716I4445J0*
G01*
X443430Y549562D02*
X443430Y542830D01*
X450162Y542830D01*
G74*
D01*
G03X443430Y549562I10846J4114*
G01*
X316430Y549562D02*
X316430Y542830D01*
X323162Y542830D01*
G74*
D01*
G03X316430Y549562I10846J4114*
G01*
X308202Y527870D02*
X308202Y534602D01*
X301470Y534602D01*
G74*
D01*
G03X308202Y527870I10846J4114*
G01*
X323162Y534602D02*
X316430Y534602D01*
X316430Y527870D01*
G74*
D01*
G03X323162Y534602I4114J10846*
G01*
X307871Y538716D02*
G75*
D01*
G03X307871Y538716I4445J0*
G01*
X301470Y542830D02*
X308202Y542830D01*
X308202Y549562D01*
G74*
D01*
G03X301470Y542830I4114J10846*
G01*
X246962Y534602D02*
X240230Y534602D01*
X240230Y527870D01*
G74*
D01*
G03X246962Y534602I4114J10846*
G01*
X240230Y549562D02*
X240230Y542830D01*
X246962Y542830D01*
G74*
D01*
G03X240230Y549562I10846J4114*
G01*
X351516Y538716D02*
G75*
D01*
G03X351516Y538716I11600J0*
G01*
X326116Y538716D02*
G75*
D01*
G03X326116Y538716I11600J0*
G01*
X275316Y538716D02*
G75*
D01*
G03X275316Y538716I11600J0*
G01*
X249916Y538716D02*
G75*
D01*
G03X249916Y538716I11600J0*
G01*
X351516Y513316D02*
G75*
D01*
G03X351516Y513316I11600J0*
G01*
X326116Y513316D02*
G75*
D01*
G03X326116Y513316I11600J0*
G01*
X300716Y513316D02*
G75*
D01*
G03X300716Y513316I11600J0*
G01*
X275316Y513316D02*
G75*
D01*
G03X275316Y513316I11600J0*
G01*
X249916Y513316D02*
G75*
D01*
G03X249916Y513316I11600J0*
G01*
X447733Y482067D02*
X442933Y482067D01*
X442933Y477267D01*
G74*
D01*
G03X447733Y482067I2933J7733*
G01*
X432267Y487933D02*
X437067Y487933D01*
X437067Y492733D01*
G74*
D01*
G03X432267Y487933I2933J7733*
G01*
X437067Y477267D02*
X437067Y482067D01*
X432267Y482067D01*
G74*
D01*
G03X437067Y477267I7733J2933*
G01*
X437000Y485000D02*
G75*
D01*
G03X437000Y485000I3000J0*
G01*
X442933Y492733D02*
X442933Y487933D01*
X447733Y487933D01*
G74*
D01*
G03X442933Y492733I7733J2933*
G01*
X637000Y70000D02*
G75*
D01*
G03X637000Y70000I3000J0*
G01*
X637000Y10000D02*
G75*
D01*
G03X637000Y10000I3000J0*
G01*
X576767Y93133D02*
X581567Y93133D01*
X581567Y97933D01*
G74*
D01*
G03X576767Y93133I2933J7733*
G01*
X587433Y97933D02*
X587433Y93133D01*
X592233Y93133D01*
G74*
D01*
G03X587433Y97933I7733J2933*
G01*
X632267Y12933D02*
X637067Y12933D01*
X637067Y17733D01*
G74*
D01*
G03X632267Y12933I2933J7733*
G01*
X628813Y181895D02*
X628813Y176063D01*
X634645Y176063D01*
G74*
D01*
G03X628813Y181895I9394J3562*
G01*
X529662Y75000D02*
G75*
D01*
G03X529662Y75000I10588J0*
G01*
X634645Y168937D02*
X628813Y168937D01*
X628813Y163105D01*
G74*
D01*
G03X634645Y168937I3562J9394*
G01*
X592233Y87267D02*
X587433Y87267D01*
X587433Y82467D01*
G74*
D01*
G03X592233Y87267I2933J7733*
G01*
X581567Y82467D02*
X581567Y87267D01*
X576767Y87267D01*
G74*
D01*
G03X581567Y82467I7733J2933*
G01*
X581500Y90200D02*
G75*
D01*
G03X581500Y90200I3000J0*
G01*
X632267Y72933D02*
X637067Y72933D01*
X637067Y77733D01*
G74*
D01*
G03X632267Y72933I2933J7733*
G01*
X637067Y62267D02*
X637067Y67067D01*
X632267Y67067D01*
G74*
D01*
G03X637067Y62267I7733J2933*
G01*
X595190Y35000D02*
G75*
D01*
G03X595190Y35000I19810J0*
G01*
X529662Y50000D02*
G75*
D01*
G03X529662Y50000I10588J0*
G01*
X544005Y34900D02*
X544005Y28755D01*
X550150Y28755D01*
G74*
D01*
G03X544005Y34900I9900J3755*
G01*
X530350Y28755D02*
X536495Y28755D01*
X536495Y34900D01*
G74*
D01*
G03X530350Y28755I3755J9900*
G01*
X620250Y172500D02*
G75*
D01*
G03X620250Y172500I5000J0*
G01*
X587933Y17733D02*
X587933Y12933D01*
X592733Y12933D01*
G74*
D01*
G03X587933Y17733I7733J2933*
G01*
X390508Y20917D02*
X384233Y20917D01*
X384233Y14642D01*
G74*
D01*
G03X390508Y20917I3833J10108*
G01*
X375400Y24750D02*
G75*
D01*
G03X375400Y24750I5000J0*
G01*
X384233Y34858D02*
X384233Y28583D01*
X390508Y28583D01*
G74*
D01*
G03X384233Y34858I10108J3833*
G01*
X262000Y45000D02*
G75*
D01*
G03X262000Y45000I3000J0*
G01*
X331532Y100890D02*
X331532Y99182D01*
X337318Y99182D01*
X337318Y103562D01*
X343402Y103562D01*
X343402Y99182D01*
X349188Y99182D01*
X349188Y100890D01*
G74*
D01*
G03X347383Y104140I3828J0*
G01*
G74*
D01*
G03X349042Y106342I2023J3250*
G01*
X352583Y106342D01*
G75*
D01*
G03X364595Y116876I7414J3661*
G01*
G74*
D01*
G03X364093Y117446I4593J3539*
G01*
X319403Y162137D01*
X319403Y168570D01*
X312969Y168570D01*
X309686Y171853D01*
G75*
D01*
G03X302985Y162155I-11569J830*
G01*
X344422Y120718D01*
X335360Y120718D01*
G75*
D01*
G03X331532Y116890I0J-3828*
G01*
X331532Y107390D01*
G75*
D01*
G03X333337Y104140I3828J0*
G01*
G74*
D01*
G03X331532Y100890I2023J3250*
G01*
X374712Y100890D02*
X374712Y99182D01*
X380498Y99182D01*
X380498Y103562D01*
X386582Y103562D01*
X386582Y99182D01*
X392368Y99182D01*
X392368Y100890D01*
G74*
D01*
G03X390563Y104140I3828J0*
G01*
G74*
D01*
G03X392222Y106342I2023J3250*
G01*
X397583Y106342D01*
G75*
D01*
G03X405569Y118250I7416J3659*
G01*
X358153Y165667D01*
G75*
D01*
G03X345951Y161469I-9237J7017*
G01*
X386702Y120718D01*
X378540Y120718D01*
G75*
D01*
G03X374712Y116890I0J-3828*
G01*
X374712Y107390D01*
G75*
D01*
G03X376517Y104140I3828J0*
G01*
G74*
D01*
G03X374712Y100890I2023J3250*
G01*
X319071Y172684D02*
G75*
D01*
G03X319071Y172684I4445J0*
G01*
X334362Y168570D02*
X327630Y168570D01*
X327630Y161838D01*
G74*
D01*
G03X334362Y168570I4114J10846*
G01*
X327630Y183530D02*
X327630Y176798D01*
X334362Y176798D01*
G74*
D01*
G03X327630Y183530I10846J4114*
G01*
X312670Y176798D02*
X319403Y176798D01*
X319403Y183530D01*
G74*
D01*
G03X312670Y176798I4112J10846*
G01*
X388116Y172684D02*
G75*
D01*
G03X388116Y172684I11600J0*
G01*
X362716Y172684D02*
G75*
D01*
G03X362716Y172684I11600J0*
G01*
X267933Y52733D02*
X267933Y47933D01*
X272733Y47933D01*
G74*
D01*
G03X267933Y52733I7733J2933*
G01*
X370292Y28583D02*
X376567Y28583D01*
X376567Y34858D01*
G74*
D01*
G03X370292Y28583I3833J10108*
G01*
X376567Y14642D02*
X376567Y20917D01*
X370292Y20917D01*
G74*
D01*
G03X376567Y14642I10108J3833*
G01*
X446103Y115570D02*
G74*
D01*
G03X445230Y114688I2248J3098*
G01*
X441192Y114688D01*
X441192Y109152D01*
X443150Y109152D01*
G74*
D01*
G03X446769Y111730I1J3828*
G01*
X451840Y111730D01*
X451840Y119410D01*
X444522Y119410D01*
X444522Y118670D01*
G75*
D01*
G03X446103Y115570I3828J-1*
G01*
X444522Y99770D02*
X444522Y99030D01*
X451840Y99030D01*
X451840Y106710D01*
X444522Y106710D01*
X444522Y105970D01*
G75*
D01*
G03X446103Y102870I3828J-1*
G01*
G74*
D01*
G03X444522Y99770I2247J3099*
G01*
X433150Y109152D02*
X435108Y109152D01*
X435108Y114688D01*
X429322Y114688D01*
X429322Y112980D01*
G75*
D01*
G03X433150Y109152I3828J0*
G01*
X444522Y93270D02*
G75*
D01*
G03X448350Y89442I3828J0*
G01*
X451840Y89442D01*
X451840Y94010D01*
X444522Y94010D01*
X444522Y93270D01*
X378540Y87562D02*
X380498Y87562D01*
X380498Y93098D01*
X374712Y93098D01*
X374712Y91390D01*
G75*
D01*
G03X378540Y87562I3828J0*
G01*
X377267Y82933D02*
X382067Y82933D01*
X382067Y87733D01*
G74*
D01*
G03X377267Y82933I2933J7733*
G01*
X392733Y77067D02*
X387933Y77067D01*
X387933Y72267D01*
G74*
D01*
G03X392733Y77067I2933J7733*
G01*
X382067Y72267D02*
X382067Y77067D01*
X377267Y77067D01*
G74*
D01*
G03X382067Y72267I7733J2933*
G01*
X382000Y80000D02*
G75*
D01*
G03X382000Y80000I3000J0*
G01*
X392733Y82933D02*
G74*
D01*
G03X388349Y87562I7733J2933*
G01*
X388540Y87562D01*
G75*
D01*
G03X392368Y91390I0J3828*
G01*
X392368Y93098D01*
X386582Y93098D01*
X386582Y87562D01*
X387933Y87562D01*
X387933Y82933D01*
X392733Y82933D01*
X335360Y87562D02*
X337318Y87562D01*
X337318Y93098D01*
X331532Y93098D01*
X331532Y91390D01*
G75*
D01*
G03X335360Y87562I3828J0*
G01*
X337267Y82933D02*
X342067Y82933D01*
X342067Y87733D01*
G74*
D01*
G03X337267Y82933I2933J7733*
G01*
X352733Y77067D02*
X347933Y77067D01*
X347933Y72267D01*
G74*
D01*
G03X352733Y77067I2933J7733*
G01*
X342067Y72267D02*
X342067Y77067D01*
X337267Y77067D01*
G74*
D01*
G03X342067Y72267I7733J2933*
G01*
X342000Y80000D02*
G75*
D01*
G03X342000Y80000I3000J0*
G01*
X347933Y87733D02*
X347933Y82933D01*
X352733Y82933D01*
G74*
D01*
G03X347933Y87733I7733J2933*
G01*
X345360Y87562D02*
G75*
D01*
G03X349188Y91390I0J3828*
G01*
X349188Y93098D01*
X343402Y93098D01*
X343402Y87562D01*
X345360Y87562D01*
X290910Y87562D02*
X292868Y87562D01*
X292868Y93098D01*
X287082Y93098D01*
X287082Y91390D01*
G75*
D01*
G03X290910Y87562I3828J0*
G01*
X292267Y82933D02*
X297067Y82933D01*
X297067Y87733D01*
G74*
D01*
G03X292267Y82933I2933J7733*
G01*
X307733Y77067D02*
X302933Y77067D01*
X302933Y72267D01*
G74*
D01*
G03X307733Y77067I2933J7733*
G01*
X297067Y72267D02*
X297067Y77067D01*
X292267Y77067D01*
G74*
D01*
G03X297067Y72267I7733J2933*
G01*
X297000Y80000D02*
G75*
D01*
G03X297000Y80000I3000J0*
G01*
X300910Y87562D02*
G75*
D01*
G03X304738Y91390I0J3828*
G01*
X304738Y93098D01*
X298952Y93098D01*
X298952Y87562D01*
X300910Y87562D01*
X302933Y87733D02*
X302933Y82933D01*
X307733Y82933D01*
G74*
D01*
G03X302933Y87733I7733J2933*
G01*
X344190Y24750D02*
G75*
D01*
G03X344190Y24750I10810J0*
G01*
X318790Y24750D02*
G75*
D01*
G03X318790Y24750I10810J0*
G01*
X293390Y24750D02*
G75*
D01*
G03X293390Y24750I10810J0*
G01*
X544231Y304387D02*
X544231Y313831D01*
X534787Y313831D01*
G74*
D01*
G03X544231Y304387I15213J5769*
G01*
X565213Y313831D02*
X555770Y313831D01*
X555770Y304387D01*
G74*
D01*
G03X565213Y313831I5770J15212*
G01*
X543000Y319600D02*
G75*
D01*
G03X543000Y319600I7000J0*
G01*
X534787Y325370D02*
X544231Y325370D01*
X544231Y334813D01*
G74*
D01*
G03X534787Y325370I5768J15213*
G01*
X555770Y334813D02*
X555770Y325370D01*
X565213Y325370D01*
G74*
D01*
G03X555770Y334813I15213J5770*
G01*
X544231Y355187D02*
X544231Y364631D01*
X534787Y364631D01*
G74*
D01*
G03X544231Y355187I15213J5769*
G01*
X565213Y364631D02*
X555770Y364631D01*
X555770Y355187D01*
G74*
D01*
G03X565213Y364631I5770J15212*
G01*
X477000Y370000D02*
G75*
D01*
G03X477000Y370000I3000J0*
G01*
X482933Y377733D02*
X482933Y372933D01*
X487733Y372933D01*
G74*
D01*
G03X482933Y377733I7733J2933*
G01*
X487733Y367067D02*
X482933Y367067D01*
X482933Y362267D01*
G74*
D01*
G03X487733Y367067I2933J7733*
G01*
X534787Y376170D02*
X544231Y376170D01*
X544231Y385613D01*
G74*
D01*
G03X534787Y376170I5768J15213*
G01*
X555770Y385613D02*
X555770Y376170D01*
X565213Y376170D01*
G74*
D01*
G03X555770Y385613I15213J5770*
G01*
X543000Y370400D02*
G75*
D01*
G03X543000Y370400I7000J0*
G01*
X533730Y421200D02*
G75*
D01*
G03X533730Y421200I16270J0*
G01*
X15505Y616172D02*
X634495Y616172D01*
G74*
D01*
G03X632267Y612933I5504J6172*
G01*
X637067Y612933D01*
X637067Y616172D01*
X642933Y616172D01*
X642933Y612933D01*
X646172Y612933D01*
X646172Y607067D01*
X642933Y607067D01*
X642933Y602267D01*
G74*
D01*
G03X646172Y604495I2933J7732*
G01*
X646172Y75505D01*
G74*
D01*
G03X642933Y77733I6172J5504*
G01*
X642933Y72933D01*
X646172Y72933D01*
X646172Y67067D01*
X642933Y67067D01*
X642933Y62267D01*
G74*
D01*
G03X646172Y64495I2933J7732*
G01*
X646172Y15505D01*
G74*
D01*
G03X642933Y17733I6172J5504*
G01*
X642933Y12933D01*
X646172Y12933D01*
X646172Y7067D01*
X642933Y7067D01*
X642933Y3828D01*
X637067Y3828D01*
X637067Y7067D01*
X632267Y7067D01*
G74*
D01*
G03X634495Y3828I7732J2933*
G01*
X590505Y3828D01*
G74*
D01*
G03X592733Y7067I5504J6172*
G01*
X587933Y7067D01*
X587933Y3828D01*
X584918Y3828D01*
X584918Y7001D01*
G75*
D01*
G03X584918Y12999I77J2999*
G01*
X584918Y37741D01*
X634669Y87492D01*
G75*
D01*
G03X638584Y96930I-9418J9438*
G01*
X638584Y147500D01*
G75*
D01*
G03X625104Y160833I-13334J0*
G01*
X621687Y164251D01*
X621687Y168937D01*
X617854Y168937D01*
X617854Y172920D01*
X620997Y176063D01*
X621687Y176063D01*
X621687Y176753D01*
X639755Y194821D01*
G75*
D01*
G03X641137Y210610I-8718J8718*
G01*
G75*
D01*
G03X619975Y209913I-10737J4388*
G01*
X599393Y189331D01*
G74*
D01*
G03X591186Y177022I5127J12309*
G01*
X591186Y162577D01*
G75*
D01*
G03X595091Y153131I13334J-18*
G01*
X610151Y138071D01*
G74*
D01*
G03X611916Y136588I9428J9429*
G01*
X611916Y102453D01*
X562071Y52609D01*
G74*
D01*
G03X560125Y50138I9429J9428*
G01*
G74*
D01*
G03X558082Y45720I3755J4418*
G01*
X558082Y26118D01*
X545123Y26118D01*
G75*
D01*
G03X535377Y26118I-4873J-1115*
G01*
X511258Y26118D01*
X511258Y33020D01*
G74*
D01*
G03X505460Y38818I5798J0*
G01*
X457200Y38818D01*
G75*
D01*
G03X451402Y33020I0J-5798*
G01*
X451402Y30128D01*
X446088Y30128D01*
G74*
D01*
G03X443190Y31866I2898J1547*
G01*
X438190Y31866D01*
G75*
D01*
G03X434904Y28580I0J-3286*
G01*
X434904Y24704D01*
G75*
D01*
G03X434904Y23956I5786J-374*
G01*
X434904Y20080D01*
G75*
D01*
G03X438190Y16794I3286J0*
G01*
X443190Y16794D01*
G74*
D01*
G03X446088Y18532I1J3286*
G01*
X451402Y18532D01*
X451402Y3828D01*
X393078Y3828D01*
X403448Y14199D01*
G75*
D01*
G03X395249Y22398I2351J10550*
G01*
X383728Y10878D01*
X283115Y10878D01*
G75*
D01*
G03X283148Y11380I-3795J502*
G01*
X283148Y20880D01*
G74*
D01*
G03X281343Y24130I3828J0*
G01*
G75*
D01*
G03X283148Y27380I-2023J3250*
G01*
X283148Y36880D01*
G74*
D01*
G03X279320Y40708I3828J0*
G01*
X272069Y40708D01*
G74*
D01*
G03X272733Y42067I7066J4294*
G01*
X267933Y42067D01*
X267933Y40448D01*
G74*
D01*
G03X265492Y36923I1387J3568*
G01*
X264098Y36923D01*
G74*
D01*
G03X262067Y40260I3828J43*
G01*
X262067Y42067D01*
X260565Y42067D01*
X260565Y47933D01*
X262067Y47933D01*
X262067Y51378D01*
X263744Y53056D01*
G75*
D01*
G03X264793Y59051I-3743J3744*
G01*
X264793Y164211D01*
G74*
D01*
G03X266918Y162637I7922J8474*
G01*
X266918Y162524D01*
G75*
D01*
G03X268616Y158424I5798J0*
G01*
X268616Y158424D01*
X309103Y117938D01*
X304592Y117938D01*
G74*
D01*
G03X300910Y120718I3682J1048*
G01*
X290910Y120718D01*
G75*
D01*
G03X287082Y116890I0J-3828*
G01*
X287082Y107390D01*
G75*
D01*
G03X288887Y104140I3828J0*
G01*
G74*
D01*
G03X287082Y100890I2023J3250*
G01*
X287082Y99182D01*
X292868Y99182D01*
X292868Y103562D01*
X298952Y103562D01*
X298952Y99182D01*
X304738Y99182D01*
X304738Y100890D01*
G74*
D01*
G03X302933Y104140I3828J0*
G01*
G74*
D01*
G03X304592Y106342I2023J3250*
G01*
X307583Y106342D01*
G75*
D01*
G03X320798Y115897I7414J3663*
G01*
X320798Y120240D01*
G74*
D01*
G03X319093Y124346I5798J1*
G01*
X279880Y163560D01*
G75*
D01*
G03X268099Y183326I-7161J9126*
G01*
G75*
D01*
G03X263844Y192322I-8099J1674*
G01*
X424318Y192322D01*
X431082Y185558D01*
X431082Y182632D01*
G75*
D01*
G03X419318Y162637I-5882J-9998*
G01*
X419318Y160818D01*
X417319Y158818D01*
X415370Y158818D01*
G75*
D01*
G03X411542Y154990I0J-3828*
G01*
X411542Y145490D01*
G75*
D01*
G03X413347Y142240I3828J0*
G01*
G74*
D01*
G03X411542Y138990I2023J3250*
G01*
X411542Y129490D01*
G75*
D01*
G03X415370Y125662I3828J0*
G01*
X425370Y125662D01*
G74*
D01*
G03X429052Y128442I0J3828*
G01*
X429360Y128442D01*
G74*
D01*
G03X431127Y125730I3789J537*
G01*
G74*
D01*
G03X429322Y122480I2023J3250*
G01*
X429322Y120772D01*
X435108Y120772D01*
X435108Y125152D01*
X441192Y125152D01*
X441192Y120772D01*
X446978Y120772D01*
X446978Y122480D01*
G74*
D01*
G03X446445Y124430I3828J2*
G01*
X451840Y124430D01*
X451840Y127542D01*
X456860Y127542D01*
X456860Y124430D01*
X463017Y124430D01*
X463017Y119410D01*
X456860Y119410D01*
X456860Y111730D01*
X463017Y111730D01*
X463017Y106710D01*
X456860Y106710D01*
X456860Y99030D01*
X463017Y99030D01*
X463017Y94010D01*
X456860Y94010D01*
X456860Y89442D01*
X460350Y89442D01*
G74*
D01*
G03X463245Y90765I0J3828*
G01*
G75*
D01*
G03X466850Y88237I3604J1305*
G01*
X483540Y88237D01*
X483540Y81586D01*
G75*
D01*
G03X478384Y64887I-8289J-6586*
G01*
X476172Y62674D01*
X476172Y62674D01*
X474013Y60516D01*
G74*
D01*
G03X466391Y55798I1238J10515*
G01*
X445614Y55798D01*
G74*
D01*
G03X443190Y56866I2424J2217*
G01*
X438190Y56866D01*
G75*
D01*
G03X434904Y53580I0J-3286*
G01*
X434904Y45080D01*
G75*
D01*
G03X438190Y41794I3286J0*
G01*
X443190Y41794D01*
G74*
D01*
G03X446356Y44202I1J3286*
G01*
X466391Y44202D01*
G75*
D01*
G03X485766Y48763I8860J5795*
G01*
X497718Y60716D01*
G75*
D01*
G03X500160Y66600I-5867J5884*
G01*
X500160Y88237D01*
X516850Y88237D01*
G75*
D01*
G03X520683Y92070I0J3833*
G01*
X520683Y99070D01*
G74*
D01*
G03X518998Y102245I3833J0*
G01*
G75*
D01*
G03X520683Y105420I-2148J3175*
G01*
X520683Y112420D01*
G74*
D01*
G03X519035Y115570I3833J1*
G01*
G75*
D01*
G03X520683Y118720I-2185J3149*
G01*
X520683Y125720D01*
G74*
D01*
G03X518998Y128895I3833J0*
G01*
G75*
D01*
G03X520683Y132070I-2148J3175*
G01*
X520683Y139070D01*
G74*
D01*
G03X516850Y142903I3833J0*
G01*
X504873Y142903D01*
X506800Y144830D01*
X520071Y144830D01*
X525062Y139838D01*
X525062Y114308D01*
G75*
D01*
G03X526760Y110200I5798J-8*
G01*
X539460Y97500D01*
G75*
D01*
G03X543566Y95802I4100J4100*
G01*
X563880Y95802D01*
G74*
D01*
G03X567986Y97507I1J5798*
G01*
X582573Y112094D01*
G75*
D01*
G03X577446Y123365I2427J7906*
G01*
X561478Y107398D01*
X545962Y107398D01*
X536658Y116702D01*
X536658Y142240D01*
G74*
D01*
G03X534953Y146346I5798J1*
G01*
X527813Y153486D01*
G74*
D01*
G03X524200Y157023I5843J2355*
G01*
G75*
D01*
G03X517817Y157430I-3499J-4623*
G01*
X504190Y157430D01*
G75*
D01*
G03X502238Y157120I0J-6300*
G01*
G74*
D01*
G03X499735Y155585I1951J5990*
G01*
X496765Y152615D01*
X496095Y152615D01*
X504382Y160902D01*
X539618Y160902D01*
X539618Y122952D01*
G75*
D01*
G03X566286Y122952I13334J0*
G01*
X566286Y202566D01*
X604100Y202566D01*
G74*
D01*
G03X610871Y204413I0J13334*
G01*
G74*
D01*
G03X615587Y209129I3226J7942*
G01*
G75*
D01*
G03X604100Y229234I-11487J6771*
G01*
X566286Y229234D01*
X566286Y263868D01*
G74*
D01*
G03X566070Y266258I13334J0*
G01*
G75*
D01*
G03X552837Y284821I-16069J2543*
G01*
X487878Y349779D01*
G74*
D01*
G03X478440Y353694I9438J9418*
G01*
X41358Y353694D01*
X41358Y390016D01*
G75*
D01*
G03X41358Y412552I2755J11268*
G01*
X41358Y452120D01*
G74*
D01*
G03X35560Y457918I5798J0*
G01*
X5080Y457918D01*
G75*
D01*
G03X3828Y457781I1J-5798*
G01*
X3828Y604495D01*
G74*
D01*
G03X7067Y602267I6172J5504*
G01*
X7067Y607067D01*
X3828Y607067D01*
X3828Y612933D01*
X7067Y612933D01*
X7067Y616172D01*
X12933Y616172D01*
X12933Y612933D01*
X17733Y612933D01*
G74*
D01*
G03X15505Y616172I7732J2933*
G01*
X472267Y262933D02*
X477067Y262933D01*
X477067Y267733D01*
G74*
D01*
G03X472267Y262933I2933J7733*
G01*
X472267Y257067D02*
G74*
D01*
G03X477067Y252267I7733J2933*
G01*
X477067Y257067D01*
X472267Y257067D01*
X476172Y167716D02*
G75*
D01*
G03X476172Y167716I-256J4968*
G01*
X282733Y237067D02*
X277933Y237067D01*
X277933Y232267D01*
G74*
D01*
G03X282733Y237067I2933J7733*
G01*
X357267Y237067D02*
G74*
D01*
G03X362067Y232267I7733J2933*
G01*
X362067Y237067D01*
X357267Y237067D01*
X372733Y237067D02*
X367933Y237067D01*
X367933Y232267D01*
G74*
D01*
G03X372733Y237067I2933J7733*
G01*
X267267Y237067D02*
G74*
D01*
G03X272067Y232267I7733J2933*
G01*
X272067Y237067D01*
X267267Y237067D01*
X472267Y312933D02*
X477067Y312933D01*
X477067Y317733D01*
G74*
D01*
G03X472267Y312933I2933J7733*
G01*
X472267Y307067D02*
G74*
D01*
G03X477067Y302267I7733J2933*
G01*
X477067Y307067D01*
X472267Y307067D01*
X203200Y323828D02*
G75*
D01*
G03X199372Y320000I0J-3828*
G01*
X199372Y300000D01*
G75*
D01*
G03X203200Y296172I3828J0*
G01*
X467360Y296172D01*
G75*
D01*
G03X471188Y300000I0J3828*
G01*
X471188Y320000D01*
G74*
D01*
G03X467360Y323828I3828J0*
G01*
X203200Y323828D01*
X182880Y232392D02*
G75*
D01*
G03X186708Y236220I0J3828*
G01*
X186708Y320040D01*
G74*
D01*
G03X182880Y323868I3828J0*
G01*
X149860Y323868D01*
G75*
D01*
G03X146075Y320612I0J-3828*
G01*
G74*
D01*
G03X142933Y322733I6075J5611*
G01*
X142933Y317933D01*
X146032Y317933D01*
X146032Y312067D01*
X142933Y312067D01*
X142933Y307267D01*
G74*
D01*
G03X146032Y309342I2933J7732*
G01*
X146032Y290658D01*
G74*
D01*
G03X142933Y292733I6032J5657*
G01*
X142933Y287933D01*
X146032Y287933D01*
X146032Y282067D01*
X142933Y282067D01*
X142933Y277267D01*
G74*
D01*
G03X146032Y279342I2933J7732*
G01*
X146032Y250658D01*
G74*
D01*
G03X142933Y252733I6032J5657*
G01*
X142933Y247933D01*
X146032Y247933D01*
X146032Y242067D01*
X142933Y242067D01*
X142933Y237267D01*
G74*
D01*
G03X146032Y239342I2933J7732*
G01*
X146032Y236220D01*
G75*
D01*
G03X149860Y232392I3828J0*
G01*
X182880Y232392D01*
X197067Y232267D02*
X197067Y237067D01*
X192267Y237067D01*
G74*
D01*
G03X197067Y232267I7733J2933*
G01*
X202933Y232267D02*
G74*
D01*
G03X207733Y237067I2933J7733*
G01*
X202933Y237067D01*
X202933Y232267D01*
X477000Y260000D02*
G75*
D01*
G03X477000Y260000I3000J0*
G01*
X487733Y257067D02*
X482933Y257067D01*
X482933Y252267D01*
G74*
D01*
G03X487733Y257067I2933J7733*
G01*
X482933Y267733D02*
X482933Y262933D01*
X487733Y262933D01*
G74*
D01*
G03X482933Y267733I7733J2933*
G01*
X471938Y183797D02*
G74*
D01*
G03X464803Y176662I1333J8468*
G01*
X471938Y176662D01*
X471938Y183797D01*
X464803Y168706D02*
G74*
D01*
G03X471938Y161571I8468J1333*
G01*
X471938Y168706D01*
X464803Y168706D01*
X479894Y161571D02*
G74*
D01*
G03X487029Y168706I1333J8468*
G01*
X479894Y168706D01*
X479894Y161571D01*
X487029Y176662D02*
G74*
D01*
G03X479894Y183797I8468J1333*
G01*
X479894Y176662D01*
X487029Y176662D01*
X527267Y197933D02*
X532067Y197933D01*
X532067Y202733D01*
G74*
D01*
G03X527267Y197933I2933J7733*
G01*
X532067Y187267D02*
X532067Y192067D01*
X527267Y192067D01*
G74*
D01*
G03X532067Y187267I7733J2933*
G01*
X532000Y195000D02*
G75*
D01*
G03X532000Y195000I3000J0*
G01*
X477000Y310000D02*
G75*
D01*
G03X477000Y310000I3000J0*
G01*
X487733Y307067D02*
X482933Y307067D01*
X482933Y302267D01*
G74*
D01*
G03X487733Y307067I2933J7733*
G01*
X362000Y240000D02*
G75*
D01*
G03X362000Y240000I3000J0*
G01*
X272000Y240000D02*
G75*
D01*
G03X272000Y240000I3000J0*
G01*
X372267Y287933D02*
X377067Y287933D01*
X377067Y292733D01*
G74*
D01*
G03X372267Y287933I2933J7733*
G01*
X377000Y285000D02*
G75*
D01*
G03X377000Y285000I3000J0*
G01*
X382933Y292733D02*
X382933Y287933D01*
X387733Y287933D01*
G74*
D01*
G03X382933Y292733I7733J2933*
G01*
X137000Y285000D02*
G75*
D01*
G03X137000Y285000I3000J0*
G01*
X137000Y245000D02*
G75*
D01*
G03X137000Y245000I3000J0*
G01*
X137000Y315000D02*
G75*
D01*
G03X137000Y315000I3000J0*
G01*
X132267Y287933D02*
X137067Y287933D01*
X137067Y292733D01*
G74*
D01*
G03X132267Y287933I2933J7733*
G01*
X137067Y277267D02*
X137067Y282067D01*
X132267Y282067D01*
G74*
D01*
G03X137067Y277267I7733J2933*
G01*
X132267Y247933D02*
X137067Y247933D01*
X137067Y252733D01*
G74*
D01*
G03X132267Y247933I2933J7733*
G01*
X137067Y237267D02*
X137067Y242067D01*
X132267Y242067D01*
G74*
D01*
G03X137067Y237267I7733J2933*
G01*
X137067Y307267D02*
X137067Y312067D01*
X132267Y312067D01*
G74*
D01*
G03X137067Y307267I7733J2933*
G01*
X132267Y317933D02*
X137067Y317933D01*
X137067Y322733D01*
G74*
D01*
G03X132267Y317933I2933J7733*
G01*
X22933Y322733D02*
X22933Y317933D01*
X27733Y317933D01*
G74*
D01*
G03X22933Y322733I7733J2933*
G01*
X17067Y307267D02*
X17067Y312067D01*
X12267Y312067D01*
G74*
D01*
G03X17067Y307267I7733J2933*
G01*
X12267Y317933D02*
X17067Y317933D01*
X17067Y322733D01*
G74*
D01*
G03X12267Y317933I2933J7733*
G01*
X17000Y315000D02*
G75*
D01*
G03X17000Y315000I3000J0*
G01*
X27733Y312067D02*
X22933Y312067D01*
X22933Y307267D01*
G74*
D01*
G03X27733Y312067I2933J7733*
G01*
X192267Y242933D02*
X197067Y242933D01*
X197067Y247733D01*
G74*
D01*
G03X192267Y242933I2933J7733*
G01*
X197000Y240000D02*
G75*
D01*
G03X197000Y240000I3000J0*
G01*
X113390Y24750D02*
G75*
D01*
G03X113390Y24750I10810J0*
G01*
X7116Y172684D02*
G75*
D01*
G03X7116Y172684I11600J0*
G01*
X193120Y86292D02*
X195078Y86292D01*
X195078Y91828D01*
X189292Y91828D01*
X189292Y90120D01*
G75*
D01*
G03X193120Y86292I3828J0*
G01*
X208359Y105072D02*
G75*
D01*
G03X220798Y115897I6634J4936*
G01*
X220798Y156718D01*
X225851Y161772D01*
G75*
D01*
G03X212974Y165294I-3936J10911*
G01*
X210900Y163220D01*
G75*
D01*
G03X209202Y159107I4100J-4100*
G01*
X209202Y116668D01*
X206802Y116668D01*
G74*
D01*
G03X203120Y119448I3682J1048*
G01*
X193120Y119448D01*
G75*
D01*
G03X189292Y115620I0J-3828*
G01*
X189292Y106120D01*
G75*
D01*
G03X191097Y102870I3828J0*
G01*
G74*
D01*
G03X189292Y99620I2023J3250*
G01*
X189292Y97912D01*
X195078Y97912D01*
X195078Y102292D01*
X201162Y102292D01*
X201162Y97912D01*
X206948Y97912D01*
X206948Y99620D01*
G74*
D01*
G03X205143Y102870I3828J0*
G01*
G74*
D01*
G03X206802Y105072I2023J3250*
G01*
X208359Y105072D01*
X152480Y83752D02*
X154438Y83752D01*
X154438Y89288D01*
X148652Y89288D01*
X148652Y87580D01*
G75*
D01*
G03X152480Y83752I3828J0*
G01*
X114380Y85022D02*
X116338Y85022D01*
X116338Y90558D01*
X110552Y90558D01*
X110552Y88850D01*
G75*
D01*
G03X114380Y85022I3828J0*
G01*
X30202Y127500D02*
G75*
D01*
G03X30202Y127500I10048J0*
G01*
X129525Y103802D02*
G75*
D01*
G03X140798Y115897I5502J6173*
G01*
X140798Y124978D01*
X175209Y159390D01*
G74*
D01*
G03X176844Y162596I4092J4107*
G01*
G75*
D01*
G03X163423Y164002I-5727J10087*
G01*
X130900Y131480D01*
G75*
D01*
G03X129202Y127369I4100J-4100*
G01*
X129202Y115897D01*
G74*
D01*
G03X128735Y115398I5799J5895*
G01*
X128062Y115398D01*
G74*
D01*
G03X124380Y118178I3682J1048*
G01*
X114380Y118178D01*
G75*
D01*
G03X110552Y114350I0J-3828*
G01*
X110552Y104850D01*
G75*
D01*
G03X112357Y101600I3828J0*
G01*
G74*
D01*
G03X110552Y98350I2023J3250*
G01*
X110552Y96642D01*
X116338Y96642D01*
X116338Y101022D01*
X122422Y101022D01*
X122422Y96642D01*
X128208Y96642D01*
X128208Y98350D01*
G74*
D01*
G03X126403Y101600I3828J0*
G01*
G74*
D01*
G03X128062Y103802I2023J3250*
G01*
X129525Y103802D01*
X134116Y172684D02*
G75*
D01*
G03X134116Y172684I11600J0*
G01*
X148652Y97080D02*
X148652Y95372D01*
X154438Y95372D01*
X154438Y99752D01*
X160522Y99752D01*
X160522Y95372D01*
X166308Y95372D01*
X166308Y97080D01*
G74*
D01*
G03X164503Y100330I3828J0*
G01*
G74*
D01*
G03X166162Y102532I2023J3250*
G01*
X171447Y102532D01*
G75*
D01*
G03X180798Y115897I3553J7468*
G01*
X180798Y126878D01*
X200609Y146690D01*
G74*
D01*
G03X202314Y150796I4092J4106*
G01*
X202314Y162637D01*
G75*
D01*
G03X190718Y162637I-5798J10046*
G01*
X190718Y153198D01*
X170900Y133380D01*
G75*
D01*
G03X169202Y129269I4100J-4100*
G01*
X169202Y115897D01*
G74*
D01*
G03X167834Y114128I5797J5897*
G01*
X166162Y114128D01*
G74*
D01*
G03X162480Y116908I3682J1048*
G01*
X152480Y116908D01*
G75*
D01*
G03X148652Y113080I0J-3828*
G01*
X148652Y103580D01*
G75*
D01*
G03X150457Y100330I3828J0*
G01*
G74*
D01*
G03X148652Y97080I2023J3250*
G01*
X43813Y111895D02*
X43813Y106063D01*
X49645Y106063D01*
G74*
D01*
G03X43813Y111895I9394J3562*
G01*
X30855Y106063D02*
X36687Y106063D01*
X36687Y111895D01*
G74*
D01*
G03X30855Y106063I3562J9394*
G01*
X49645Y98937D02*
X43813Y98937D01*
X43813Y93105D01*
G74*
D01*
G03X49645Y98937I3562J9394*
G01*
X36687Y93105D02*
X36687Y98937D01*
X30855Y98937D01*
G74*
D01*
G03X36687Y93105I9394J3562*
G01*
X35250Y102500D02*
G75*
D01*
G03X35250Y102500I5000J0*
G01*
X203120Y86292D02*
G75*
D01*
G03X206948Y90120I0J3828*
G01*
X206948Y91828D01*
X201162Y91828D01*
X201162Y86292D01*
X203120Y86292D01*
X202267Y82933D02*
X207067Y82933D01*
X207067Y87733D01*
G74*
D01*
G03X202267Y82933I2933J7733*
G01*
X212933Y87733D02*
X212933Y82933D01*
X217733Y82933D01*
G74*
D01*
G03X212933Y87733I7733J2933*
G01*
X217733Y77067D02*
X212933Y77067D01*
X212933Y72267D01*
G74*
D01*
G03X217733Y77067I2933J7733*
G01*
X207067Y72267D02*
X207067Y77067D01*
X202267Y77067D01*
G74*
D01*
G03X207067Y72267I7733J2933*
G01*
X207000Y80000D02*
G75*
D01*
G03X207000Y80000I3000J0*
G01*
X166304Y87398D02*
G75*
D01*
G03X166308Y87580I-3824J175*
G01*
X166308Y89288D01*
X160522Y89288D01*
X160522Y83752D01*
X162480Y83752D01*
G74*
D01*
G03X162631Y83755I1J3828*
G01*
G74*
D01*
G03X162267Y82933I7369J3755*
G01*
X167067Y82933D01*
X167067Y87733D01*
G74*
D01*
G03X166304Y87398I2939J7730*
G01*
X172933Y87733D02*
X172933Y82933D01*
X177733Y82933D01*
G74*
D01*
G03X172933Y87733I7733J2933*
G01*
X177733Y77067D02*
X172933Y77067D01*
X172933Y72267D01*
G74*
D01*
G03X177733Y77067I2933J7733*
G01*
X167067Y72267D02*
X167067Y77067D01*
X162267Y77067D01*
G74*
D01*
G03X167067Y72267I7733J2933*
G01*
X167000Y80000D02*
G75*
D01*
G03X167000Y80000I3000J0*
G01*
X123429Y85022D02*
G74*
D01*
G03X122267Y82933I6570J5022*
G01*
X127067Y82933D01*
X127067Y86123D01*
G75*
D01*
G03X128208Y88850I-2687J2726*
G01*
X128208Y90558D01*
X122422Y90558D01*
X122422Y85022D01*
X123429Y85022D01*
X132933Y87733D02*
X132933Y82933D01*
X137733Y82933D01*
G74*
D01*
G03X132933Y87733I7733J2933*
G01*
X137733Y77067D02*
X132933Y77067D01*
X132933Y72267D01*
G74*
D01*
G03X137733Y77067I2933J7733*
G01*
X127067Y72267D02*
X127067Y77067D01*
X122267Y77067D01*
G74*
D01*
G03X127067Y72267I7733J2933*
G01*
X127000Y80000D02*
G75*
D01*
G03X127000Y80000I3000J0*
G01*
X204233Y34858D02*
X204233Y28583D01*
X210508Y28583D01*
G74*
D01*
G03X204233Y34858I10108J3833*
G01*
X190292Y28583D02*
X196567Y28583D01*
X196567Y34858D01*
G74*
D01*
G03X190292Y28583I3833J10108*
G01*
X210508Y20917D02*
X204233Y20917D01*
X204233Y14642D01*
G74*
D01*
G03X210508Y20917I3833J10108*
G01*
X196567Y14642D02*
X196567Y20917D01*
X190292Y20917D01*
G74*
D01*
G03X196567Y14642I10108J3833*
G01*
X195400Y24750D02*
G75*
D01*
G03X195400Y24750I5000J0*
G01*
X164190Y24750D02*
G75*
D01*
G03X164190Y24750I10810J0*
G01*
X138790Y24750D02*
G75*
D01*
G03X138790Y24750I10810J0*
G01*
X15190Y35000D02*
G75*
D01*
G03X15190Y35000I19810J0*
G01*
X234420Y11568D02*
X246442Y11568D01*
X246442Y11380D01*
G75*
D01*
G03X246475Y10878I3828J0*
G01*
X121782Y10878D01*
X111208Y21452D01*
X111208Y52070D01*
G74*
D01*
G03X109503Y56176I5798J1*
G01*
X100714Y64966D01*
X100714Y162637D01*
G75*
D01*
G03X89118Y162637I-5798J10046*
G01*
X89118Y62567D01*
G75*
D01*
G03X90816Y58464I5798J-3*
G01*
X99612Y49668D01*
X99612Y19060D01*
G75*
D01*
G03X101310Y14950I5798J-10*
G01*
X112432Y3828D01*
X3828Y3828D01*
X3828Y327079D01*
G75*
D01*
G03X5080Y326942I1253J5660*
G01*
X35560Y326942D01*
G74*
D01*
G03X36542Y327026I1J5798*
G01*
X472917Y327026D01*
X476172Y323771D01*
X482933Y317010D01*
X482933Y312933D01*
X487010Y312933D01*
X533979Y265963D01*
G74*
D01*
G03X539618Y256273I16021J2837*
G01*
X539618Y217771D01*
G75*
D01*
G03X539618Y214029I13201J-1871*
G01*
X539618Y201861D01*
G74*
D01*
G03X537933Y202733I4618J6860*
G01*
X537933Y197933D01*
X539618Y197933D01*
X539618Y192067D01*
X537933Y192067D01*
X537933Y187267D01*
G74*
D01*
G03X539618Y188139I2933J7732*
G01*
X539618Y172498D01*
X501982Y172498D01*
G75*
D01*
G03X497880Y170800I-2J-5798*
G01*
X487878Y160798D01*
X455897Y160798D01*
G74*
D01*
G03X454644Y161843I5897J5797*
G01*
G75*
D01*
G03X442892Y181427I-4129J10840*
G01*
G74*
D01*
G03X442678Y181816I4742J2355*
G01*
X442678Y187960D01*
G74*
D01*
G03X440973Y192066I5798J1*
G01*
X433069Y199970D01*
X467360Y199970D01*
G74*
D01*
G03X473244Y202412I0J8310*
G01*
X476172Y205339D01*
X507004Y236172D01*
X521488Y250656D01*
G75*
D01*
G03X523930Y256540I-5867J5884*
G01*
X523930Y271780D01*
G75*
D01*
G03X515510Y280089I-8310J0*
G01*
X507026Y288573D01*
G74*
D01*
G03X507013Y288586I4106J4093*
G01*
X506500Y289100D01*
G75*
D01*
G03X500000Y290278I-4100J-4100*
G01*
X393700Y290278D01*
G75*
D01*
G03X391564Y289870I1J-5798*
G01*
G74*
D01*
G03X389600Y288580I2134J5390*
G01*
X383088Y282067D01*
X382933Y282067D01*
X382933Y281912D01*
X381404Y280383D01*
X377067Y280383D01*
X377067Y282067D01*
X372267Y282067D01*
G74*
D01*
G03X373139Y280383I7731J2936*
G01*
X302816Y280383D01*
X298270Y284930D01*
G75*
D01*
G03X290070Y276730I-8270J70*
G01*
X292972Y273828D01*
X203200Y273828D01*
G75*
D01*
G03X199372Y270000I0J-3828*
G01*
X199372Y250000D01*
G75*
D01*
G03X202933Y246181I3828J0*
G01*
X202933Y242933D01*
X207733Y242933D01*
G74*
D01*
G03X205505Y246172I7732J2933*
G01*
X269495Y246172D01*
G74*
D01*
G03X267267Y242933I5504J6172*
G01*
X272067Y242933D01*
X272067Y246172D01*
X277933Y246172D01*
X277933Y242933D01*
X282733Y242933D01*
G74*
D01*
G03X280505Y246172I7732J2933*
G01*
X359495Y246172D01*
G74*
D01*
G03X357267Y242933I5504J6172*
G01*
X362067Y242933D01*
X362067Y246172D01*
X367933Y246172D01*
X367933Y242933D01*
X372733Y242933D01*
G74*
D01*
G03X370505Y246172I7732J2933*
G01*
X467360Y246172D01*
G75*
D01*
G03X471188Y250000I0J3828*
G01*
X471188Y270000D01*
G74*
D01*
G03X467360Y273828I3828J0*
G01*
X391248Y273828D01*
X396102Y278682D01*
X500518Y278682D01*
X507022Y272178D01*
G75*
D01*
G03X507310Y266958I7977J-2178*
G01*
X507310Y259982D01*
X483499Y236172D01*
X483499Y236172D01*
X476172Y228844D01*
X463918Y216590D01*
X267534Y216590D01*
G75*
D01*
G03X252466Y216590I-7534J3408*
G01*
X71130Y216590D01*
G75*
D01*
G03X65244Y214156I-10J-8310*
G01*
X51274Y200186D01*
G75*
D01*
G03X48840Y194298I5875J-5876*
G01*
X48840Y189230D01*
G75*
D01*
G03X51855Y182826I8310J1*
G01*
X51855Y181326D01*
G75*
D01*
G03X51855Y164042I-7738J-8642*
G01*
X51855Y152648D01*
G75*
D01*
G03X62946Y147292I3146J-7647*
G01*
G74*
D01*
G03X62445Y149511I5795J142*
G01*
X62445Y163488D01*
G75*
D01*
G03X62445Y181880I7071J9196*
G01*
X62445Y182826D01*
G75*
D01*
G03X65460Y189230I-5294J6404*
G01*
X65460Y190868D01*
X74562Y199970D01*
X130810Y199970D01*
X116216Y185376D01*
G74*
D01*
G03X114737Y182855I4100J4100*
G01*
G75*
D01*
G03X128320Y181080I5578J-10171*
G01*
X139562Y192322D01*
X256156Y192322D01*
G75*
D01*
G03X251898Y183341I3843J-7322*
G01*
G75*
D01*
G03X241902Y162425I-4584J-10656*
G01*
X241902Y139622D01*
X234400Y132120D01*
G75*
D01*
G03X232702Y128010I4100J-4100*
G01*
X232702Y39852D01*
X228152Y35301D01*
G75*
D01*
G03X229504Y14594I-2348J-10551*
G01*
X231194Y12904D01*
G74*
D01*
G03X234278Y11570I3226J3226*
G01*
G75*
D01*
G03X234420Y11568I135J4560*
G01*
X235956Y21046D02*
X236172Y20830D01*
X236172Y20830D01*
X236310Y20692D01*
X246442Y20692D01*
X246442Y20880D01*
G74*
D01*
G02X248247Y24130I3828J0*
G01*
G75*
D01*
G02X246442Y27380I2023J3250*
G01*
X246442Y36880D01*
G74*
D01*
G02X249975Y40697I3828J0*
G01*
X249975Y52062D01*
G75*
D01*
G02X251526Y55814I5295J8*
G01*
X255207Y59496D01*
X255207Y164181D01*
G74*
D01*
G02X253498Y162868I7891J8502*
G01*
X253498Y137220D01*
G75*
D01*
G02X251793Y133114I-5798J1*
G01*
X244298Y125618D01*
X244298Y37450D01*
G75*
D01*
G02X242593Y33344I-5798J1*
G01*
X236351Y27102D01*
G75*
D01*
G02X235956Y21046I-10550J-2353*
G01*
X265525Y10878D02*
X264065Y10878D01*
G75*
D01*
G03X264098Y11380I-3795J502*
G01*
X264098Y20880D01*
G74*
D01*
G03X262293Y24130I3828J0*
G01*
G74*
D01*
G03X264098Y27337I2023J3250*
G01*
X265492Y27337D01*
G74*
D01*
G03X267297Y24130I3828J43*
G01*
G74*
D01*
G03X265492Y20880I2023J3250*
G01*
X265492Y11380D01*
G75*
D01*
G03X265525Y10878I3828J0*
G01*
X646172Y4495D02*
G74*
D01*
G02X645505Y3828I6172J5505*
G01*
X646172Y3828D01*
X646172Y4495D01*
X462597Y102870D02*
G74*
D01*
G03X463017Y103223I2247J3099*
G01*
X463017Y102517D01*
G74*
D01*
G03X462597Y102870I2667J2746*
G01*
X462597Y115570D02*
G74*
D01*
G03X463017Y115923I2247J3099*
G01*
X463017Y115217D01*
G74*
D01*
G03X462597Y115570I2667J2746*
G01*
X427393Y142240D02*
G75*
D01*
G03X429198Y145490I-2023J3250*
G01*
X429198Y154299D01*
X429216Y154316D01*
X429216Y154316D01*
G74*
D01*
G03X430914Y158416I4100J4100*
G01*
X430914Y162637D01*
G74*
D01*
G03X432855Y164042I5794J10048*
G01*
X432855Y146929D01*
G75*
D01*
G03X435562Y142308I5295J-2*
G01*
X433150Y142308D01*
G75*
D01*
G03X429653Y140038I0J-3828*
G01*
X429052Y140038D01*
G74*
D01*
G03X427393Y142240I3682J1048*
G01*
X446565Y141257D02*
G74*
D01*
G03X446075Y140950I1782J3388*
G01*
G74*
D01*
G03X445785Y141257I2924J2471*
G01*
X446565Y141257D01*
X462597Y128270D02*
G74*
D01*
G03X463017Y128623I2247J3099*
G01*
X463017Y127917D01*
G74*
D01*
G03X462597Y128270I2667J2746*
G01*
X462806Y140807D02*
G74*
D01*
G03X463407Y140756I747J5242*
G01*
G74*
D01*
G03X463245Y140375I3441J1688*
G01*
G74*
D01*
G03X462806Y140807I2896J2504*
G01*
X443445Y160043D02*
X443445Y163488D01*
G74*
D01*
G03X445763Y162102I7072J9195*
G01*
G74*
D01*
G03X443445Y160043I4235J7102*
G01*
X3828Y615505D02*
X3828Y616172D01*
X4495Y616172D01*
G74*
D01*
G03X3828Y615505I5505J6172*
G01*
X645505Y616172D02*
G74*
D01*
G02X646172Y615505I5505J6172*
G01*
X646172Y616172D01*
X645505Y616172D01*
X274320Y16130D02*
X274320Y5080D01*
X255270Y16130D02*
X234420Y16130D01*
X225800Y24750D01*
X260000Y220000D02*
X260000Y209200D01*
G54D12*
X486300Y20809D02*
X479441Y20809D01*
X479441Y13950D01*
G74*
D01*
G03X486300Y20809I4191J11050*
G01*
X471059Y13950D02*
X471059Y20809D01*
X464200Y20809D01*
G74*
D01*
G03X471059Y13950I11050J4191*
G01*
X470250Y25000D02*
G75*
D01*
G03X470250Y25000I5000J0*
G01*
X579120Y17462D02*
G75*
D01*
G03X576883Y5064I5880J-7462*
G01*
X457200Y5064D01*
X457200Y33020D01*
X466570Y33020D01*
G74*
D01*
G03X464200Y29191I8679J8020*
G01*
X471059Y29191D01*
X471059Y33020D01*
X479441Y33020D01*
X479441Y29191D01*
X486300Y29191D01*
G74*
D01*
G03X483930Y33020I11050J4191*
G01*
X505460Y33020D01*
X505460Y20320D01*
X529398Y20320D01*
G75*
D01*
G03X551102Y20320I10852J4680*
G01*
X563880Y20320D01*
X563880Y45720D01*
X579120Y45720D01*
X579120Y17462D01*
X22500Y450831D02*
G74*
D01*
G02X23711Y452120I7499J5832*
G01*
X21289Y452120D01*
G74*
D01*
G02X22500Y450831I6287J7120*
G01*
X11117Y353369D02*
X16631Y353369D01*
X16631Y358883D01*
G74*
D01*
G03X11117Y353369I3369J8883*
G01*
X23369Y358883D02*
X23369Y353369D01*
X28883Y353369D01*
G74*
D01*
G03X23369Y358883I8883J3369*
G01*
X26803Y343369D02*
X31631Y343369D01*
X31631Y348883D01*
G74*
D01*
G03X28197Y346631I3370J8882*
G01*
X23369Y346631D01*
X23369Y341117D01*
G74*
D01*
G03X26803Y343369I3370J8882*
G01*
X16631Y341117D02*
X16631Y346631D01*
X11117Y346631D01*
G74*
D01*
G03X16631Y341117I8883J3369*
G01*
X17000Y350000D02*
G75*
D01*
G03X17000Y350000I3000J0*
G01*
X11631Y436117D02*
X11631Y441631D01*
X6117Y441631D01*
G74*
D01*
G03X11631Y436117I8883J3369*
G01*
X12000Y445000D02*
G75*
D01*
G03X12000Y445000I3000J0*
G01*
X26631Y436117D02*
X26631Y441631D01*
X18369Y441631D01*
X18369Y436117D01*
G74*
D01*
G03X22500Y439169I3369J8882*
G01*
G74*
D01*
G03X26631Y436117I7500J5830*
G01*
X27000Y445000D02*
G75*
D01*
G03X27000Y445000I3000J0*
G01*
X6117Y448369D02*
X11631Y448369D01*
X11631Y452120D01*
X18369Y452120D01*
X18369Y448369D01*
X26631Y448369D01*
X26631Y452120D01*
X33369Y452120D01*
X33369Y448369D01*
X35560Y448369D01*
X35560Y441631D01*
X33369Y441631D01*
X33369Y436117D01*
G74*
D01*
G03X35560Y437297I3370J8882*
G01*
X35560Y410845D01*
G74*
D01*
G03X31416Y403107I8556J9561*
G01*
G75*
D01*
G03X31416Y399461I-12700J-1823*
G01*
G74*
D01*
G03X35560Y391723I12700J1823*
G01*
X35560Y342947D01*
G75*
D01*
G03X35560Y337053I-556J-2947*
G01*
X35560Y332740D01*
X31631Y332740D01*
X31631Y336631D01*
X26117Y336631D01*
G74*
D01*
G03X28873Y332740I8882J3370*
G01*
X5080Y332740D01*
X5080Y452120D01*
X8711Y452120D01*
G74*
D01*
G03X6117Y448369I6287J7120*
G01*
X563880Y101600D02*
X584200Y121920D01*
X515620Y271780D02*
X502400Y285000D01*
X299410Y275590D02*
X290000Y285000D01*
X425116Y401284D02*
X425116Y365116D01*
X393700Y284480D02*
X384810Y275590D01*
X502920Y284480D02*
X393700Y284480D01*
X85000Y490000D02*
X390000Y490000D01*
X543560Y101600D02*
X563880Y101600D01*
X530860Y114300D02*
X543560Y101600D01*
X520700Y152400D02*
X530860Y142240D01*
X530860Y114300D01*
X475250Y50000D02*
X441360Y50000D01*
X440690Y24330D02*
X474580Y24330D01*
X390000Y490000D02*
X390000Y460900D01*
X55000Y143180D02*
X55000Y145000D01*
X105410Y52070D02*
X94916Y62564D01*
X94916Y172684D01*
X490280Y155000D02*
X501980Y166700D01*
X547370Y166700D01*
X120316Y172684D02*
X120316Y181276D01*
X436880Y187960D02*
X436880Y180340D01*
X490280Y155000D02*
X450000Y155000D01*
X57150Y147150D02*
X55000Y145000D01*
X105410Y52070D02*
X105410Y19050D01*
X119380Y5080D01*
X386130Y5080D01*
X405800Y24750D01*
X454350Y134620D02*
X438150Y134620D01*
X425116Y158416D02*
X425116Y172684D01*
X119380Y109600D02*
X134600Y109600D01*
X157480Y108330D02*
X173330Y108330D01*
X175000Y110000D01*
X198120Y110870D02*
X214130Y110870D01*
X221916Y172684D02*
X221916Y166036D01*
X215000Y159120D01*
X171116Y163496D02*
X135000Y127380D01*
X135000Y110000D01*
X171116Y172684D02*
X171116Y163496D01*
X196516Y150796D02*
X175000Y129280D01*
X196516Y172684D02*
X196516Y150796D01*
X175000Y129280D02*
X175000Y110000D01*
X215000Y159120D02*
X215000Y110870D01*
X215000Y110000D01*
X238500Y37450D02*
X225800Y24750D01*
X247700Y172300D02*
X247316Y172684D01*
X238500Y128020D02*
X247700Y137220D01*
X238500Y37450D02*
X238500Y128020D01*
X247700Y137220D02*
X247700Y172300D01*
X272716Y162524D02*
X315000Y120240D01*
X272716Y162524D02*
X272716Y172684D01*
X315000Y120240D02*
X315000Y110000D01*
X300656Y172684D02*
X360000Y113340D01*
X300656Y172684D02*
X298116Y172684D01*
X360000Y113340D02*
X360000Y110800D01*
X348916Y166704D02*
X405000Y110620D01*
X348916Y172684D02*
X348916Y166704D01*
X405000Y110620D02*
X405000Y110000D01*
X340360Y112140D02*
X357860Y112140D01*
X360000Y110000D01*
X295910Y112140D02*
X312860Y112140D01*
X315000Y110000D01*
X383540Y112140D02*
X402860Y112140D01*
X405000Y110000D01*
X420370Y153670D02*
X420370Y150240D01*
X420370Y134240D02*
X437640Y134240D01*
X425116Y158416D02*
X420370Y153670D01*
X71120Y596700D02*
X53950Y596700D01*
X71120Y596700D02*
X81280Y586540D01*
X53950Y596700D02*
X52500Y595250D01*
X137160Y198120D02*
X426720Y198120D01*
X120316Y181276D02*
X137160Y198120D01*
X426720Y198120D02*
X436880Y187960D01*
G54D13*
X625250Y147500D02*
X625250Y96930D01*
X552820Y215900D02*
X604100Y215900D01*
X619580Y147500D02*
X604520Y162560D01*
X625250Y96930D02*
X571500Y43180D01*
X571500Y25400D01*
X552952Y122952D02*
X552952Y263868D01*
X604520Y162560D02*
X604520Y177022D01*
X478440Y340360D02*
X550000Y268800D01*
X29640Y340360D02*
X478440Y340360D01*
G54D14*
X515620Y256540D02*
X515620Y271780D01*
X57150Y189230D02*
X57150Y194310D01*
X491850Y115570D02*
X491850Y66600D01*
X475250Y50000D01*
X71120Y208280D02*
X467360Y208280D01*
X57150Y194310D02*
X71120Y208280D01*
X467360Y208280D02*
X515620Y256540D01*
G54D15*
X384810Y275590D02*
X299410Y275590D01*
X439029Y146050D02*
X438150Y146929D01*
X463550Y146050D02*
X439029Y146050D01*
X255270Y32130D02*
X274320Y32130D01*
X260000Y56800D02*
X260000Y185000D01*
G54D16*
X604520Y177022D02*
X631037Y203539D01*
G54D17*
G36*
X466850Y92070D02*
X466850Y92070D01*
X516850Y92070D01*
X516850Y99070D01*
X511850Y99070D01*
X511850Y105420D01*
X516850Y105420D01*
X516850Y112420D01*
X511850Y112420D01*
X511850Y118720D01*
X516850Y118720D01*
X516850Y125720D01*
X511850Y125720D01*
X511850Y132070D01*
X516850Y132070D01*
X516850Y139070D01*
X466850Y139070D01*
X466850Y92070D01*
D02*
G37*
X516850Y92070D01*
X516850Y99070D01*
X511850Y99070D01*
X511850Y105420D01*
X516850Y105420D01*
X516850Y112420D01*
X511850Y112420D01*
X511850Y118720D01*
X516850Y118720D01*
X516850Y125720D01*
X511850Y125720D01*
X511850Y132070D01*
X516850Y132070D01*
X516850Y139070D01*
X466850Y139070D01*
X466850Y92070D01*
G54D18*
X477520Y467360D02*
X477520Y561340D01*
X500380Y147320D02*
X464820Y147320D01*
X438150Y179070D02*
X436880Y180340D01*
X438150Y179070D02*
X438150Y146929D01*
X464820Y147320D02*
X463550Y146050D01*
X57150Y189230D02*
X57150Y147150D01*
X401320Y502920D02*
X401320Y553720D01*
X426720Y477520D02*
X401320Y502920D01*
X401320Y553720D02*
X391160Y563880D01*
X426720Y457200D02*
X426720Y477520D01*
X391160Y563880D02*
X358210Y563880D01*
X347500Y574590D01*
X347500Y584750D01*
X477520Y561340D02*
X477520Y585230D01*
X467500Y595250D01*
X414020Y444500D02*
X426720Y457200D01*
X375920Y431800D02*
X441960Y431800D01*
X348916Y404796D02*
X375920Y431800D01*
X441960Y431800D02*
X477520Y467360D01*
X323516Y401284D02*
X323516Y407336D01*
X551180Y568960D02*
X562500Y580280D01*
X562500Y595250D01*
X533400Y568960D02*
X551180Y568960D01*
X528320Y563880D02*
X533400Y568960D01*
X502920Y462280D02*
X510540Y469900D01*
X459740Y419100D02*
X502920Y462280D01*
X387052Y419100D02*
X459740Y419100D01*
X387052Y419100D02*
X374316Y406364D01*
X374316Y401284D01*
X510540Y482600D02*
X528320Y500380D01*
X528320Y563880D01*
X510540Y469900D02*
X510540Y482600D01*
X324740Y444500D02*
X414020Y444500D01*
X324740Y444500D02*
X323850Y443610D01*
X323516Y401284D02*
X323516Y427276D01*
X255270Y52070D02*
X260000Y56800D01*
X255270Y32130D02*
X255270Y52070D01*
G54D19*
X521970Y151130D02*
X504190Y151130D01*
X500380Y147320D01*
G54D20*
X-2540Y-2540D02*
X-2540Y59968D01*
X-2540Y-2540D02*
X62968Y-2540D01*
X652540Y-2540D02*
X587032Y-2540D01*
X652540Y-2540D02*
X652540Y59968D01*
X652540Y622540D02*
X652540Y560032D01*
X652540Y622540D02*
X587032Y622540D01*
X-2540Y622540D02*
X62968Y622540D01*
X-2540Y622540D02*
X-2540Y560032D01*
X-52540Y-2540D02*
X-152540Y-2540D01*
X-102540Y-52540D02*
X-102540Y47460D01*
X-140040Y-2540D02*
G75*
D01*
G02X-140040Y-2540I37500J0*
G01*
X702540Y-2540D02*
X802540Y-2540D01*
X752540Y-52540D02*
X752540Y47460D01*
X715040Y-2540D02*
G75*
D01*
G02X715040Y-2540I37500J0*
G01*
X740040Y-2540D02*
G75*
D01*
G02X740040Y-2540I12500J0*
G01*
X-52540Y622540D02*
X-152540Y622540D01*
X-102540Y572540D02*
X-102540Y672540D01*
X-140040Y622540D02*
G75*
D01*
G02X-140040Y622540I37500J0*
G01*
X-127540Y622540D02*
G75*
D01*
G02X-127540Y622540I25000J0*
G01*
X-115040Y622540D02*
G75*
D01*
G02X-115040Y622540I12500J0*
G01*
G54D21*
X566316Y513316D03*
X566316Y538716D03*
X236116Y513316D03*
X236116Y538716D03*
X83716Y538716D03*
X159916Y513316D03*
X159916Y538716D03*
X109116Y513316D03*
X109116Y538716D03*
X134516Y513316D03*
X134516Y538716D03*
X185316Y513316D03*
X185316Y538716D03*
X210716Y513316D03*
X210716Y538716D03*
X388516Y513316D03*
X388516Y538716D03*
X312316Y513316D03*
X312316Y538716D03*
X286916Y513316D03*
X286916Y538716D03*
X261516Y513316D03*
X261516Y538716D03*
X363116Y513316D03*
X363116Y538716D03*
X337716Y513316D03*
X337716Y538716D03*
X439316Y513316D03*
X439316Y538716D03*
X413916Y513316D03*
X413916Y538716D03*
X464716Y513316D03*
X464716Y538716D03*
X515516Y513316D03*
X515516Y538716D03*
X490116Y513316D03*
X490116Y538716D03*
X540916Y513316D03*
X540916Y538716D03*
X630400Y215000D03*
X171116Y172684D03*
X323516Y172684D03*
X425116Y172684D03*
X450516Y172684D03*
X348916Y172684D03*
X374316Y172684D03*
X399716Y172684D03*
X247316Y172684D03*
X272716Y172684D03*
X298116Y172684D03*
X196516Y172684D03*
X221916Y172684D03*
X18716Y172684D03*
X94916Y172684D03*
X120316Y172684D03*
X145716Y172684D03*
X44116Y172684D03*
X69516Y172684D03*
X171116Y401284D03*
X323516Y401284D03*
X425116Y401284D03*
X450516Y401284D03*
X348916Y401284D03*
X374316Y401284D03*
X399716Y401284D03*
X247316Y401284D03*
X272716Y401284D03*
X298116Y401284D03*
X196516Y401284D03*
X221916Y401284D03*
X18716Y401284D03*
X94916Y401284D03*
X120316Y401284D03*
X145716Y401284D03*
X44116Y401284D03*
X69516Y401284D03*
G54D22*
X83716Y513316D03*
X605000Y215000D03*
X475916Y172684D03*
X475916Y401284D03*
G54D23*
X81071Y510671D02*
X86361Y510671D01*
X86361Y515961D01*
X81071Y515961D01*
X81071Y510671D01*D02*
X602355Y212355D02*
X607645Y212355D01*
X607645Y217645D01*
X602355Y217645D01*
X602355Y212355D01*D02*
X473271Y170039D02*
X478561Y170039D01*
X478561Y175329D01*
X473271Y175329D01*
X473271Y170039D01*D02*
X473271Y398639D02*
X478561Y398639D01*
X478561Y403929D01*
X473271Y403929D01*
X473271Y398639D01*D02*
G54D24*
X550000Y268800D03*
X550000Y319600D03*
X550000Y370400D03*
X550000Y421200D03*
G54D25*
X480000Y370000D03*
X300000Y475000D03*
X535000Y195000D03*
X290000Y285000D03*
X200000Y240000D03*
X275000Y240000D03*
X140000Y245000D03*
X140000Y315000D03*
X140000Y285000D03*
X380000Y285000D03*
X480000Y260000D03*
X480000Y310000D03*
X550000Y130000D03*
X55000Y145000D03*
X585000Y120000D03*
X555000Y195000D03*
X20000Y350000D03*
X15000Y445000D03*
X30000Y445000D03*
X515000Y270000D03*
X584500Y90200D03*
X640000Y70000D03*
X585000Y10000D03*
X640000Y10000D03*
X640000Y610000D03*
X10000Y610000D03*
X20000Y315000D03*
X140000Y370000D03*
X250000Y370000D03*
X365000Y370000D03*
X365000Y240000D03*
X425000Y365000D03*
X85000Y490000D03*
X105000Y480000D03*
X125000Y500000D03*
X200000Y480000D03*
X225000Y480000D03*
X230000Y420000D03*
X195000Y420000D03*
X170000Y470000D03*
X35000Y340000D03*
X390000Y460000D03*
X450000Y155000D03*
X530000Y485000D03*
X495000Y485000D03*
X440000Y485000D03*
X265000Y45000D03*
X170000Y80000D03*
X135000Y110000D03*
X175000Y110000D03*
X215000Y110000D03*
X130000Y80000D03*
X210000Y80000D03*
X300000Y80000D03*
X345000Y80000D03*
X315000Y110000D03*
X385000Y80000D03*
X360000Y110000D03*
X405000Y110000D03*
X260000Y220000D03*
X260000Y185000D03*
G54D26*
X440690Y24330D03*
X440690Y49330D03*
X81280Y586540D03*
X81280Y561540D03*
G54D27*
X540250Y75000D03*
X540250Y50000D03*
X540250Y25000D03*
X625250Y172500D03*
X625250Y147500D03*
X27500Y595250D03*
X52500Y595250D03*
X442500Y595250D03*
X467500Y595250D03*
X537500Y595250D03*
X562500Y595250D03*
X372500Y584750D03*
X347500Y584750D03*
X475250Y75000D03*
X475250Y50000D03*
X475250Y25000D03*
X160000Y595250D03*
X185000Y595250D03*
X210000Y595250D03*
X40250Y127500D03*
X40250Y102500D03*
G54D28*
X454350Y96520D03*
X454350Y109220D03*
X454350Y121920D03*
X454350Y134620D03*
G54D29*
X119380Y109600D03*
X119380Y93600D03*
X157480Y92330D03*
X157480Y108330D03*
X198120Y94870D03*
X198120Y110870D03*
X438150Y133730D03*
X438150Y117730D03*
X420370Y134240D03*
X420370Y150240D03*
X295910Y112140D03*
X295910Y96140D03*
X383540Y96140D03*
X383540Y112140D03*
X340360Y112140D03*
X340360Y96140D03*
X323850Y443610D03*
X323850Y427610D03*
X274320Y32130D03*
X274320Y16130D03*
X255270Y32130D03*
X255270Y16130D03*
G54D30*
X225800Y24750D03*
X200400Y24750D03*
X175000Y24750D03*
X149600Y24750D03*
X124200Y24750D03*
X405800Y24750D03*
X380400Y24750D03*
X355000Y24750D03*
X329600Y24750D03*
X304200Y24750D03*

M02*
