G04 Generated by Ultiboard 14.0 *
%FSLAX34Y34*%
%MOMM*%

%ADD10C,0.0001*%
%ADD11C,0.0010*%
%ADD12C,0.1270*%
%ADD13R,0.5000X0.8500*%
%ADD14R,1.2000X0.6500*%
%ADD15R,1.0000X0.9500*%


G04 ColorRGB 009966 for the following layer *
%LNPaste Mask Bottom*%
%LPD*%
G54D10*
G54D11*
G36*
X466850Y92070D02*
X466850Y92070D01*
X516850Y92070D01*
X516850Y99070D01*
X511850Y99070D01*
X511850Y105420D01*
X516850Y105420D01*
X516850Y112420D01*
X511850Y112420D01*
X511850Y118720D01*
X516850Y118720D01*
X516850Y125720D01*
X511850Y125720D01*
X511850Y132070D01*
X516850Y132070D01*
X516850Y139070D01*
X466850Y139070D01*
X466850Y92070D01*
D02*
G37*
X516850Y92070D01*
X516850Y99070D01*
X511850Y99070D01*
X511850Y105420D01*
X516850Y105420D01*
X516850Y112420D01*
X511850Y112420D01*
X511850Y118720D01*
X516850Y118720D01*
X516850Y125720D01*
X511850Y125720D01*
X511850Y132070D01*
X516850Y132070D01*
X516850Y139070D01*
X466850Y139070D01*
X466850Y92070D01*
G54D12*
X-2540Y-2540D02*
X-2540Y59968D01*
X-2540Y-2540D02*
X62968Y-2540D01*
X652540Y-2540D02*
X587032Y-2540D01*
X652540Y-2540D02*
X652540Y59968D01*
X652540Y622540D02*
X652540Y560032D01*
X652540Y622540D02*
X587032Y622540D01*
X-2540Y622540D02*
X62968Y622540D01*
X-2540Y622540D02*
X-2540Y560032D01*
X-52540Y-2540D02*
X-152540Y-2540D01*
X-102540Y-52540D02*
X-102540Y47460D01*
X-140040Y-2540D02*
G75*
D01*
G02X-140040Y-2540I37500J0*
G01*
X702540Y-2540D02*
X802540Y-2540D01*
X752540Y-52540D02*
X752540Y47460D01*
X715040Y-2540D02*
G75*
D01*
G02X715040Y-2540I37500J0*
G01*
X740040Y-2540D02*
G75*
D01*
G02X740040Y-2540I12500J0*
G01*
X-52540Y622540D02*
X-152540Y622540D01*
X-102540Y572540D02*
X-102540Y672540D01*
X-140040Y622540D02*
G75*
D01*
G02X-140040Y622540I37500J0*
G01*
X-127540Y622540D02*
G75*
D01*
G02X-127540Y622540I25000J0*
G01*
X-115040Y622540D02*
G75*
D01*
G02X-115040Y622540I12500J0*
G01*
G54D13*
X440690Y24330D03*
X440690Y49330D03*
X81280Y586540D03*
X81280Y561540D03*
G54D14*
X454350Y96520D03*
X454350Y109220D03*
X454350Y121920D03*
X454350Y134620D03*
G54D15*
X119380Y109600D03*
X119380Y93600D03*
X157480Y92330D03*
X157480Y108330D03*
X198120Y94870D03*
X198120Y110870D03*
X438150Y133730D03*
X438150Y117730D03*
X420370Y134240D03*
X420370Y150240D03*
X295910Y112140D03*
X295910Y96140D03*
X383540Y96140D03*
X383540Y112140D03*
X340360Y112140D03*
X340360Y96140D03*
X323850Y443610D03*
X323850Y427610D03*
X274320Y32130D03*
X274320Y16130D03*
X255270Y32130D03*
X255270Y16130D03*

M02*
