G04 Generated by Ultiboard 14.0 *
%FSLAX34Y34*%
%MOMM*%

%ADD11C,3.2000*%
%ADD12C,0.8890*%
%ADD13C,0.9949*%
%ADD14C,1.4000*%
%ADD15C,0.6000*%
%ADD16C,1.0000*%


G04 ColorRGB 000000 for the following layer *
%LNDrill-Copper Top-Copper Bottom*%
%LPD*%
G54D11*
X35000Y35000D03*
X615000Y525000D03*
X35000Y525000D03*
X615000Y35000D03*
G54D12*
X566316Y513316D03*
X566316Y538716D03*
X236116Y513316D03*
X236116Y538716D03*
X83716Y538716D03*
X159916Y513316D03*
X159916Y538716D03*
X109116Y513316D03*
X109116Y538716D03*
X134516Y513316D03*
X134516Y538716D03*
X185316Y513316D03*
X185316Y538716D03*
X210716Y513316D03*
X210716Y538716D03*
X388516Y513316D03*
X388516Y538716D03*
X312316Y513316D03*
X312316Y538716D03*
X286916Y513316D03*
X286916Y538716D03*
X261516Y513316D03*
X261516Y538716D03*
X363116Y513316D03*
X363116Y538716D03*
X337716Y513316D03*
X337716Y538716D03*
X439316Y513316D03*
X439316Y538716D03*
X413916Y513316D03*
X413916Y538716D03*
X464716Y513316D03*
X464716Y538716D03*
X515516Y513316D03*
X515516Y538716D03*
X490116Y513316D03*
X490116Y538716D03*
X540916Y513316D03*
X540916Y538716D03*
X630400Y215000D03*
X171116Y172684D03*
X323516Y172684D03*
X425116Y172684D03*
X450516Y172684D03*
X348916Y172684D03*
X374316Y172684D03*
X399716Y172684D03*
X247316Y172684D03*
X272716Y172684D03*
X298116Y172684D03*
X196516Y172684D03*
X221916Y172684D03*
X18716Y172684D03*
X94916Y172684D03*
X120316Y172684D03*
X145716Y172684D03*
X44116Y172684D03*
X69516Y172684D03*
X171116Y401284D03*
X323516Y401284D03*
X425116Y401284D03*
X450516Y401284D03*
X348916Y401284D03*
X374316Y401284D03*
X399716Y401284D03*
X247316Y401284D03*
X272716Y401284D03*
X298116Y401284D03*
X196516Y401284D03*
X221916Y401284D03*
X18716Y401284D03*
X94916Y401284D03*
X120316Y401284D03*
X145716Y401284D03*
X44116Y401284D03*
X69516Y401284D03*
G54D13*
X83716Y513316D03*
X605000Y215000D03*
X475916Y172684D03*
X475916Y401284D03*
G54D14*
X550000Y268800D03*
X550000Y319600D03*
X550000Y370400D03*
X550000Y421200D03*
G54D15*
X85000Y70000D03*
X480000Y370000D03*
X300000Y475000D03*
X535000Y195000D03*
X290000Y285000D03*
X200000Y240000D03*
X275000Y240000D03*
X140000Y245000D03*
X140000Y315000D03*
X140000Y285000D03*
X380000Y285000D03*
X480000Y260000D03*
X480000Y310000D03*
X550000Y130000D03*
X230000Y100000D03*
X55000Y145000D03*
X585000Y120000D03*
X555000Y195000D03*
X20000Y350000D03*
X15000Y445000D03*
X30000Y445000D03*
X515000Y270000D03*
X584500Y90200D03*
X640000Y70000D03*
X585000Y10000D03*
X640000Y10000D03*
X640000Y610000D03*
X10000Y610000D03*
X20000Y315000D03*
X140000Y370000D03*
X250000Y370000D03*
X365000Y370000D03*
X365000Y240000D03*
X425000Y365000D03*
X390000Y490000D03*
X85000Y490000D03*
X105000Y480000D03*
X335000Y90000D03*
X295000Y90000D03*
X410000Y85000D03*
X410000Y70000D03*
X100000Y90000D03*
X135000Y45000D03*
X160000Y45000D03*
X260000Y90000D03*
X260000Y70000D03*
X398780Y121920D03*
X125000Y500000D03*
X200000Y480000D03*
X225000Y480000D03*
X230000Y420000D03*
X195000Y420000D03*
X170000Y470000D03*
X35000Y340000D03*
G54D16*
X222500Y24750D03*
X197500Y24750D03*
X172500Y24750D03*
X147500Y24750D03*
X122500Y24750D03*
X97500Y24750D03*
X402500Y24750D03*
X377500Y24750D03*
X352500Y24750D03*
X327500Y24750D03*
X302500Y24750D03*
X277500Y24750D03*
X475250Y75000D03*
X475250Y50000D03*
X475250Y25000D03*
X540250Y75000D03*
X540250Y50000D03*
X540250Y25000D03*
X625250Y172500D03*
X625250Y147500D03*
X40250Y127500D03*
X40250Y102500D03*
X160000Y595250D03*
X185000Y595250D03*
X210000Y595250D03*

M02*
