G04 Generated by Ultiboard 14.0 *
%FSLAX34Y34*%
%MOMM*%

%ADD10C,0.0001*%
%ADD11C,0.1556*%
%ADD12C,0.2000*%
%ADD13C,0.2500*%
%ADD14C,0.1500*%
%ADD15C,0.0889*%
%ADD16C,0.2032*%
%ADD17C,0.1000*%
%ADD18C,0.1333*%
%ADD19C,0.0800*%
%ADD20C,0.1270*%


G04 ColorRGB FF14FF for the following layer *
%LNSilkscreen Bottom*%
%LPD*%
G54D10*
G54D11*
X418190Y28866D02*
X418190Y32848D01*
X420190Y34839D01*
X426190Y34839D01*
X428190Y32848D01*
X428190Y28866D01*
X428190Y29861D02*
X418190Y29861D01*
X428190Y43799D02*
X428190Y37826D01*
X424190Y37826D01*
X424190Y41808D01*
X422190Y43799D01*
X420190Y43799D01*
X418190Y41808D01*
X418190Y37826D01*
X495784Y149780D02*
X493793Y147780D01*
X491802Y147780D01*
X489811Y149780D01*
X489811Y155780D01*
X491802Y157780D01*
X493793Y157780D01*
X495784Y155780D01*
X495784Y149780D01*
X491802Y149780D02*
X489811Y147780D01*
X485829Y155780D02*
X483838Y157780D01*
X483838Y147780D01*
X486824Y147780D02*
X480851Y147780D01*
X477864Y155780D02*
X475873Y157780D01*
X473882Y157780D01*
X471891Y155780D01*
X471891Y154780D01*
X477864Y147780D01*
X471891Y147780D01*
X471891Y148780D01*
X74120Y596486D02*
X74120Y600468D01*
X76120Y602459D01*
X82120Y602459D01*
X84120Y600468D01*
X84120Y596486D01*
X84120Y597481D02*
X74120Y597481D01*
X84120Y610423D02*
X84120Y607437D01*
X82120Y605446D01*
X78120Y605446D01*
X76120Y605446D01*
X74120Y607437D01*
X74120Y609428D01*
X76120Y611419D01*
X78120Y611419D01*
X80120Y609428D01*
X80120Y607437D01*
X78120Y605446D01*
G54D12*
X447190Y27830D02*
X447190Y45830D01*
X434190Y27830D02*
X434190Y45830D01*
G36*
X434440Y32080D02*
X434440Y36430D01*
X446940Y36430D01*
X446940Y32080D01*
X434440Y32080D01*
G37*
X74780Y583040D02*
X74780Y565040D01*
X87780Y583040D02*
X87780Y565040D01*
G36*
X75030Y574440D02*
X75030Y578790D01*
X87530Y578790D01*
X87530Y574440D01*
X75030Y574440D01*
G37*
G54D13*
X447190Y21830D02*
G75*
D01*
G02X447190Y21830I1250J0*
G01*
X442100Y96520D02*
G75*
D01*
G02X442100Y96520I1250J0*
G01*
X72280Y589040D02*
G75*
D01*
G02X72280Y589040I1250J0*
G01*
G54D14*
X450850Y88820D02*
X514350Y88820D01*
X450850Y88820D02*
X450850Y89820D01*
X450850Y142320D02*
X514350Y142320D01*
X450850Y141320D02*
X450850Y142320D01*
G54D15*
X118174Y119949D02*
X123889Y119949D01*
X123889Y122224D01*
X122746Y123362D01*
X122174Y123362D01*
X121031Y122224D01*
X121031Y119949D01*
X121031Y120518D02*
X118174Y123362D01*
X120460Y128482D02*
X120460Y125069D01*
X123889Y127913D01*
X118174Y127913D01*
X118174Y127344D02*
X118174Y128482D01*
X123317Y130758D02*
X123889Y131327D01*
X123889Y132464D01*
X122746Y133602D01*
X121603Y133602D01*
X121031Y133033D01*
X120460Y133602D01*
X119317Y133602D01*
X118174Y132464D01*
X118174Y131327D01*
X118746Y130758D01*
X121031Y131327D02*
X121031Y133033D01*
G54D16*
X114380Y101600D02*
X124380Y101600D01*
X114380Y101600D01*
X124380Y101600D02*
X124380Y101600D01*
X114380Y101600D02*
X114380Y101600D01*
X152480Y100330D02*
X162480Y100330D01*
X152480Y100330D01*
X162480Y100330D02*
X162480Y100330D01*
X152480Y100330D02*
X152480Y100330D01*
X193120Y102870D02*
X203120Y102870D01*
X193120Y102870D01*
X203120Y102870D02*
X203120Y102870D01*
X193120Y102870D02*
X193120Y102870D01*
X433150Y125730D02*
X443150Y125730D01*
X433150Y125730D01*
X443150Y125730D02*
X443150Y125730D01*
X433150Y125730D02*
X433150Y125730D01*
X425370Y142240D02*
X415370Y142240D01*
X425370Y142240D01*
X415370Y142240D02*
X415370Y142240D01*
X425370Y142240D02*
X425370Y142240D01*
X290910Y104140D02*
X300910Y104140D01*
X290910Y104140D01*
X300910Y104140D02*
X300910Y104140D01*
X290910Y104140D02*
X290910Y104140D01*
X378540Y104140D02*
X388540Y104140D01*
X378540Y104140D01*
X388540Y104140D02*
X388540Y104140D01*
X378540Y104140D02*
X378540Y104140D01*
X335360Y104140D02*
X345360Y104140D01*
X335360Y104140D01*
X345360Y104140D02*
X345360Y104140D01*
X335360Y104140D02*
X335360Y104140D01*
X328850Y435610D02*
X318850Y435610D01*
X328850Y435610D01*
X318850Y435610D02*
X318850Y435610D01*
X328850Y435610D02*
X328850Y435610D01*
X269320Y24130D02*
X279320Y24130D01*
X269320Y24130D01*
X279320Y24130D02*
X279320Y24130D01*
X269320Y24130D02*
X269320Y24130D01*
X250270Y24130D02*
X260270Y24130D01*
X250270Y24130D01*
X260270Y24130D02*
X260270Y24130D01*
X250270Y24130D02*
X250270Y24130D01*
G54D17*
X155489Y120020D02*
X161917Y120020D01*
X161917Y122580D01*
X160631Y123860D01*
X159989Y123860D01*
X158703Y122580D01*
X158703Y120020D01*
X158703Y120660D02*
X155489Y123860D01*
X156774Y125780D02*
X155489Y127060D01*
X155489Y128340D01*
X156774Y129620D01*
X159346Y129620D01*
X160631Y129620D01*
X161917Y128340D01*
X161917Y127060D01*
X160631Y125780D01*
X159346Y125780D01*
X158060Y127060D01*
X158060Y128340D01*
X159346Y129620D01*
X194529Y119580D02*
X200957Y119580D01*
X200957Y122140D01*
X199671Y123420D01*
X199029Y123420D01*
X197743Y122140D01*
X197743Y119580D01*
X197743Y120220D02*
X194529Y123420D01*
X197100Y129180D02*
X197100Y125340D01*
X200957Y128540D01*
X194529Y128540D01*
X194529Y127900D02*
X194529Y129180D01*
X199671Y131100D02*
X200957Y132380D01*
X200957Y133660D01*
X199671Y134940D01*
X195814Y134940D01*
X194529Y133660D01*
X194529Y132380D01*
X195814Y131100D01*
X199671Y131100D01*
X199671Y134940D02*
X195814Y131100D01*
X292649Y122560D02*
X299077Y122560D01*
X299077Y125120D01*
X297791Y126400D01*
X297149Y126400D01*
X295863Y125120D01*
X295863Y122560D01*
X295863Y123200D02*
X292649Y126400D01*
X299077Y132160D02*
X299077Y128320D01*
X296506Y128320D01*
X296506Y130880D01*
X295220Y132160D01*
X293934Y132160D01*
X292649Y130880D01*
X292649Y128320D01*
X297791Y134080D02*
X299077Y135360D01*
X299077Y136640D01*
X297791Y137920D01*
X297149Y137920D01*
X292649Y134080D01*
X292649Y137920D01*
X293291Y137920D01*
X379009Y122560D02*
X385437Y122560D01*
X385437Y125120D01*
X384151Y126400D01*
X383509Y126400D01*
X382223Y125120D01*
X382223Y122560D01*
X382223Y123200D02*
X379009Y126400D01*
X381580Y132160D02*
X381580Y128320D01*
X385437Y131520D01*
X379009Y131520D01*
X379009Y130880D02*
X379009Y132160D01*
X385437Y137280D02*
X385437Y135360D01*
X384151Y134080D01*
X381580Y134080D01*
X380294Y134080D01*
X379009Y135360D01*
X379009Y136640D01*
X380294Y137920D01*
X381580Y137920D01*
X382866Y136640D01*
X382866Y135360D01*
X381580Y134080D01*
X282217Y18933D02*
X288646Y18933D01*
X288646Y21493D01*
X287360Y22773D01*
X286717Y22773D01*
X285432Y21493D01*
X285432Y18933D01*
X285432Y19573D02*
X282217Y22773D01*
X288003Y25333D02*
X288646Y25973D01*
X288646Y27253D01*
X287360Y28533D01*
X286075Y28533D01*
X285432Y27893D01*
X284789Y28533D01*
X283503Y28533D01*
X282217Y27253D01*
X282217Y25973D01*
X282860Y25333D01*
X285432Y25973D02*
X285432Y27893D01*
X263167Y18933D02*
X269596Y18933D01*
X269596Y21493D01*
X268310Y22773D01*
X267667Y22773D01*
X266382Y21493D01*
X266382Y18933D01*
X266382Y19573D02*
X263167Y22773D01*
X268310Y24693D02*
X269596Y25973D01*
X269596Y27253D01*
X268310Y28533D01*
X267667Y28533D01*
X263167Y24693D01*
X263167Y28533D01*
X263810Y28533D01*
G54D18*
X429991Y84673D02*
X438563Y84673D01*
X438563Y88087D01*
X436849Y89793D01*
X435991Y89793D01*
X434277Y88087D01*
X434277Y84673D01*
X434277Y85527D02*
X429991Y89793D01*
X437706Y93207D02*
X438563Y94060D01*
X438563Y95767D01*
X436849Y97473D01*
X435134Y97473D01*
X434277Y96620D01*
X433420Y97473D01*
X431706Y97473D01*
X429991Y95767D01*
X429991Y94060D01*
X430849Y93207D01*
X434277Y94060D02*
X434277Y96620D01*
X437706Y100887D02*
X438563Y101740D01*
X438563Y103447D01*
X436849Y105153D01*
X435134Y105153D01*
X434277Y104300D01*
X433420Y105153D01*
X431706Y105153D01*
X429991Y103447D01*
X429991Y101740D01*
X430849Y100887D01*
X434277Y101740D02*
X434277Y104300D01*
X432871Y133093D02*
X441443Y133093D01*
X441443Y136507D01*
X439729Y138213D01*
X438871Y138213D01*
X437157Y136507D01*
X437157Y133093D01*
X437157Y133947D02*
X432871Y138213D01*
X439729Y140773D02*
X441443Y142480D01*
X441443Y144187D01*
X439729Y145893D01*
X438871Y145893D01*
X432871Y140773D01*
X432871Y145893D01*
X433729Y145893D01*
X439729Y148453D02*
X441443Y150160D01*
X441443Y151867D01*
X439729Y153573D01*
X434586Y153573D01*
X432871Y151867D01*
X432871Y150160D01*
X434586Y148453D01*
X439729Y148453D01*
X439729Y153573D02*
X434586Y148453D01*
X304831Y427453D02*
X313403Y427453D01*
X313403Y430867D01*
X311689Y432573D01*
X310831Y432573D01*
X309117Y430867D01*
X309117Y427453D01*
X309117Y428307D02*
X304831Y432573D01*
X311689Y435987D02*
X313403Y437693D01*
X304831Y437693D01*
X304831Y435133D02*
X304831Y440253D01*
G54D19*
X336011Y122773D02*
X344583Y122773D01*
X344583Y126187D01*
X342869Y127893D01*
X342011Y127893D01*
X340297Y126187D01*
X340297Y122773D01*
X340297Y123627D02*
X336011Y127893D01*
X339440Y135573D02*
X339440Y130453D01*
X344583Y134720D01*
X336011Y134720D01*
X336011Y133867D02*
X336011Y135573D01*
X336011Y141547D02*
X336011Y139840D01*
X337726Y138133D01*
X339440Y138133D01*
X340297Y138987D01*
X341154Y138133D01*
X342869Y138133D01*
X344583Y139840D01*
X344583Y141547D01*
X342869Y143253D01*
X341154Y143253D01*
X340297Y142400D01*
X339440Y143253D01*
X337726Y143253D01*
X336011Y141547D01*
X340297Y138987D02*
X340297Y142400D01*
G54D20*
X-2540Y-2540D02*
X-2540Y59968D01*
X-2540Y-2540D02*
X62968Y-2540D01*
X652540Y-2540D02*
X587032Y-2540D01*
X652540Y-2540D02*
X652540Y59968D01*
X652540Y622540D02*
X652540Y560032D01*
X652540Y622540D02*
X587032Y622540D01*
X-2540Y622540D02*
X62968Y622540D01*
X-2540Y622540D02*
X-2540Y560032D01*
X-52540Y-2540D02*
X-152540Y-2540D01*
X-102540Y-52540D02*
X-102540Y47460D01*
X-140040Y-2540D02*
G75*
D01*
G02X-140040Y-2540I37500J0*
G01*
X702540Y-2540D02*
X802540Y-2540D01*
X752540Y-52540D02*
X752540Y47460D01*
X715040Y-2540D02*
G75*
D01*
G02X715040Y-2540I37500J0*
G01*
X740040Y-2540D02*
G75*
D01*
G02X740040Y-2540I12500J0*
G01*
X-52540Y622540D02*
X-152540Y622540D01*
X-102540Y572540D02*
X-102540Y672540D01*
X-140040Y622540D02*
G75*
D01*
G02X-140040Y622540I37500J0*
G01*
X-127540Y622540D02*
G75*
D01*
G02X-127540Y622540I25000J0*
G01*
X-115040Y622540D02*
G75*
D01*
G02X-115040Y622540I12500J0*
G01*

M02*
