G04 Generated by Ultiboard 14.0 *
%FSLAX34Y34*%
%MOMM*%

%ADD10C,0.0001*%
%ADD11C,0.1270*%
%ADD12R,1.1500X2.7000*%
%ADD13R,0.6000X1.1500*%
%ADD14R,0.7600X0.8200*%
%ADD15R,0.7000X1.2000*%
%ADD16R,0.4000X0.5000*%
%ADD17C,0.4000*%
%ADD18R,0.9500X1.0000*%
%ADD19R,1.0000X0.9500*%
%ADD20R,0.5000X0.4000*%
%ADD21R,0.6000X1.5500*%
%ADD22R,0.8500X0.5000*%
%ADD23R,1.0500X1.4000*%
%ADD24R,0.5500X1.1000*%


G04 ColorRGB 006666 for the following layer *
%LNPaste Mask Top*%
%LPD*%
G54D10*
G54D11*
X-2540Y-2540D02*
X-2540Y59968D01*
X-2540Y-2540D02*
X62968Y-2540D01*
X652540Y-2540D02*
X587032Y-2540D01*
X652540Y-2540D02*
X652540Y59968D01*
X652540Y622540D02*
X652540Y560032D01*
X652540Y622540D02*
X587032Y622540D01*
X-2540Y622540D02*
X62968Y622540D01*
X-2540Y622540D02*
X-2540Y560032D01*
X-52540Y-2540D02*
X-152540Y-2540D01*
X-102540Y-52540D02*
X-102540Y47460D01*
X-140040Y-2540D02*
G75*
D01*
G02X-140040Y-2540I37500J0*
G01*
X702540Y-2540D02*
X802540Y-2540D01*
X752540Y-52540D02*
X752540Y47460D01*
X715040Y-2540D02*
G75*
D01*
G02X715040Y-2540I37500J0*
G01*
X740040Y-2540D02*
G75*
D01*
G02X740040Y-2540I12500J0*
G01*
X-52540Y622540D02*
X-152540Y622540D01*
X-102540Y572540D02*
X-102540Y672540D01*
X-140040Y622540D02*
G75*
D01*
G02X-140040Y622540I37500J0*
G01*
X-127540Y622540D02*
G75*
D01*
G02X-127540Y622540I25000J0*
G01*
X-115040Y622540D02*
G75*
D01*
G02X-115040Y622540I12500J0*
G01*
G54D12*
X564120Y476250D03*
X594120Y476250D03*
X45960Y323850D03*
X75960Y323850D03*
G54D13*
X102870Y427690D03*
X93370Y427690D03*
X112370Y427690D03*
X93370Y453690D03*
X102870Y453690D03*
X112370Y453690D03*
X498500Y202900D03*
X508000Y202900D03*
X517500Y202900D03*
X498500Y228900D03*
X508000Y228900D03*
X517500Y228900D03*
G54D14*
X99060Y331880D03*
X99060Y364080D03*
G54D15*
X574700Y79440D03*
X593700Y79440D03*
X574700Y103440D03*
X584200Y103440D03*
X593700Y103440D03*
G54D16*
X617150Y87723D03*
X640150Y87723D03*
G54D17*
X615150Y85223D02*
X619150Y85223D01*
X619150Y90223D01*
X615150Y90223D01*
X615150Y85223D01*D02*
X638150Y85223D02*
X642150Y85223D01*
X642150Y90223D01*
X638150Y90223D01*
X638150Y85223D01*D02*
X120690Y583540D02*
X125690Y583540D01*
X125690Y587540D01*
X120690Y587540D01*
X120690Y583540D01*D02*
X120690Y560540D02*
X125690Y560540D01*
X125690Y564540D01*
X120690Y564540D01*
X120690Y560540D01*D02*
G54D18*
X620650Y111760D03*
X636650Y111760D03*
X518540Y185420D03*
X502540Y185420D03*
X516000Y243840D03*
X500000Y243840D03*
X84710Y599440D03*
X100710Y599440D03*
X310770Y285750D03*
X326770Y285750D03*
X157860Y67310D03*
X141860Y67310D03*
X110110Y67310D03*
X126110Y67310D03*
X173610Y67310D03*
X189610Y67310D03*
X223900Y67310D03*
X207900Y67310D03*
X188850Y143510D03*
X204850Y143510D03*
X482980Y151130D03*
X466980Y151130D03*
X306450Y67310D03*
X290450Y67310D03*
X286640Y143510D03*
X302640Y143510D03*
X339470Y67310D03*
X323470Y67310D03*
X355220Y67310D03*
X371220Y67310D03*
X375460Y142240D03*
X391460Y142240D03*
X404240Y68580D03*
X388240Y68580D03*
X332360Y143510D03*
X348360Y143510D03*
X149480Y143510D03*
X165480Y143510D03*
X126110Y143510D03*
X110110Y143510D03*
G54D19*
X76200Y365380D03*
X76200Y381380D03*
X52070Y365380D03*
X52070Y381380D03*
X247650Y427610D03*
X247650Y443610D03*
X275590Y443610D03*
X275590Y427610D03*
X302260Y427610D03*
X302260Y443610D03*
X323850Y427610D03*
X323850Y443610D03*
X349250Y443610D03*
X349250Y427610D03*
X373380Y427610D03*
X373380Y443610D03*
X391160Y427610D03*
X391160Y443610D03*
X408940Y427610D03*
X408940Y443610D03*
X127000Y426340D03*
X127000Y442340D03*
X142240Y442340D03*
X142240Y426340D03*
X99060Y578230D03*
X99060Y562230D03*
X72390Y126620D03*
X72390Y142620D03*
X72390Y94870D03*
X72390Y110870D03*
X71120Y444880D03*
X71120Y428880D03*
X429260Y142620D03*
X429260Y126620D03*
X411480Y142620D03*
X411480Y126620D03*
G54D20*
X123190Y585540D03*
X123190Y562540D03*
G54D21*
X509270Y112700D03*
X521970Y112700D03*
X534670Y112700D03*
X547370Y112700D03*
X509270Y166700D03*
X521970Y166700D03*
X534670Y166700D03*
X547370Y166700D03*
X13970Y425120D03*
X26670Y425120D03*
X39370Y425120D03*
X52070Y425120D03*
X13970Y479120D03*
X26670Y479120D03*
X39370Y479120D03*
X52070Y479120D03*
G54D22*
X52270Y350520D03*
X77270Y350520D03*
G54D23*
X344830Y285750D03*
X363830Y285750D03*
G54D24*
X157480Y94450D03*
X147980Y94450D03*
X166980Y94450D03*
X157480Y121450D03*
X147980Y121450D03*
X166980Y121450D03*
X196850Y94450D03*
X187350Y94450D03*
X206350Y94450D03*
X196850Y121450D03*
X187350Y121450D03*
X206350Y121450D03*
X118110Y94450D03*
X108610Y94450D03*
X127610Y94450D03*
X118110Y121450D03*
X108610Y121450D03*
X127610Y121450D03*
X295910Y93180D03*
X286410Y93180D03*
X305410Y93180D03*
X295910Y120180D03*
X286410Y120180D03*
X305410Y120180D03*
X340360Y93180D03*
X330860Y93180D03*
X349860Y93180D03*
X340360Y120180D03*
X330860Y120180D03*
X349860Y120180D03*
X383460Y93180D03*
X373960Y93180D03*
X392960Y93180D03*
X383460Y120180D03*
X373960Y120180D03*
X392960Y120180D03*

M02*
