G04 Generated by Ultiboard 14.0 *
%FSLAX34Y34*%
%MOMM*%

%ADD10C,0.0001*%
%ADD11C,0.1270*%
%ADD12R,1.1500X2.7000*%
%ADD13R,0.6000X1.5500*%
%ADD14R,1.0000X0.9500*%
%ADD15R,0.6000X1.1500*%
%ADD16R,0.7600X0.8200*%
%ADD17R,1.0500X1.4000*%
%ADD18R,0.9500X1.0000*%
%ADD19R,0.7000X1.2000*%
%ADD20R,0.4000X0.5000*%
%ADD21C,0.4000*%
%ADD22R,0.5000X0.4000*%
%ADD23R,0.8500X0.5000*%


G04 ColorRGB 006666 for the following layer *
%LNPaste Mask Top*%
%LPD*%
G54D10*
G54D11*
X-2540Y-2540D02*
X-2540Y59968D01*
X-2540Y-2540D02*
X62968Y-2540D01*
X652540Y-2540D02*
X587032Y-2540D01*
X652540Y-2540D02*
X652540Y59968D01*
X652540Y622540D02*
X652540Y560032D01*
X652540Y622540D02*
X587032Y622540D01*
X-2540Y622540D02*
X62968Y622540D01*
X-2540Y622540D02*
X-2540Y560032D01*
X-52540Y-2540D02*
X-152540Y-2540D01*
X-102540Y-52540D02*
X-102540Y47460D01*
X-140040Y-2540D02*
G75*
D01*
G02X-140040Y-2540I37500J0*
G01*
X702540Y-2540D02*
X802540Y-2540D01*
X752540Y-52540D02*
X752540Y47460D01*
X715040Y-2540D02*
G75*
D01*
G02X715040Y-2540I37500J0*
G01*
X740040Y-2540D02*
G75*
D01*
G02X740040Y-2540I12500J0*
G01*
X-52540Y622540D02*
X-152540Y622540D01*
X-102540Y572540D02*
X-102540Y672540D01*
X-140040Y622540D02*
G75*
D01*
G02X-140040Y622540I37500J0*
G01*
X-127540Y622540D02*
G75*
D01*
G02X-127540Y622540I25000J0*
G01*
X-115040Y622540D02*
G75*
D01*
G02X-115040Y622540I12500J0*
G01*
G54D12*
X564120Y476250D03*
X594120Y476250D03*
X45960Y323850D03*
X75960Y323850D03*
G54D13*
X13970Y425120D03*
X26670Y425120D03*
X39370Y425120D03*
X52070Y425120D03*
X13970Y479120D03*
X26670Y479120D03*
X39370Y479120D03*
X52070Y479120D03*
X509270Y112700D03*
X521970Y112700D03*
X534670Y112700D03*
X547370Y112700D03*
X509270Y166700D03*
X521970Y166700D03*
X534670Y166700D03*
X547370Y166700D03*
G54D14*
X275590Y443610D03*
X275590Y427610D03*
X302260Y427610D03*
X302260Y443610D03*
X71120Y444880D03*
X71120Y428880D03*
X391160Y427610D03*
X391160Y443610D03*
X408940Y427610D03*
X408940Y443610D03*
X247650Y427610D03*
X247650Y443610D03*
X204470Y70660D03*
X204470Y86660D03*
X227330Y86660D03*
X227330Y70660D03*
X147320Y86660D03*
X147320Y70660D03*
X118110Y70660D03*
X118110Y86660D03*
X181610Y86660D03*
X181610Y70660D03*
X81280Y579500D03*
X81280Y563500D03*
X354330Y86740D03*
X354330Y70740D03*
X392430Y70740D03*
X392430Y86740D03*
X313690Y70740D03*
X313690Y86740D03*
X275590Y70740D03*
X275590Y86740D03*
X129540Y433960D03*
X129540Y449960D03*
X323850Y427610D03*
X323850Y443610D03*
X349250Y443610D03*
X349250Y427610D03*
X374650Y427610D03*
X374650Y443610D03*
X474980Y111380D03*
X474980Y127380D03*
X377190Y70740D03*
X377190Y86740D03*
X72390Y94870D03*
X72390Y110870D03*
X72390Y126620D03*
X72390Y142620D03*
X76200Y365380D03*
X76200Y381380D03*
X52070Y365380D03*
X52070Y381380D03*
G54D15*
X102870Y427690D03*
X93370Y427690D03*
X112370Y427690D03*
X93370Y453690D03*
X102870Y453690D03*
X112370Y453690D03*
X138584Y105034D03*
X148084Y105034D03*
X157584Y105034D03*
X148084Y131034D03*
X138584Y131034D03*
X157584Y131034D03*
X188784Y104826D03*
X179284Y104826D03*
X198284Y104826D03*
X188784Y130826D03*
X179284Y130826D03*
X198284Y130826D03*
X264463Y104852D03*
X273963Y104852D03*
X283463Y104852D03*
X264463Y130852D03*
X283463Y130852D03*
X273963Y130852D03*
X304480Y104475D03*
X323480Y104475D03*
X313980Y104475D03*
X304480Y130475D03*
X323480Y130475D03*
X313980Y130475D03*
X344830Y105110D03*
X363830Y105110D03*
X354330Y105110D03*
X344830Y131110D03*
X363830Y131110D03*
X354330Y131110D03*
X99522Y104672D03*
X109022Y104672D03*
X118522Y104672D03*
X99522Y130672D03*
X109022Y130672D03*
X118522Y130672D03*
X498500Y202900D03*
X508000Y202900D03*
X517500Y202900D03*
X498500Y228900D03*
X508000Y228900D03*
X517500Y228900D03*
G54D16*
X99060Y331880D03*
X99060Y364080D03*
G54D17*
X344830Y285750D03*
X363830Y285750D03*
G54D18*
X310770Y285750D03*
X326770Y285750D03*
X282320Y147320D03*
X266320Y147320D03*
X304420Y147320D03*
X320420Y147320D03*
X346330Y147320D03*
X362330Y147320D03*
X140590Y146050D03*
X156590Y146050D03*
X117220Y146050D03*
X101220Y146050D03*
X181230Y146050D03*
X197230Y146050D03*
X620650Y111760D03*
X636650Y111760D03*
X518540Y185420D03*
X502540Y185420D03*
X516000Y243840D03*
X500000Y243840D03*
G54D19*
X574700Y79440D03*
X593700Y79440D03*
X574700Y103440D03*
X584200Y103440D03*
X593700Y103440D03*
G54D20*
X617150Y87723D03*
X640150Y87723D03*
G54D21*
X615150Y85223D02*
X619150Y85223D01*
X619150Y90223D01*
X615150Y90223D01*
X615150Y85223D01*D02*
X638150Y85223D02*
X642150Y85223D01*
X642150Y90223D01*
X638150Y90223D01*
X638150Y85223D01*D02*
X113070Y583540D02*
X118070Y583540D01*
X118070Y587540D01*
X113070Y587540D01*
X113070Y583540D01*D02*
X113070Y560540D02*
X118070Y560540D01*
X118070Y564540D01*
X113070Y564540D01*
X113070Y560540D01*D02*
G54D22*
X115570Y585540D03*
X115570Y562540D03*
G54D23*
X52270Y350520D03*
X77270Y350520D03*

M02*
