G04 Generated by Ultiboard 14.0 *
%FSLAX34Y34*%
%MOMM*%

%ADD11C,0.0010*%
%ADD12C,0.2540*%
%ADD13C,0.1270*%


G04 ColorRGB 00FFFF for the following layer *
%LNBoard Outline*%
%LPD*%
G54D10*
G54D11*
X467360Y270000D02*
X467360Y250000D01*
X203200Y250000D01*
X203200Y270000D01*
X467360Y270000D01*
X203200Y300000D02*
X203200Y320000D01*
X467360Y320000D01*
X467360Y300000D01*
X203200Y300000D01*
X0Y0D02*
X650000Y0D01*
X650000Y620000D01*
X0Y620000D01*
X0Y0D01*
G54D12*
X180340Y320040D02*
X149860Y320040D01*
X149860Y236220D01*
X182880Y236220D01*
X182880Y320040D01*
X180340Y320040D01*
G54D13*
X-2540Y-2540D02*
X-2540Y59968D01*
X-2540Y-2540D02*
X62968Y-2540D01*
X652540Y-2540D02*
X587032Y-2540D01*
X652540Y-2540D02*
X652540Y59968D01*
X652540Y622540D02*
X652540Y560032D01*
X652540Y622540D02*
X587032Y622540D01*
X-2540Y622540D02*
X62968Y622540D01*
X-2540Y622540D02*
X-2540Y560032D01*
X-52540Y-2540D02*
X-152540Y-2540D01*
X-102540Y-52540D02*
X-102540Y47460D01*
X-140040Y-2540D02*
G75*
D01*
G02X-140040Y-2540I37500J0*
G01*
X702540Y-2540D02*
X802540Y-2540D01*
X752540Y-52540D02*
X752540Y47460D01*
X715040Y-2540D02*
G75*
D01*
G02X715040Y-2540I37500J0*
G01*
X740040Y-2540D02*
G75*
D01*
G02X740040Y-2540I12500J0*
G01*
X-52540Y622540D02*
X-152540Y622540D01*
X-102540Y572540D02*
X-102540Y672540D01*
X-140040Y622540D02*
G75*
D01*
G02X-140040Y622540I37500J0*
G01*
X-127540Y622540D02*
G75*
D01*
G02X-127540Y622540I25000J0*
G01*
X-115040Y622540D02*
G75*
D01*
G02X-115040Y622540I12500J0*
G01*

M02*
