G04 Generated by Ultiboard 14.0 *
%FSLAX34Y34*%
%MOMM*%

%ADD10C,0.0001*%
%ADD11C,0.1000*%
%ADD12C,0.0100*%
%ADD13C,0.0010*%
%ADD14C,0.2540*%
%ADD15C,0.1270*%


G04 ColorRGB 000000 for the following layer *
%LNDrill Symbols-Copper Top-Copper Bottom*%
%LPD*%
G54D11*
X35000Y19000D02*
X35000Y51000D01*
X19000Y35000D02*
X51000Y35000D01*
X615000Y509000D02*
X615000Y541000D01*
X599000Y525000D02*
X631000Y525000D01*
X35000Y509000D02*
X35000Y541000D01*
X19000Y525000D02*
X51000Y525000D01*
X615000Y19000D02*
X615000Y51000D01*
X599000Y35000D02*
X631000Y35000D01*
X543000Y261800D02*
X557000Y261800D01*
X557000Y275800D01*
X543000Y275800D01*
X543000Y261800D01*
X543000Y312600D02*
X557000Y312600D01*
X557000Y326600D01*
X543000Y326600D01*
X543000Y312600D01*
X543000Y363400D02*
X557000Y363400D01*
X557000Y377400D01*
X543000Y377400D01*
X543000Y363400D01*
X543000Y414200D02*
X557000Y414200D01*
X557000Y428200D01*
X543000Y428200D01*
X543000Y414200D01*
X217500Y19750D02*
X227500Y19750D01*
X222500Y28286D01*
X217500Y19750D01*
X192500Y19750D02*
X202500Y19750D01*
X197500Y28286D01*
X192500Y19750D01*
X167500Y19750D02*
X177500Y19750D01*
X172500Y28286D01*
X167500Y19750D01*
X142500Y19750D02*
X152500Y19750D01*
X147500Y28286D01*
X142500Y19750D01*
X117500Y19750D02*
X127500Y19750D01*
X122500Y28286D01*
X117500Y19750D01*
X92500Y19750D02*
X102500Y19750D01*
X97500Y28286D01*
X92500Y19750D01*
X397500Y19750D02*
X407500Y19750D01*
X402500Y28286D01*
X397500Y19750D01*
X372500Y19750D02*
X382500Y19750D01*
X377500Y28286D01*
X372500Y19750D01*
X347500Y19750D02*
X357500Y19750D01*
X352500Y28286D01*
X347500Y19750D01*
X322500Y19750D02*
X332500Y19750D01*
X327500Y28286D01*
X322500Y19750D01*
X297500Y19750D02*
X307500Y19750D01*
X302500Y28286D01*
X297500Y19750D01*
X272500Y19750D02*
X282500Y19750D01*
X277500Y28286D01*
X272500Y19750D01*
X470250Y70000D02*
X480250Y70000D01*
X475250Y78536D01*
X470250Y70000D01*
X470250Y45000D02*
X480250Y45000D01*
X475250Y53536D01*
X470250Y45000D01*
X470250Y20000D02*
X480250Y20000D01*
X475250Y28536D01*
X470250Y20000D01*
X535250Y70000D02*
X545250Y70000D01*
X540250Y78536D01*
X535250Y70000D01*
X535250Y45000D02*
X545250Y45000D01*
X540250Y53536D01*
X535250Y45000D01*
X535250Y20000D02*
X545250Y20000D01*
X540250Y28536D01*
X535250Y20000D01*
X620250Y167500D02*
X630250Y167500D01*
X625250Y176036D01*
X620250Y167500D01*
X620250Y142500D02*
X630250Y142500D01*
X625250Y151036D01*
X620250Y142500D01*
X35250Y122500D02*
X45250Y122500D01*
X40250Y131036D01*
X35250Y122500D01*
X35250Y97500D02*
X45250Y97500D01*
X40250Y106036D01*
X35250Y97500D01*
X155000Y590250D02*
X165000Y590250D01*
X160000Y598786D01*
X155000Y590250D01*
X180000Y590250D02*
X190000Y590250D01*
X185000Y598786D01*
X180000Y590250D01*
X205000Y590250D02*
X215000Y590250D01*
X210000Y598786D01*
X205000Y590250D01*
X937770Y262770D02*
X969770Y262770D01*
X953770Y246770D02*
X953770Y278770D01*
X1061437Y273484D02*
X1064770Y275627D01*
X1071437Y275627D01*
X1078103Y271341D01*
X1078103Y267056D01*
X1074770Y264913D01*
X1078103Y262770D01*
X1078103Y258484D01*
X1071437Y254199D01*
X1064770Y254199D01*
X1061437Y256341D01*
X1064770Y264913D02*
X1074770Y264913D01*
X1098103Y254199D02*
X1098103Y256341D01*
X1118103Y271341D02*
X1124770Y275627D01*
X1131437Y275627D01*
X1138103Y271341D01*
X1138103Y269199D01*
X1118103Y254199D01*
X1138103Y254199D01*
X1138103Y256341D01*
X1148103Y271341D02*
X1154770Y275627D01*
X1161437Y275627D01*
X1168103Y271341D01*
X1168103Y258484D01*
X1161437Y254199D01*
X1154770Y254199D01*
X1148103Y258484D01*
X1148103Y271341D01*
X1168103Y271341D02*
X1148103Y258484D01*
X1178103Y271341D02*
X1184770Y275627D01*
X1191437Y275627D01*
X1198103Y271341D01*
X1198103Y258484D01*
X1191437Y254199D01*
X1184770Y254199D01*
X1178103Y258484D01*
X1178103Y271341D01*
X1198103Y271341D02*
X1178103Y258484D01*
X1208103Y271341D02*
X1214770Y275627D01*
X1221437Y275627D01*
X1228103Y271341D01*
X1228103Y258484D01*
X1221437Y254199D01*
X1214770Y254199D01*
X1208103Y258484D01*
X1208103Y271341D01*
X1228103Y271341D02*
X1208103Y258484D01*
X1374103Y262770D02*
X1354103Y262770D01*
X1370770Y275627D01*
X1370770Y254199D01*
X1367437Y254199D02*
X1374103Y254199D01*
X1530103Y254199D02*
X1530103Y275627D01*
X1550103Y254199D01*
X1550103Y275627D01*
X1560103Y254199D02*
X1560103Y275627D01*
X1573437Y275627D01*
X1580103Y271341D01*
X1580103Y269199D01*
X1573437Y264913D01*
X1560103Y264913D01*
X1600103Y254199D02*
X1600103Y275627D01*
X1590103Y275627D02*
X1610103Y275627D01*
X1620103Y254199D02*
X1620103Y275627D01*
X1640103Y254199D02*
X1640103Y275627D01*
X1620103Y264913D02*
X1640103Y264913D01*
X1721103Y271341D02*
X1727770Y275627D01*
X1734437Y275627D01*
X1741103Y271341D01*
X1741103Y258484D01*
X1734437Y254199D01*
X1727770Y254199D01*
X1721103Y258484D01*
X1721103Y271341D01*
X1741103Y271341D02*
X1721103Y258484D01*
X1797770Y254199D02*
X1794437Y254199D01*
X1787770Y258484D01*
X1787770Y271341D01*
X1794437Y275627D01*
X1797770Y275627D01*
X1811103Y254199D02*
X1811103Y275627D01*
X1824437Y275627D01*
X1831103Y271341D01*
X1831103Y269199D01*
X1824437Y264913D01*
X1811103Y264913D01*
X1814437Y264913D02*
X1831103Y254199D01*
X1841103Y258484D02*
X1847770Y254199D01*
X1854437Y254199D01*
X1861103Y258484D01*
X1861103Y271341D01*
X1854437Y275627D01*
X1847770Y275627D01*
X1841103Y271341D01*
X1841103Y258484D01*
X1871103Y275627D02*
X1871103Y258484D01*
X1877770Y254199D01*
X1884437Y254199D01*
X1891103Y258484D01*
X1891103Y275627D01*
X1901103Y254199D02*
X1901103Y275627D01*
X1921103Y254199D01*
X1921103Y275627D01*
X1931103Y254199D02*
X1944437Y254199D01*
X1951103Y258484D01*
X1951103Y271341D01*
X1944437Y275627D01*
X1931103Y275627D01*
X1934437Y275627D02*
X1934437Y254199D01*
X1964437Y275627D02*
X1967770Y275627D01*
X1974437Y271341D01*
X1974437Y258484D01*
X1967770Y254199D01*
X1964437Y254199D01*
X946770Y298770D02*
X960770Y298770D01*
X960770Y312770D01*
X946770Y312770D01*
X946770Y298770D01*
X1061437Y314341D02*
X1068103Y318627D01*
X1068103Y297199D01*
X1058103Y297199D02*
X1078103Y297199D01*
X1098103Y297199D02*
X1098103Y299341D01*
X1138103Y305770D02*
X1118103Y305770D01*
X1134770Y318627D01*
X1134770Y297199D01*
X1131437Y297199D02*
X1138103Y297199D01*
X1148103Y314341D02*
X1154770Y318627D01*
X1161437Y318627D01*
X1168103Y314341D01*
X1168103Y301484D01*
X1161437Y297199D01*
X1154770Y297199D01*
X1148103Y301484D01*
X1148103Y314341D01*
X1168103Y314341D02*
X1148103Y301484D01*
X1178103Y314341D02*
X1184770Y318627D01*
X1191437Y318627D01*
X1198103Y314341D01*
X1198103Y301484D01*
X1191437Y297199D01*
X1184770Y297199D01*
X1178103Y301484D01*
X1178103Y314341D01*
X1198103Y314341D02*
X1178103Y301484D01*
X1208103Y314341D02*
X1214770Y318627D01*
X1221437Y318627D01*
X1228103Y314341D01*
X1228103Y301484D01*
X1221437Y297199D01*
X1214770Y297199D01*
X1208103Y301484D01*
X1208103Y314341D01*
X1228103Y314341D02*
X1208103Y301484D01*
X1374103Y305770D02*
X1354103Y305770D01*
X1370770Y318627D01*
X1370770Y297199D01*
X1367437Y297199D02*
X1374103Y297199D01*
X1545103Y297199D02*
X1545103Y318627D01*
X1558437Y318627D01*
X1565103Y314341D01*
X1565103Y312199D01*
X1558437Y307913D01*
X1545103Y307913D01*
X1585103Y297199D02*
X1585103Y318627D01*
X1575103Y318627D02*
X1595103Y318627D01*
X1605103Y297199D02*
X1605103Y318627D01*
X1625103Y297199D02*
X1625103Y318627D01*
X1605103Y307913D02*
X1625103Y307913D01*
X1721103Y314341D02*
X1727770Y318627D01*
X1734437Y318627D01*
X1741103Y314341D01*
X1741103Y301484D01*
X1734437Y297199D01*
X1727770Y297199D01*
X1721103Y301484D01*
X1721103Y314341D01*
X1741103Y314341D02*
X1721103Y301484D01*
X1797770Y297199D02*
X1794437Y297199D01*
X1787770Y301484D01*
X1787770Y314341D01*
X1794437Y318627D01*
X1797770Y318627D01*
X1811103Y297199D02*
X1811103Y318627D01*
X1824437Y318627D01*
X1831103Y314341D01*
X1831103Y312199D01*
X1824437Y307913D01*
X1811103Y307913D01*
X1814437Y307913D02*
X1831103Y297199D01*
X1841103Y301484D02*
X1847770Y297199D01*
X1854437Y297199D01*
X1861103Y301484D01*
X1861103Y314341D01*
X1854437Y318627D01*
X1847770Y318627D01*
X1841103Y314341D01*
X1841103Y301484D01*
X1871103Y318627D02*
X1871103Y301484D01*
X1877770Y297199D01*
X1884437Y297199D01*
X1891103Y301484D01*
X1891103Y318627D01*
X1901103Y297199D02*
X1901103Y318627D01*
X1921103Y297199D01*
X1921103Y318627D01*
X1931103Y297199D02*
X1944437Y297199D01*
X1951103Y301484D01*
X1951103Y314341D01*
X1944437Y318627D01*
X1931103Y318627D01*
X1934437Y318627D02*
X1934437Y297199D01*
X1964437Y318627D02*
X1967770Y318627D01*
X1974437Y314341D01*
X1974437Y301484D01*
X1967770Y297199D01*
X1964437Y297199D01*
X1061437Y357341D02*
X1068103Y361627D01*
X1068103Y340199D01*
X1058103Y340199D02*
X1078103Y340199D01*
X1098103Y340199D02*
X1098103Y342341D01*
X1118103Y357341D02*
X1124770Y361627D01*
X1131437Y361627D01*
X1138103Y357341D01*
X1138103Y344484D01*
X1131437Y340199D01*
X1124770Y340199D01*
X1118103Y344484D01*
X1118103Y357341D01*
X1138103Y357341D02*
X1118103Y344484D01*
X1148103Y357341D02*
X1154770Y361627D01*
X1161437Y361627D01*
X1168103Y357341D01*
X1168103Y344484D01*
X1161437Y340199D01*
X1154770Y340199D01*
X1148103Y344484D01*
X1148103Y357341D01*
X1168103Y357341D02*
X1148103Y344484D01*
X1178103Y357341D02*
X1184770Y361627D01*
X1191437Y361627D01*
X1198103Y357341D01*
X1198103Y344484D01*
X1191437Y340199D01*
X1184770Y340199D01*
X1178103Y344484D01*
X1178103Y357341D01*
X1198103Y357341D02*
X1178103Y344484D01*
X1208103Y357341D02*
X1214770Y361627D01*
X1221437Y361627D01*
X1228103Y357341D01*
X1228103Y344484D01*
X1221437Y340199D01*
X1214770Y340199D01*
X1208103Y344484D01*
X1208103Y357341D01*
X1228103Y357341D02*
X1208103Y344484D01*
X1339103Y357341D02*
X1345770Y361627D01*
X1352437Y361627D01*
X1359103Y357341D01*
X1359103Y355199D01*
X1339103Y340199D01*
X1359103Y340199D01*
X1359103Y342341D01*
X1389103Y361627D02*
X1369103Y361627D01*
X1369103Y353056D01*
X1382437Y353056D01*
X1389103Y348770D01*
X1389103Y344484D01*
X1382437Y340199D01*
X1369103Y340199D01*
X1545103Y340199D02*
X1545103Y361627D01*
X1558437Y361627D01*
X1565103Y357341D01*
X1565103Y355199D01*
X1558437Y350913D01*
X1545103Y350913D01*
X1585103Y340199D02*
X1585103Y361627D01*
X1575103Y361627D02*
X1595103Y361627D01*
X1605103Y340199D02*
X1605103Y361627D01*
X1625103Y340199D02*
X1625103Y361627D01*
X1605103Y350913D02*
X1625103Y350913D01*
X1721103Y357341D02*
X1727770Y361627D01*
X1734437Y361627D01*
X1741103Y357341D01*
X1741103Y344484D01*
X1734437Y340199D01*
X1727770Y340199D01*
X1721103Y344484D01*
X1721103Y357341D01*
X1741103Y357341D02*
X1721103Y344484D01*
X1797770Y340199D02*
X1794437Y340199D01*
X1787770Y344484D01*
X1787770Y357341D01*
X1794437Y361627D01*
X1797770Y361627D01*
X1811103Y340199D02*
X1811103Y361627D01*
X1824437Y361627D01*
X1831103Y357341D01*
X1831103Y355199D01*
X1824437Y350913D01*
X1811103Y350913D01*
X1814437Y350913D02*
X1831103Y340199D01*
X1841103Y344484D02*
X1847770Y340199D01*
X1854437Y340199D01*
X1861103Y344484D01*
X1861103Y357341D01*
X1854437Y361627D01*
X1847770Y361627D01*
X1841103Y357341D01*
X1841103Y344484D01*
X1871103Y361627D02*
X1871103Y344484D01*
X1877770Y340199D01*
X1884437Y340199D01*
X1891103Y344484D01*
X1891103Y361627D01*
X1901103Y340199D02*
X1901103Y361627D01*
X1921103Y340199D01*
X1921103Y361627D01*
X1931103Y340199D02*
X1944437Y340199D01*
X1951103Y344484D01*
X1951103Y357341D01*
X1944437Y361627D01*
X1931103Y361627D01*
X1934437Y361627D02*
X1934437Y340199D01*
X1964437Y361627D02*
X1967770Y361627D01*
X1974437Y357341D01*
X1974437Y344484D01*
X1967770Y340199D01*
X1964437Y340199D01*
X948770Y343770D02*
X958770Y343770D01*
X953770Y352306D01*
X948770Y343770D01*
X1058103Y400341D02*
X1064770Y404627D01*
X1071437Y404627D01*
X1078103Y400341D01*
X1078103Y387484D01*
X1071437Y383199D01*
X1064770Y383199D01*
X1058103Y387484D01*
X1058103Y400341D01*
X1078103Y400341D02*
X1058103Y387484D01*
X1098103Y383199D02*
X1098103Y385341D01*
X1118103Y387484D02*
X1124770Y383199D01*
X1131437Y383199D01*
X1138103Y387484D01*
X1138103Y396056D01*
X1138103Y400341D01*
X1131437Y404627D01*
X1124770Y404627D01*
X1118103Y400341D01*
X1118103Y396056D01*
X1124770Y391770D01*
X1131437Y391770D01*
X1138103Y396056D01*
X1148103Y387484D02*
X1154770Y383199D01*
X1161437Y383199D01*
X1168103Y387484D01*
X1168103Y396056D01*
X1168103Y400341D01*
X1161437Y404627D01*
X1154770Y404627D01*
X1148103Y400341D01*
X1148103Y396056D01*
X1154770Y391770D01*
X1161437Y391770D01*
X1168103Y396056D01*
X1198103Y391770D02*
X1178103Y391770D01*
X1194770Y404627D01*
X1194770Y383199D01*
X1191437Y383199D02*
X1198103Y383199D01*
X1208103Y387484D02*
X1214770Y383199D01*
X1221437Y383199D01*
X1228103Y387484D01*
X1228103Y396056D01*
X1228103Y400341D01*
X1221437Y404627D01*
X1214770Y404627D01*
X1208103Y400341D01*
X1208103Y396056D01*
X1214770Y391770D01*
X1221437Y391770D01*
X1228103Y396056D01*
X1374103Y391770D02*
X1354103Y391770D01*
X1370770Y404627D01*
X1370770Y383199D01*
X1367437Y383199D02*
X1374103Y383199D01*
X1545103Y383199D02*
X1545103Y404627D01*
X1558437Y404627D01*
X1565103Y400341D01*
X1565103Y398199D01*
X1558437Y393913D01*
X1545103Y393913D01*
X1585103Y383199D02*
X1585103Y404627D01*
X1575103Y404627D02*
X1595103Y404627D01*
X1605103Y383199D02*
X1605103Y404627D01*
X1625103Y383199D02*
X1625103Y404627D01*
X1605103Y393913D02*
X1625103Y393913D01*
X1721103Y400341D02*
X1727770Y404627D01*
X1734437Y404627D01*
X1741103Y400341D01*
X1741103Y387484D01*
X1734437Y383199D01*
X1727770Y383199D01*
X1721103Y387484D01*
X1721103Y400341D01*
X1741103Y400341D02*
X1721103Y387484D01*
X1797770Y383199D02*
X1794437Y383199D01*
X1787770Y387484D01*
X1787770Y400341D01*
X1794437Y404627D01*
X1797770Y404627D01*
X1811103Y383199D02*
X1811103Y404627D01*
X1824437Y404627D01*
X1831103Y400341D01*
X1831103Y398199D01*
X1824437Y393913D01*
X1811103Y393913D01*
X1814437Y393913D02*
X1831103Y383199D01*
X1841103Y387484D02*
X1847770Y383199D01*
X1854437Y383199D01*
X1861103Y387484D01*
X1861103Y400341D01*
X1854437Y404627D01*
X1847770Y404627D01*
X1841103Y400341D01*
X1841103Y387484D01*
X1871103Y404627D02*
X1871103Y387484D01*
X1877770Y383199D01*
X1884437Y383199D01*
X1891103Y387484D01*
X1891103Y404627D01*
X1901103Y383199D02*
X1901103Y404627D01*
X1921103Y383199D01*
X1921103Y404627D01*
X1931103Y383199D02*
X1944437Y383199D01*
X1951103Y387484D01*
X1951103Y400341D01*
X1944437Y404627D01*
X1931103Y404627D01*
X1934437Y404627D02*
X1934437Y383199D01*
X1964437Y404627D02*
X1967770Y404627D01*
X1974437Y400341D01*
X1974437Y387484D01*
X1967770Y383199D01*
X1964437Y383199D01*
X1058103Y443341D02*
X1064770Y447627D01*
X1071437Y447627D01*
X1078103Y443341D01*
X1078103Y430484D01*
X1071437Y426199D01*
X1064770Y426199D01*
X1058103Y430484D01*
X1058103Y443341D01*
X1078103Y443341D02*
X1058103Y430484D01*
X1098103Y426199D02*
X1098103Y428341D01*
X1131437Y426199D02*
X1124770Y426199D01*
X1118103Y430484D01*
X1118103Y434770D01*
X1121437Y436913D01*
X1118103Y439056D01*
X1118103Y443341D01*
X1124770Y447627D01*
X1131437Y447627D01*
X1138103Y443341D01*
X1138103Y439056D01*
X1134770Y436913D01*
X1138103Y434770D01*
X1138103Y430484D01*
X1131437Y426199D01*
X1121437Y436913D02*
X1134770Y436913D01*
X1161437Y426199D02*
X1154770Y426199D01*
X1148103Y430484D01*
X1148103Y434770D01*
X1151437Y436913D01*
X1148103Y439056D01*
X1148103Y443341D01*
X1154770Y447627D01*
X1161437Y447627D01*
X1168103Y443341D01*
X1168103Y439056D01*
X1164770Y436913D01*
X1168103Y434770D01*
X1168103Y430484D01*
X1161437Y426199D01*
X1151437Y436913D02*
X1164770Y436913D01*
X1178103Y430484D02*
X1184770Y426199D01*
X1191437Y426199D01*
X1198103Y430484D01*
X1198103Y439056D01*
X1198103Y443341D01*
X1191437Y447627D01*
X1184770Y447627D01*
X1178103Y443341D01*
X1178103Y439056D01*
X1184770Y434770D01*
X1191437Y434770D01*
X1198103Y439056D01*
X1208103Y443341D02*
X1214770Y447627D01*
X1221437Y447627D01*
X1228103Y443341D01*
X1228103Y430484D01*
X1221437Y426199D01*
X1214770Y426199D01*
X1208103Y430484D01*
X1208103Y443341D01*
X1228103Y443341D02*
X1208103Y430484D01*
X1349103Y426199D02*
X1349103Y436913D01*
X1359103Y443341D01*
X1359103Y447627D01*
X1339103Y447627D01*
X1339103Y443341D01*
X1385770Y447627D02*
X1375770Y447627D01*
X1369103Y443341D01*
X1369103Y434770D01*
X1369103Y430484D01*
X1375770Y426199D01*
X1382437Y426199D01*
X1389103Y430484D01*
X1389103Y434770D01*
X1382437Y439056D01*
X1375770Y439056D01*
X1369103Y434770D01*
X1545103Y426199D02*
X1545103Y447627D01*
X1558437Y447627D01*
X1565103Y443341D01*
X1565103Y441199D01*
X1558437Y436913D01*
X1545103Y436913D01*
X1585103Y426199D02*
X1585103Y447627D01*
X1575103Y447627D02*
X1595103Y447627D01*
X1605103Y426199D02*
X1605103Y447627D01*
X1625103Y426199D02*
X1625103Y447627D01*
X1605103Y436913D02*
X1625103Y436913D01*
X1721103Y443341D02*
X1727770Y447627D01*
X1734437Y447627D01*
X1741103Y443341D01*
X1741103Y430484D01*
X1734437Y426199D01*
X1727770Y426199D01*
X1721103Y430484D01*
X1721103Y443341D01*
X1741103Y443341D02*
X1721103Y430484D01*
X1797770Y426199D02*
X1794437Y426199D01*
X1787770Y430484D01*
X1787770Y443341D01*
X1794437Y447627D01*
X1797770Y447627D01*
X1811103Y426199D02*
X1811103Y447627D01*
X1824437Y447627D01*
X1831103Y443341D01*
X1831103Y441199D01*
X1824437Y436913D01*
X1811103Y436913D01*
X1814437Y436913D02*
X1831103Y426199D01*
X1841103Y430484D02*
X1847770Y426199D01*
X1854437Y426199D01*
X1861103Y430484D01*
X1861103Y443341D01*
X1854437Y447627D01*
X1847770Y447627D01*
X1841103Y443341D01*
X1841103Y430484D01*
X1871103Y447627D02*
X1871103Y430484D01*
X1877770Y426199D01*
X1884437Y426199D01*
X1891103Y430484D01*
X1891103Y447627D01*
X1901103Y426199D02*
X1901103Y447627D01*
X1921103Y426199D01*
X1921103Y447627D01*
X1931103Y426199D02*
X1944437Y426199D01*
X1951103Y430484D01*
X1951103Y443341D01*
X1944437Y447627D01*
X1931103Y447627D01*
X1934437Y447627D02*
X1934437Y426199D01*
X1964437Y447627D02*
X1967770Y447627D01*
X1974437Y443341D01*
X1974437Y430484D01*
X1967770Y426199D01*
X1964437Y426199D01*
X1058103Y486341D02*
X1064770Y490627D01*
X1071437Y490627D01*
X1078103Y486341D01*
X1078103Y473484D01*
X1071437Y469199D01*
X1064770Y469199D01*
X1058103Y473484D01*
X1058103Y486341D01*
X1078103Y486341D02*
X1058103Y473484D01*
X1098103Y469199D02*
X1098103Y471341D01*
X1134770Y490627D02*
X1124770Y490627D01*
X1118103Y486341D01*
X1118103Y477770D01*
X1118103Y473484D01*
X1124770Y469199D01*
X1131437Y469199D01*
X1138103Y473484D01*
X1138103Y477770D01*
X1131437Y482056D01*
X1124770Y482056D01*
X1118103Y477770D01*
X1148103Y486341D02*
X1154770Y490627D01*
X1161437Y490627D01*
X1168103Y486341D01*
X1168103Y473484D01*
X1161437Y469199D01*
X1154770Y469199D01*
X1148103Y473484D01*
X1148103Y486341D01*
X1168103Y486341D02*
X1148103Y473484D01*
X1178103Y486341D02*
X1184770Y490627D01*
X1191437Y490627D01*
X1198103Y486341D01*
X1198103Y473484D01*
X1191437Y469199D01*
X1184770Y469199D01*
X1178103Y473484D01*
X1178103Y486341D01*
X1198103Y486341D02*
X1178103Y473484D01*
X1208103Y486341D02*
X1214770Y490627D01*
X1221437Y490627D01*
X1228103Y486341D01*
X1228103Y473484D01*
X1221437Y469199D01*
X1214770Y469199D01*
X1208103Y473484D01*
X1208103Y486341D01*
X1228103Y486341D02*
X1208103Y473484D01*
X1359103Y490627D02*
X1339103Y490627D01*
X1339103Y482056D01*
X1352437Y482056D01*
X1359103Y477770D01*
X1359103Y473484D01*
X1352437Y469199D01*
X1339103Y469199D01*
X1389103Y477770D02*
X1369103Y477770D01*
X1385770Y490627D01*
X1385770Y469199D01*
X1382437Y469199D02*
X1389103Y469199D01*
X1545103Y469199D02*
X1545103Y490627D01*
X1558437Y490627D01*
X1565103Y486341D01*
X1565103Y484199D01*
X1558437Y479913D01*
X1545103Y479913D01*
X1585103Y469199D02*
X1585103Y490627D01*
X1575103Y490627D02*
X1595103Y490627D01*
X1605103Y469199D02*
X1605103Y490627D01*
X1625103Y469199D02*
X1625103Y490627D01*
X1605103Y479913D02*
X1625103Y479913D01*
X1721103Y486341D02*
X1727770Y490627D01*
X1734437Y490627D01*
X1741103Y486341D01*
X1741103Y473484D01*
X1734437Y469199D01*
X1727770Y469199D01*
X1721103Y473484D01*
X1721103Y486341D01*
X1741103Y486341D02*
X1721103Y473484D01*
X1797770Y469199D02*
X1794437Y469199D01*
X1787770Y473484D01*
X1787770Y486341D01*
X1794437Y490627D01*
X1797770Y490627D01*
X1811103Y469199D02*
X1811103Y490627D01*
X1824437Y490627D01*
X1831103Y486341D01*
X1831103Y484199D01*
X1824437Y479913D01*
X1811103Y479913D01*
X1814437Y479913D02*
X1831103Y469199D01*
X1841103Y473484D02*
X1847770Y469199D01*
X1854437Y469199D01*
X1861103Y473484D01*
X1861103Y486341D01*
X1854437Y490627D01*
X1847770Y490627D01*
X1841103Y486341D01*
X1841103Y473484D01*
X1871103Y490627D02*
X1871103Y473484D01*
X1877770Y469199D01*
X1884437Y469199D01*
X1891103Y473484D01*
X1891103Y490627D01*
X1901103Y469199D02*
X1901103Y490627D01*
X1921103Y469199D01*
X1921103Y490627D01*
X1931103Y469199D02*
X1944437Y469199D01*
X1951103Y473484D01*
X1951103Y486341D01*
X1944437Y490627D01*
X1931103Y490627D01*
X1934437Y490627D02*
X1934437Y469199D01*
X1964437Y490627D02*
X1967770Y490627D01*
X1974437Y486341D01*
X1974437Y473484D01*
X1967770Y469199D01*
X1964437Y469199D01*
G54D12*
X563173Y510173D02*
X569459Y516459D01*
X563173Y516459D02*
X569459Y510173D01*
X563173Y535573D02*
X569459Y541859D01*
X563173Y541859D02*
X569459Y535573D01*
X232973Y510173D02*
X239259Y516459D01*
X232973Y516459D02*
X239259Y510173D01*
X232973Y535573D02*
X239259Y541859D01*
X232973Y541859D02*
X239259Y535573D01*
X78741Y513316D02*
G75*
D01*
G02X78741Y513316I4975J0*
G01*
X80573Y535573D02*
X86859Y541859D01*
X80573Y541859D02*
X86859Y535573D01*
X156773Y516459D02*
X163059Y510173D01*
X156773Y510173D02*
X163059Y516459D01*
X156773Y541859D02*
X163059Y535573D01*
X156773Y535573D02*
X163059Y541859D01*
X105973Y510173D02*
X112259Y516459D01*
X105973Y516459D02*
X112259Y510173D01*
X105973Y535573D02*
X112259Y541859D01*
X105973Y541859D02*
X112259Y535573D01*
X131373Y510173D02*
X137659Y516459D01*
X131373Y516459D02*
X137659Y510173D01*
X131373Y541859D02*
X137659Y535573D01*
X131373Y535573D02*
X137659Y541859D01*
X182173Y510173D02*
X188459Y516459D01*
X182173Y516459D02*
X188459Y510173D01*
X182173Y541859D02*
X188459Y535573D01*
X182173Y535573D02*
X188459Y541859D01*
X207573Y510173D02*
X213859Y516459D01*
X207573Y516459D02*
X213859Y510173D01*
X207573Y535573D02*
X213859Y541859D01*
X207573Y541859D02*
X213859Y535573D01*
X385373Y510173D02*
X391659Y516459D01*
X385373Y516459D02*
X391659Y510173D01*
X385373Y541859D02*
X391659Y535573D01*
X385373Y535573D02*
X391659Y541859D01*
X309173Y510173D02*
X315459Y516459D01*
X309173Y516459D02*
X315459Y510173D01*
X309173Y541859D02*
X315459Y535573D01*
X309173Y535573D02*
X315459Y541859D01*
X283773Y510173D02*
X290059Y516459D01*
X283773Y516459D02*
X290059Y510173D01*
X283773Y535573D02*
X290059Y541859D01*
X283773Y541859D02*
X290059Y535573D01*
X258373Y516459D02*
X264659Y510173D01*
X258373Y510173D02*
X264659Y516459D01*
X258373Y541859D02*
X264659Y535573D01*
X258373Y535573D02*
X264659Y541859D01*
X359973Y516459D02*
X366259Y510173D01*
X359973Y510173D02*
X366259Y516459D01*
X359973Y535573D02*
X366259Y541859D01*
X359973Y541859D02*
X366259Y535573D01*
X334573Y510173D02*
X340859Y516459D01*
X334573Y516459D02*
X340859Y510173D01*
X334573Y541859D02*
X340859Y535573D01*
X334573Y535573D02*
X340859Y541859D01*
X436173Y510173D02*
X442459Y516459D01*
X436173Y516459D02*
X442459Y510173D01*
X436173Y541859D02*
X442459Y535573D01*
X436173Y535573D02*
X442459Y541859D01*
X410773Y510173D02*
X417059Y516459D01*
X410773Y516459D02*
X417059Y510173D01*
X410773Y535573D02*
X417059Y541859D01*
X410773Y541859D02*
X417059Y535573D01*
X461573Y516459D02*
X467859Y510173D01*
X461573Y510173D02*
X467859Y516459D01*
X461573Y541859D02*
X467859Y535573D01*
X461573Y535573D02*
X467859Y541859D01*
X512373Y510173D02*
X518659Y516459D01*
X512373Y516459D02*
X518659Y510173D01*
X512373Y535573D02*
X518659Y541859D01*
X512373Y541859D02*
X518659Y535573D01*
X486973Y516459D02*
X493259Y510173D01*
X486973Y510173D02*
X493259Y516459D01*
X486973Y541859D02*
X493259Y535573D01*
X486973Y535573D02*
X493259Y541859D01*
X537773Y516459D02*
X544059Y510173D01*
X537773Y510173D02*
X544059Y516459D01*
X537773Y541859D02*
X544059Y535573D01*
X537773Y535573D02*
X544059Y541859D01*
X85000Y65757D02*
X89243Y70000D01*
X85000Y74243D01*
X80757Y70000D01*
X85000Y65757D01*
X480000Y365757D02*
X484243Y370000D01*
X480000Y374243D01*
X475757Y370000D01*
X480000Y365757D01*
X300000Y470757D02*
X304243Y475000D01*
X300000Y479243D01*
X295757Y475000D01*
X300000Y470757D01*
X535000Y190757D02*
X539243Y195000D01*
X535000Y199243D01*
X530757Y195000D01*
X535000Y190757D01*
X290000Y280757D02*
X294243Y285000D01*
X290000Y289243D01*
X285757Y285000D01*
X290000Y280757D01*
X200000Y235757D02*
X204243Y240000D01*
X200000Y244243D01*
X195757Y240000D01*
X200000Y235757D01*
X275000Y235757D02*
X279243Y240000D01*
X275000Y244243D01*
X270757Y240000D01*
X275000Y235757D01*
X140000Y240757D02*
X144243Y245000D01*
X140000Y249243D01*
X135757Y245000D01*
X140000Y240757D01*
X140000Y310757D02*
X144243Y315000D01*
X140000Y319243D01*
X135757Y315000D01*
X140000Y310757D01*
X140000Y280757D02*
X144243Y285000D01*
X140000Y289243D01*
X135757Y285000D01*
X140000Y280757D01*
X380000Y280757D02*
X384243Y285000D01*
X380000Y289243D01*
X375757Y285000D01*
X380000Y280757D01*
X480000Y255757D02*
X484243Y260000D01*
X480000Y264243D01*
X475757Y260000D01*
X480000Y255757D01*
X480000Y305757D02*
X484243Y310000D01*
X480000Y314243D01*
X475757Y310000D01*
X480000Y305757D01*
X550000Y125757D02*
X554243Y130000D01*
X550000Y134243D01*
X545757Y130000D01*
X550000Y125757D01*
X230000Y95757D02*
X234243Y100000D01*
X230000Y104243D01*
X225757Y100000D01*
X230000Y95757D01*
X55000Y140757D02*
X59243Y145000D01*
X55000Y149243D01*
X50757Y145000D01*
X55000Y140757D01*
X585000Y115757D02*
X589243Y120000D01*
X585000Y124243D01*
X580757Y120000D01*
X585000Y115757D01*
X555000Y190757D02*
X559243Y195000D01*
X555000Y199243D01*
X550757Y195000D01*
X555000Y190757D01*
X20000Y345757D02*
X24243Y350000D01*
X20000Y354243D01*
X15757Y350000D01*
X20000Y345757D01*
X15000Y440757D02*
X19243Y445000D01*
X15000Y449243D01*
X10757Y445000D01*
X15000Y440757D01*
X30000Y440757D02*
X34243Y445000D01*
X30000Y449243D01*
X25757Y445000D01*
X30000Y440757D01*
X515000Y265757D02*
X519243Y270000D01*
X515000Y274243D01*
X510757Y270000D01*
X515000Y265757D01*
X584500Y85957D02*
X588743Y90200D01*
X584500Y94443D01*
X580257Y90200D01*
X584500Y85957D01*
X640000Y65757D02*
X644243Y70000D01*
X640000Y74243D01*
X635757Y70000D01*
X640000Y65757D01*
X585000Y5757D02*
X589243Y10000D01*
X585000Y14243D01*
X580757Y10000D01*
X585000Y5757D01*
X640000Y5757D02*
X644243Y10000D01*
X640000Y14243D01*
X635757Y10000D01*
X640000Y5757D01*
X640000Y605757D02*
X644243Y610000D01*
X640000Y614243D01*
X635757Y610000D01*
X640000Y605757D01*
X10000Y605757D02*
X14243Y610000D01*
X10000Y614243D01*
X5757Y610000D01*
X10000Y605757D01*
X20000Y310757D02*
X24243Y315000D01*
X20000Y319243D01*
X15757Y315000D01*
X20000Y310757D01*
X140000Y365757D02*
X144243Y370000D01*
X140000Y374243D01*
X135757Y370000D01*
X140000Y365757D01*
X250000Y365757D02*
X254243Y370000D01*
X250000Y374243D01*
X245757Y370000D01*
X250000Y365757D01*
X365000Y365757D02*
X369243Y370000D01*
X365000Y374243D01*
X360757Y370000D01*
X365000Y365757D01*
X365000Y235757D02*
X369243Y240000D01*
X365000Y244243D01*
X360757Y240000D01*
X365000Y235757D01*
X425000Y360757D02*
X429243Y365000D01*
X425000Y369243D01*
X420757Y365000D01*
X425000Y360757D01*
X390000Y485757D02*
X394243Y490000D01*
X390000Y494243D01*
X385757Y490000D01*
X390000Y485757D01*
X85000Y485757D02*
X89243Y490000D01*
X85000Y494243D01*
X80757Y490000D01*
X85000Y485757D01*
X105000Y475757D02*
X109243Y480000D01*
X105000Y484243D01*
X100757Y480000D01*
X105000Y475757D01*
X335000Y85757D02*
X339243Y90000D01*
X335000Y94243D01*
X330757Y90000D01*
X335000Y85757D01*
X295000Y85757D02*
X299243Y90000D01*
X295000Y94243D01*
X290757Y90000D01*
X295000Y85757D01*
X410000Y80757D02*
X414243Y85000D01*
X410000Y89243D01*
X405757Y85000D01*
X410000Y80757D01*
X410000Y65757D02*
X414243Y70000D01*
X410000Y74243D01*
X405757Y70000D01*
X410000Y65757D01*
X100000Y85757D02*
X104243Y90000D01*
X100000Y94243D01*
X95757Y90000D01*
X100000Y85757D01*
X135000Y40757D02*
X139243Y45000D01*
X135000Y49243D01*
X130757Y45000D01*
X135000Y40757D01*
X160000Y40757D02*
X164243Y45000D01*
X160000Y49243D01*
X155757Y45000D01*
X160000Y40757D01*
X260000Y85757D02*
X264243Y90000D01*
X260000Y94243D01*
X255757Y90000D01*
X260000Y85757D01*
X260000Y65757D02*
X264243Y70000D01*
X260000Y74243D01*
X255757Y70000D01*
X260000Y65757D01*
X398780Y117677D02*
X403023Y121920D01*
X398780Y126163D01*
X394537Y121920D01*
X398780Y117677D01*
X600025Y215000D02*
G75*
D01*
G02X600025Y215000I4975J0*
G01*
X627257Y211857D02*
X633543Y218143D01*
X627257Y218143D02*
X633543Y211857D01*
X167973Y169541D02*
X174259Y175827D01*
X167973Y175827D02*
X174259Y169541D01*
X320373Y175827D02*
X326659Y169541D01*
X320373Y169541D02*
X326659Y175827D01*
X421973Y175827D02*
X428259Y169541D01*
X421973Y169541D02*
X428259Y175827D01*
X447373Y169541D02*
X453659Y175827D01*
X447373Y175827D02*
X453659Y169541D01*
X470941Y172684D02*
G75*
D01*
G02X470941Y172684I4975J0*
G01*
X345773Y169541D02*
X352059Y175827D01*
X345773Y175827D02*
X352059Y169541D01*
X371173Y175827D02*
X377459Y169541D01*
X371173Y169541D02*
X377459Y175827D01*
X396573Y175827D02*
X402859Y169541D01*
X396573Y169541D02*
X402859Y175827D01*
X244173Y169541D02*
X250459Y175827D01*
X244173Y175827D02*
X250459Y169541D01*
X269573Y175827D02*
X275859Y169541D01*
X269573Y169541D02*
X275859Y175827D01*
X294973Y175827D02*
X301259Y169541D01*
X294973Y169541D02*
X301259Y175827D01*
X193373Y169541D02*
X199659Y175827D01*
X193373Y175827D02*
X199659Y169541D01*
X218773Y175827D02*
X225059Y169541D01*
X218773Y169541D02*
X225059Y175827D01*
X15573Y169541D02*
X21859Y175827D01*
X15573Y175827D02*
X21859Y169541D01*
X91773Y169541D02*
X98059Y175827D01*
X91773Y175827D02*
X98059Y169541D01*
X117173Y175827D02*
X123459Y169541D01*
X117173Y169541D02*
X123459Y175827D01*
X142573Y169541D02*
X148859Y175827D01*
X142573Y175827D02*
X148859Y169541D01*
X40973Y175827D02*
X47259Y169541D01*
X40973Y169541D02*
X47259Y175827D01*
X66373Y175827D02*
X72659Y169541D01*
X66373Y169541D02*
X72659Y175827D01*
X167973Y398141D02*
X174259Y404427D01*
X167973Y404427D02*
X174259Y398141D01*
X320373Y404427D02*
X326659Y398141D01*
X320373Y398141D02*
X326659Y404427D01*
X421973Y398141D02*
X428259Y404427D01*
X421973Y404427D02*
X428259Y398141D01*
X447373Y398141D02*
X453659Y404427D01*
X447373Y404427D02*
X453659Y398141D01*
X470941Y401284D02*
G75*
D01*
G02X470941Y401284I4975J0*
G01*
X345773Y404427D02*
X352059Y398141D01*
X345773Y398141D02*
X352059Y404427D01*
X371173Y404427D02*
X377459Y398141D01*
X371173Y398141D02*
X377459Y404427D01*
X396573Y398141D02*
X402859Y404427D01*
X396573Y404427D02*
X402859Y398141D01*
X244173Y398141D02*
X250459Y404427D01*
X244173Y404427D02*
X250459Y398141D01*
X269573Y398141D02*
X275859Y404427D01*
X269573Y404427D02*
X275859Y398141D01*
X294973Y398141D02*
X301259Y404427D01*
X294973Y404427D02*
X301259Y398141D01*
X193373Y398141D02*
X199659Y404427D01*
X193373Y404427D02*
X199659Y398141D01*
X218773Y404427D02*
X225059Y398141D01*
X218773Y398141D02*
X225059Y404427D01*
X15573Y404427D02*
X21859Y398141D01*
X15573Y398141D02*
X21859Y404427D01*
X91773Y404427D02*
X98059Y398141D01*
X91773Y398141D02*
X98059Y404427D01*
X117173Y398141D02*
X123459Y404427D01*
X117173Y404427D02*
X123459Y398141D01*
X142573Y398141D02*
X148859Y404427D01*
X142573Y404427D02*
X148859Y398141D01*
X40973Y398141D02*
X47259Y404427D01*
X40973Y404427D02*
X47259Y398141D01*
X66373Y398141D02*
X72659Y404427D01*
X66373Y404427D02*
X72659Y398141D01*
X125000Y495757D02*
X129243Y500000D01*
X125000Y504243D01*
X120757Y500000D01*
X125000Y495757D01*
X200000Y475757D02*
X204243Y480000D01*
X200000Y484243D01*
X195757Y480000D01*
X200000Y475757D01*
X225000Y475757D02*
X229243Y480000D01*
X225000Y484243D01*
X220757Y480000D01*
X225000Y475757D01*
X230000Y415757D02*
X234243Y420000D01*
X230000Y424243D01*
X225757Y420000D01*
X230000Y415757D01*
X195000Y415757D02*
X199243Y420000D01*
X195000Y424243D01*
X190757Y420000D01*
X195000Y415757D01*
X170000Y465757D02*
X174243Y470000D01*
X170000Y474243D01*
X165757Y470000D01*
X170000Y465757D01*
X35000Y335757D02*
X39243Y340000D01*
X35000Y344243D01*
X30757Y340000D01*
X35000Y335757D01*
X948795Y391770D02*
G75*
D01*
G02X948795Y391770I4975J0*
G01*
X950627Y437913D02*
X956913Y431627D01*
X950627Y431627D02*
X956913Y437913D01*
X953770Y473527D02*
X958013Y477770D01*
X953770Y482013D01*
X949527Y477770D01*
X953770Y473527D01*
G04 ColorRGB 00FFFF for the following layer *
%LNBoard Outline*%
%LPD*%
G54D10*
G54D13*
X467360Y270000D02*
X467360Y250000D01*
X203200Y250000D01*
X203200Y270000D01*
X467360Y270000D01*
X203200Y300000D02*
X203200Y320000D01*
X467360Y320000D01*
X467360Y300000D01*
X203200Y300000D01*
X0Y0D02*
X650000Y0D01*
X650000Y620000D01*
X0Y620000D01*
X0Y0D01*
G54D14*
X180340Y320040D02*
X149860Y320040D01*
X149860Y236220D01*
X182880Y236220D01*
X182880Y320040D01*
X180340Y320040D01*
G54D15*
X-2540Y-2540D02*
X-2540Y59968D01*
X-2540Y-2540D02*
X62968Y-2540D01*
X652540Y-2540D02*
X587032Y-2540D01*
X652540Y-2540D02*
X652540Y59968D01*
X652540Y622540D02*
X652540Y560032D01*
X652540Y622540D02*
X587032Y622540D01*
X-2540Y622540D02*
X62968Y622540D01*
X-2540Y622540D02*
X-2540Y560032D01*
X-52540Y-2540D02*
X-152540Y-2540D01*
X-102540Y-52540D02*
X-102540Y47460D01*
X-140040Y-2540D02*
G75*
D01*
G02X-140040Y-2540I37500J0*
G01*
X702540Y-2540D02*
X802540Y-2540D01*
X752540Y-52540D02*
X752540Y47460D01*
X715040Y-2540D02*
G75*
D01*
G02X715040Y-2540I37500J0*
G01*
X740040Y-2540D02*
G75*
D01*
G02X740040Y-2540I12500J0*
G01*
X-52540Y622540D02*
X-152540Y622540D01*
X-102540Y572540D02*
X-102540Y672540D01*
X-140040Y622540D02*
G75*
D01*
G02X-140040Y622540I37500J0*
G01*
X-127540Y622540D02*
G75*
D01*
G02X-127540Y622540I25000J0*
G01*
X-115040Y622540D02*
G75*
D01*
G02X-115040Y622540I12500J0*
G01*
G04 ColorRGB 66FFCC for the following layer *
%LNLegend Description*%
%LPD*%
G54D11*
X858270Y241270D02*
X2023270Y241270D01*
X2023270Y628270D01*
X858270Y628270D01*
X858270Y241270D01*
X1049270Y542270D02*
X1049270Y241270D01*
X1240270Y542270D02*
X1240270Y241270D01*
X1491270Y542270D02*
X1491270Y241270D01*
X1682270Y542270D02*
X1682270Y241270D01*
X2023270Y542270D02*
X2023270Y241270D01*
X858270Y284270D02*
X2023270Y284270D01*
X858270Y327270D02*
X2023270Y327270D01*
X858270Y370270D02*
X2023270Y370270D01*
X858270Y413270D02*
X2023270Y413270D01*
X858270Y456270D02*
X2023270Y456270D01*
X858270Y499270D02*
X2023270Y499270D01*
X867103Y516484D02*
X873770Y512199D01*
X880437Y512199D01*
X887103Y516484D01*
X867103Y529341D01*
X873770Y533627D01*
X880437Y533627D01*
X887103Y529341D01*
X897103Y505770D02*
X900437Y505770D01*
X917103Y527199D01*
X897103Y527199D02*
X907103Y514341D01*
X927103Y512199D02*
X927103Y525056D01*
X927103Y527199D01*
X927103Y525056D02*
X930437Y527199D01*
X933770Y527199D01*
X937103Y525056D01*
X940437Y527199D01*
X943770Y527199D01*
X947103Y525056D01*
X947103Y512199D01*
X937103Y525056D02*
X937103Y512199D01*
X957103Y516484D02*
X963770Y512199D01*
X970437Y512199D01*
X977103Y516484D01*
X977103Y520770D01*
X970437Y525056D01*
X963770Y525056D01*
X957103Y520770D01*
X957103Y533627D02*
X957103Y512199D01*
X987103Y516484D02*
X993770Y512199D01*
X1000437Y512199D01*
X1007103Y516484D01*
X1007103Y522913D01*
X1000437Y527199D01*
X993770Y527199D01*
X987103Y522913D01*
X987103Y516484D01*
X1020437Y533627D02*
X1020437Y516484D01*
X1027103Y512199D01*
X1088103Y516484D02*
X1094770Y512199D01*
X1101437Y512199D01*
X1108103Y516484D01*
X1088103Y529341D01*
X1094770Y533627D01*
X1101437Y533627D01*
X1108103Y529341D01*
X1128103Y512199D02*
X1128103Y525056D01*
X1128103Y529341D02*
X1128103Y531484D01*
X1148103Y527199D02*
X1168103Y527199D01*
X1148103Y512199D01*
X1168103Y512199D01*
X1198103Y516484D02*
X1191437Y512199D01*
X1184770Y512199D01*
X1178103Y516484D01*
X1178103Y522913D01*
X1184770Y527199D01*
X1191437Y527199D01*
X1198103Y522913D01*
X1194770Y520770D01*
X1178103Y520770D01*
X1249103Y516484D02*
X1255770Y512199D01*
X1262437Y512199D01*
X1269103Y516484D01*
X1269103Y529341D01*
X1262437Y533627D01*
X1255770Y533627D01*
X1249103Y529341D01*
X1249103Y516484D01*
X1262437Y516484D02*
X1269103Y512199D01*
X1279103Y527199D02*
X1279103Y516484D01*
X1285770Y512199D01*
X1292437Y512199D01*
X1299103Y516484D01*
X1299103Y527199D01*
X1299103Y516484D02*
X1299103Y512199D01*
X1312437Y527199D02*
X1322437Y527199D01*
X1325770Y525056D01*
X1325770Y514341D01*
X1322437Y512199D01*
X1312437Y512199D01*
X1309103Y514341D01*
X1309103Y518627D01*
X1312437Y520770D01*
X1325770Y520770D01*
X1325770Y514341D02*
X1329103Y512199D01*
X1339103Y512199D02*
X1339103Y525056D01*
X1339103Y527199D01*
X1339103Y525056D02*
X1342437Y527199D01*
X1349103Y527199D01*
X1352437Y525056D01*
X1352437Y512199D01*
X1385770Y514341D02*
X1382437Y512199D01*
X1379103Y514341D01*
X1379103Y533627D01*
X1372437Y527199D02*
X1385770Y527199D01*
X1409103Y512199D02*
X1409103Y525056D01*
X1409103Y529341D02*
X1409103Y531484D01*
X1445770Y514341D02*
X1442437Y512199D01*
X1439103Y514341D01*
X1439103Y533627D01*
X1432437Y527199D02*
X1445770Y527199D01*
X1459103Y505770D02*
X1462437Y505770D01*
X1479103Y527199D01*
X1459103Y527199D02*
X1469103Y514341D01*
X1500103Y512199D02*
X1500103Y533627D01*
X1513437Y533627D01*
X1520103Y529341D01*
X1520103Y527199D01*
X1513437Y522913D01*
X1500103Y522913D01*
X1533437Y533627D02*
X1533437Y516484D01*
X1540103Y512199D01*
X1563437Y527199D02*
X1573437Y527199D01*
X1576770Y525056D01*
X1576770Y514341D01*
X1573437Y512199D01*
X1563437Y512199D01*
X1560103Y514341D01*
X1560103Y518627D01*
X1563437Y520770D01*
X1576770Y520770D01*
X1576770Y514341D02*
X1580103Y512199D01*
X1606770Y514341D02*
X1603437Y512199D01*
X1600103Y514341D01*
X1600103Y533627D01*
X1593437Y527199D02*
X1606770Y527199D01*
X1640103Y516484D02*
X1633437Y512199D01*
X1626770Y512199D01*
X1620103Y516484D01*
X1620103Y522913D01*
X1626770Y527199D01*
X1633437Y527199D01*
X1640103Y522913D01*
X1636770Y520770D01*
X1620103Y520770D01*
X1670103Y516484D02*
X1663437Y512199D01*
X1656770Y512199D01*
X1650103Y516484D01*
X1650103Y520770D01*
X1656770Y525056D01*
X1663437Y525056D01*
X1670103Y520770D01*
X1670103Y533627D02*
X1670103Y512199D01*
X1691103Y516484D02*
X1697770Y512199D01*
X1704437Y512199D01*
X1711103Y516484D01*
X1691103Y529341D01*
X1697770Y533627D01*
X1704437Y533627D01*
X1711103Y529341D01*
X1724437Y533627D02*
X1724437Y516484D01*
X1731103Y512199D01*
X1751103Y516484D02*
X1757770Y512199D01*
X1764437Y512199D01*
X1771103Y516484D01*
X1771103Y522913D01*
X1764437Y527199D01*
X1757770Y527199D01*
X1751103Y522913D01*
X1751103Y516484D01*
X1797770Y514341D02*
X1794437Y512199D01*
X1791103Y514341D01*
X1791103Y533627D01*
X1784437Y527199D02*
X1797770Y527199D01*
X1841103Y533627D02*
X1841103Y512199D01*
X1861103Y512199D01*
X1891103Y516484D02*
X1884437Y512199D01*
X1877770Y512199D01*
X1871103Y516484D01*
X1871103Y522913D01*
X1877770Y527199D01*
X1884437Y527199D01*
X1891103Y522913D01*
X1887770Y520770D01*
X1871103Y520770D01*
X1901103Y512199D02*
X1901103Y525056D01*
X1901103Y527199D01*
X1901103Y525056D02*
X1904437Y527199D01*
X1911103Y527199D01*
X1914437Y525056D01*
X1914437Y512199D01*
X1931103Y510056D02*
X1937770Y505770D01*
X1944437Y505770D01*
X1951103Y510056D01*
X1951103Y516484D01*
X1951103Y522913D01*
X1944437Y527199D01*
X1937770Y527199D01*
X1931103Y522913D01*
X1931103Y516484D01*
X1937770Y512199D01*
X1944437Y512199D01*
X1951103Y516484D01*
X1977770Y514341D02*
X1974437Y512199D01*
X1971103Y514341D01*
X1971103Y533627D01*
X1964437Y527199D02*
X1977770Y527199D01*
X1991103Y522913D02*
X1997770Y527199D01*
X2004437Y527199D01*
X2011103Y522913D01*
X2011103Y512199D01*
X1991103Y533627D02*
X1991103Y512199D01*
X858270Y542270D02*
X2023270Y542270D01*
X1159103Y555199D02*
X1159103Y568056D01*
X1165770Y576627D01*
X1172437Y576627D01*
X1179103Y568056D01*
X1179103Y555199D01*
X1159103Y561627D02*
X1179103Y561627D01*
X1192437Y576627D02*
X1192437Y559484D01*
X1199103Y555199D01*
X1222437Y576627D02*
X1222437Y559484D01*
X1229103Y555199D01*
X1279103Y570199D02*
X1279103Y559484D01*
X1285770Y555199D01*
X1292437Y555199D01*
X1299103Y559484D01*
X1299103Y570199D01*
X1299103Y559484D02*
X1299103Y555199D01*
X1309103Y555199D02*
X1309103Y568056D01*
X1309103Y570199D01*
X1309103Y568056D02*
X1312437Y570199D01*
X1319103Y570199D01*
X1322437Y568056D01*
X1322437Y555199D01*
X1349103Y555199D02*
X1349103Y568056D01*
X1349103Y572341D02*
X1349103Y574484D01*
X1385770Y557341D02*
X1382437Y555199D01*
X1379103Y557341D01*
X1379103Y576627D01*
X1372437Y570199D02*
X1385770Y570199D01*
X1399103Y559484D02*
X1405770Y555199D01*
X1412437Y555199D01*
X1419103Y559484D01*
X1399103Y565913D01*
X1405770Y570199D01*
X1412437Y570199D01*
X1419103Y565913D01*
X1462437Y570199D02*
X1472437Y570199D01*
X1475770Y568056D01*
X1475770Y557341D01*
X1472437Y555199D01*
X1462437Y555199D01*
X1459103Y557341D01*
X1459103Y561627D01*
X1462437Y563770D01*
X1475770Y563770D01*
X1475770Y557341D02*
X1479103Y555199D01*
X1489103Y563770D02*
X1499103Y570199D01*
X1502437Y570199D01*
X1509103Y565913D01*
X1489103Y555199D02*
X1489103Y570199D01*
X1539103Y559484D02*
X1532437Y555199D01*
X1525770Y555199D01*
X1519103Y559484D01*
X1519103Y565913D01*
X1525770Y570199D01*
X1532437Y570199D01*
X1539103Y565913D01*
X1535770Y563770D01*
X1519103Y563770D01*
X1589103Y555199D02*
X1589103Y568056D01*
X1589103Y572341D02*
X1589103Y574484D01*
X1609103Y555199D02*
X1609103Y568056D01*
X1609103Y570199D01*
X1609103Y568056D02*
X1612437Y570199D01*
X1619103Y570199D01*
X1622437Y568056D01*
X1622437Y555199D01*
X1669103Y555199D02*
X1669103Y568056D01*
X1669103Y570199D01*
X1669103Y568056D02*
X1672437Y570199D01*
X1675770Y570199D01*
X1679103Y568056D01*
X1682437Y570199D01*
X1685770Y570199D01*
X1689103Y568056D01*
X1689103Y555199D01*
X1679103Y568056D02*
X1679103Y555199D01*
X1699103Y555199D02*
X1699103Y568056D01*
X1699103Y570199D01*
X1699103Y568056D02*
X1702437Y570199D01*
X1705770Y570199D01*
X1709103Y568056D01*
X1712437Y570199D01*
X1715770Y570199D01*
X1719103Y568056D01*
X1719103Y555199D01*
X1709103Y568056D02*
X1709103Y555199D01*
X858270Y585270D02*
X2023270Y585270D01*
X1264103Y598199D02*
X1277437Y598199D01*
X1284103Y602484D01*
X1284103Y615341D01*
X1277437Y619627D01*
X1264103Y619627D01*
X1267437Y619627D02*
X1267437Y598199D01*
X1294103Y606770D02*
X1304103Y613199D01*
X1307437Y613199D01*
X1314103Y608913D01*
X1294103Y598199D02*
X1294103Y613199D01*
X1334103Y598199D02*
X1334103Y611056D01*
X1334103Y615341D02*
X1334103Y617484D01*
X1357437Y619627D02*
X1357437Y602484D01*
X1364103Y598199D01*
X1387437Y619627D02*
X1387437Y602484D01*
X1394103Y598199D01*
X1444103Y619627D02*
X1444103Y598199D01*
X1464103Y598199D01*
X1494103Y602484D02*
X1487437Y598199D01*
X1480770Y598199D01*
X1474103Y602484D01*
X1474103Y608913D01*
X1480770Y613199D01*
X1487437Y613199D01*
X1494103Y608913D01*
X1490770Y606770D01*
X1474103Y606770D01*
X1504103Y596056D02*
X1510770Y591770D01*
X1517437Y591770D01*
X1524103Y596056D01*
X1524103Y602484D01*
X1524103Y608913D01*
X1517437Y613199D01*
X1510770Y613199D01*
X1504103Y608913D01*
X1504103Y602484D01*
X1510770Y598199D01*
X1517437Y598199D01*
X1524103Y602484D01*
X1554103Y602484D02*
X1547437Y598199D01*
X1540770Y598199D01*
X1534103Y602484D01*
X1534103Y608913D01*
X1540770Y613199D01*
X1547437Y613199D01*
X1554103Y608913D01*
X1550770Y606770D01*
X1534103Y606770D01*
X1564103Y598199D02*
X1564103Y611056D01*
X1564103Y613199D01*
X1564103Y611056D02*
X1567437Y613199D01*
X1574103Y613199D01*
X1577437Y611056D01*
X1577437Y598199D01*
X1614103Y602484D02*
X1607437Y598199D01*
X1600770Y598199D01*
X1594103Y602484D01*
X1594103Y606770D01*
X1600770Y611056D01*
X1607437Y611056D01*
X1614103Y606770D01*
X1614103Y619627D02*
X1614103Y598199D01*

M02*
