M48
METRIC,TZ
VER,1
FMAT,2
DETECT,ON
ATC,ON
T1C3.2000
T2C0.8890
T3C0.9949
T4C1.4000
T5C0.6000
T6C1.0000
%
T1
X35000Y35000
X615000Y525000
X35000
X615000Y35000
T2
X566316Y513316
Y538716
X236116Y513316
Y538716
X83716
X159916Y513316
Y538716
X109116Y513316
Y538716
X134516Y513316
Y538716
X185316Y513316
Y538716
X210716Y513316
Y538716
X388516Y513316
Y538716
X312316Y513316
Y538716
X286916Y513316
Y538716
X261516Y513316
Y538716
X363116Y513316
Y538716
X337716Y513316
Y538716
X439316Y513316
Y538716
X413916Y513316
Y538716
X464716Y513316
Y538716
X515516Y513316
Y538716
X490116Y513316
Y538716
X540916Y513316
Y538716
X630400Y215000
X171116Y172684
X323516
X425116
X450516
X348916
X374316
X399716
X247316
X272716
X298116
X196516
X221916
X18716
X94916
X120316
X145716
X44116
X69516
X171116Y401284
X323516
X425116
X450516
X348916
X374316
X399716
X247316
X272716
X298116
X196516
X221916
X18716
X94916
X120316
X145716
X44116
X69516
T3
X83716Y513316
X605000Y215000
X475916Y172684
Y401284
T4
X550000Y268800
Y319600
Y370400
Y421200
T5
X480000Y370000
X300000Y475000
X535000Y195000
X290000Y285000
X200000Y240000
X275000
X140000Y245000
Y315000
Y285000
X380000
X480000Y260000
Y310000
X550000Y130000
X55000Y145000
X585000Y120000
X555000Y195000
X20000Y350000
X15000Y445000
X30000
X515000Y270000
X584500Y90200
X640000Y70000
X585000Y10000
X640000
Y610000
X10000
X20000Y315000
X140000Y370000
X250000
X365000
Y240000
X425000Y365000
X85000Y490000
X105000Y480000
X125000Y500000
X200000Y480000
X225000
X230000Y420000
X195000
X170000Y470000
X35000Y340000
X390000Y460000
X450000Y155000
X530000Y485000
X495000
X440000
X265000Y45000
X170000Y80000
X135000Y110000
X175000
X215000
X130000Y80000
X210000
X300000
X345000
X315000Y110000
X385000Y80000
X360000Y110000
X405000
X260000Y220000
Y185000
T6
X540250Y75000
Y50000
Y25000
X625250Y172500
Y147500
X27500Y595250
X52500
X442500
X467500
X537500
X562500
X372500Y584750
X347500
X225800Y24750
X200400
X175000
X149600
X124200
X405800
X380400
X355000
X329600
X304200
X475250Y75000
Y50000
Y25000
X160000Y595250
X185000
X210000
X40250Y127500
Y102500
M30
